<svg width="24" height="24" viewBox="0 0 24 24" fill="none" xmlns="http://www.w3.org/2000/svg">
<path d="M21.2953 15.6415C21.1722 15.7193 20.8207 15.7672 20.5981 15.7672C19.8716 15.7672 18.981 15.4259 17.7214 14.8751C18.2077 14.8392 18.6471 14.8212 19.0455 14.8212C19.772 14.8212 19.9829 14.8212 20.6977 15.0068C21.4066 15.1864 21.4124 15.5636 21.2953 15.6415ZM8.69296 15.7552C8.97418 15.2523 9.26127 14.7194 9.55421 14.1506C10.269 12.7676 10.726 11.6779 11.0599 10.7858C11.7337 12.0371 12.5715 13.0969 13.5499 13.9471C13.673 14.0548 13.8018 14.1566 13.9425 14.2644C11.9446 14.6715 10.2163 15.1625 8.69296 15.7552ZM11.0248 2.64902C11.4232 2.64902 11.6517 3.67046 11.6692 4.63442C11.6868 5.59238 11.47 6.26296 11.1947 6.7659C10.9662 6.02347 10.8607 4.86193 10.8607 4.10154C10.8607 4.10154 10.8431 2.64902 11.0248 2.64902ZM3.20911 21.042C3.4376 20.4134 4.32814 19.168 5.64638 18.0604C5.7284 17.9945 5.93346 17.7969 6.12094 17.6173C4.74412 19.8685 3.81843 20.7606 3.20911 21.042ZM21.6761 14.3183C21.2777 13.9171 20.3872 13.7076 19.0396 13.6896C18.1257 13.6776 17.0301 13.7615 15.87 13.9231C15.3544 13.6178 14.8213 13.2885 14.3994 12.8873C13.2746 11.8096 12.3371 10.3188 11.7513 8.67824C11.7864 8.52257 11.8216 8.39085 11.8509 8.25314C11.8509 8.25314 12.4836 4.57095 12.3137 3.32559C12.2903 3.15196 12.2786 3.10406 12.2317 2.97234L12.179 2.82266C12.0091 2.41791 11.6692 1.98683 11.1361 2.01018L10.8256 2H10.8197C10.228 2 9.74169 2.30954 9.61865 2.76877C9.23197 4.22369 9.63037 6.39109 10.351 9.19914L10.1635 9.66016C9.64795 10.9414 9.00348 12.2347 8.43517 13.3723L8.35901 13.522C7.76141 14.7194 7.21654 15.7373 6.7244 16.5994L6.21468 16.8749C6.17953 16.8988 5.30657 17.3658 5.10151 17.4916C3.3673 18.5513 2.21428 19.7548 2.02329 20.7127C1.96235 21.0121 2.00805 21.4013 2.31681 21.5869L2.80895 21.8383C3.02163 21.9461 3.25012 22 3.47862 22C4.71483 22 6.15024 20.4313 8.12466 16.9048C10.4096 16.1444 13.0109 15.5098 15.29 15.1625C17.0242 16.1624 19.1568 16.8569 20.5043 16.8569C20.7445 16.8569 20.9496 16.833 21.1195 16.7851C21.3773 16.7192 21.5941 16.5695 21.7288 16.36C21.9866 15.9588 22.0452 15.408 21.969 14.8392C21.9515 14.6715 21.8167 14.462 21.6761 14.3183Z" fill="white"/>
<path d="M11.1872 6.78776C11.1498 6.64598 11.1137 6.48651 11.0799 6.3142C11.0126 5.99483 10.9614 5.6395 10.9255 5.2888C10.7627 3.82246 10.8076 2.13973 11.4136 2.06996L11.4721 2.05983C11.37 2.02331 11.2581 2.00483 11.136 2.01018L10.8255 2H10.8197C10.2279 2 9.74162 2.30954 9.61859 2.76877C9.2319 4.22369 9.63031 6.39109 10.3509 9.19914L10.1635 9.66016C9.64788 10.9414 9.00341 12.2347 8.4351 13.3723L8.35894 13.522C7.76133 14.7194 7.21646 15.7373 6.72432 16.5994L6.71421 16.6049L6.72565 16.611C4.97696 19.7049 3.7693 20.8154 3.26401 21.0154C3.2454 21.0248 3.22706 21.0337 3.20901 21.042C3.21004 21.0392 3.21108 21.0364 3.21213 21.0335C3.19858 21.0376 3.18565 21.0408 3.17336 21.0434C3.14363 21.0495 3.11439 21.0555 3.08565 21.0615C2.48746 21.1853 2.10527 21.2644 2 20.9575C2.00338 21.1995 2.08766 21.4492 2.31671 21.5869L2.80885 21.8383C3.02153 21.9461 3.25002 22 3.47852 22C4.69401 22 6.10209 20.4835 8.02575 17.0805L8.02479 17.0807L8.69322 15.7551L8.69289 15.7552C8.97412 15.2523 9.2612 14.7194 9.55414 14.1506C10.2689 12.7676 10.7259 11.6779 11.0599 10.7858C11.7336 12.0371 12.5714 13.0969 13.5499 13.9471C13.6488 14.0337 13.7515 14.1165 13.8611 14.2016L13.8628 14.2013L14.0579 14.3492C14.4878 14.6753 14.9401 14.9694 15.4113 15.2293L15.5889 15.3273L15.5858 15.3281C17.2613 16.2382 19.2325 16.8569 20.5043 16.8569C20.7445 16.8569 20.9496 16.833 21.1195 16.7851C21.3773 16.7192 21.5941 16.5695 21.7288 16.36C21.9602 15.9999 22.0311 15.5192 21.9881 15.0132C21.9738 15.2231 21.5555 15.493 21.3001 15.638C21.2985 15.6392 21.2969 15.6404 21.2953 15.6415C21.1722 15.7193 20.8207 15.7672 20.5981 15.7672C19.8716 15.7672 18.981 15.4259 17.7214 14.8751L17.7263 14.8747C17.648 14.8661 17.2941 14.6743 16.8441 14.4305L16.8438 14.4303C16.5489 14.2706 16.2128 14.0885 15.8859 13.9209L15.87 13.9231C15.3544 13.6178 14.8212 13.2885 14.3994 12.8873C13.2745 11.8096 12.3371 10.3188 11.7512 8.67824L11.7517 8.67619C11.5631 8.14204 11.3613 7.44751 11.1872 6.78776Z" fill="white"/>
<path d="M14.4234 18.8047C14.4107 18.6701 14.3584 18.5659 14.2665 18.4919C14.1747 18.4171 14.059 18.3796 13.9196 18.3796C13.8198 18.3796 13.7335 18.3986 13.6606 18.4365C13.5877 18.4735 13.5311 18.5246 13.4907 18.59C13.4511 18.6545 13.4313 18.728 13.4313 18.8104C13.4313 18.8796 13.4448 18.9393 13.4717 18.9896C13.4994 19.0398 13.5354 19.082 13.5798 19.1161C13.625 19.1493 13.6733 19.1773 13.7248 19.2C13.7762 19.2218 13.8257 19.2398 13.8733 19.254L14.1109 19.328C14.1885 19.3507 14.2681 19.3815 14.3497 19.4204C14.4313 19.4592 14.5069 19.5104 14.5766 19.5739C14.6463 19.6374 14.7026 19.7161 14.7453 19.81C14.7889 19.9038 14.8107 20.0161 14.8107 20.1469C14.8107 20.3118 14.775 20.4583 14.7038 20.5863C14.6333 20.7142 14.5307 20.8152 14.396 20.8891C14.2622 20.963 14.1002 21 13.9101 21C13.7279 21 13.5703 20.9654 13.4372 20.8962C13.3042 20.827 13.2 20.7289 13.1248 20.6019C13.0495 20.4739 13.0079 20.3223 13 20.1469H13.3683C13.3754 20.2521 13.404 20.3398 13.4539 20.41C13.5046 20.4791 13.5691 20.5308 13.6475 20.5649C13.7267 20.5981 13.8135 20.6147 13.9077 20.6147C14.0115 20.6147 14.1038 20.5953 14.1846 20.5564C14.2661 20.5166 14.3303 20.4616 14.377 20.3915C14.4238 20.3204 14.4471 20.2374 14.4471 20.1427C14.4471 20.0564 14.4265 19.9858 14.3853 19.9308C14.345 19.8758 14.2899 19.8303 14.2202 19.7943C14.1513 19.7583 14.0733 19.7265 13.9861 19.6991L13.6986 19.6052C13.5038 19.5417 13.3493 19.4483 13.2352 19.3251C13.122 19.2019 13.0653 19.0389 13.0653 18.836C13.0653 18.6682 13.1034 18.5218 13.1794 18.3967C13.2554 18.2716 13.3584 18.1744 13.4883 18.1052C13.6182 18.0351 13.7648 18 13.9279 18C14.0927 18 14.238 18.0346 14.364 18.1038C14.4907 18.173 14.5905 18.2682 14.6634 18.3896C14.7362 18.51 14.7743 18.6483 14.7774 18.8047H14.4234Z" fill="white"/>
<path d="M17.2704 18.9867H16.8997C16.8854 18.8919 16.8589 18.8085 16.8201 18.7365C16.7813 18.6645 16.7338 18.6033 16.6775 18.5531C16.6213 18.5028 16.5583 18.4649 16.4886 18.4393C16.4197 18.4137 16.3464 18.4009 16.2688 18.4009C16.1286 18.4009 16.0031 18.4431 15.8922 18.5275C15.7821 18.6118 15.695 18.7355 15.6308 18.8986C15.5674 19.0616 15.5357 19.2607 15.5357 19.4957C15.5357 19.7327 15.5674 19.9327 15.6308 20.0957C15.695 20.2588 15.7825 20.382 15.8934 20.4654C16.0043 20.5488 16.129 20.5905 16.2676 20.5905C16.3445 20.5905 16.4173 20.5782 16.4862 20.5536C16.5559 20.528 16.6189 20.4905 16.6751 20.4412C16.7314 20.3919 16.7789 20.3318 16.8177 20.2607C16.8573 20.1886 16.8847 20.1062 16.8997 20.0133L17.2704 20.0147C17.2506 20.1578 17.2122 20.2896 17.1551 20.41C17.0989 20.5294 17.0264 20.6327 16.9377 20.7199C16.8498 20.8062 16.7492 20.873 16.6359 20.9204C16.5227 20.9678 16.3991 20.9915 16.2652 20.9915C16.0546 20.9915 15.8668 20.9318 15.7021 20.8123C15.5373 20.6919 15.4074 20.5199 15.3124 20.2962C15.2181 20.0725 15.171 19.8057 15.171 19.4957C15.171 19.1848 15.2185 18.918 15.3136 18.6953C15.4086 18.4716 15.5385 18.3 15.7033 18.1806C15.868 18.0602 16.0553 18 16.2652 18C16.3944 18 16.5148 18.0223 16.6264 18.0668C16.7389 18.1104 16.8399 18.1749 16.9294 18.2602C17.0189 18.3445 17.093 18.4479 17.1516 18.5701C17.2102 18.6915 17.2498 18.8303 17.2704 18.9867Z" fill="white"/>
<path d="M17.8989 20.9517H17.5092L18.3849 18.0398H18.809L19.6847 20.9517H19.295L18.607 18.5687H18.588L17.8989 20.9517ZM17.9643 19.8114H19.2284V20.181H17.9643V19.8114Z" fill="white"/>
<path d="M22 18.0398V20.9517H21.6626L20.4257 18.8161H20.4032V20.9517H20.036V18.0398H20.3758L21.6139 20.1782H21.6364V18.0398H22Z" fill="white"/>
</svg>
