<svg width="24" height="24" viewBox="0 0 24 24" fill="none" xmlns="http://www.w3.org/2000/svg">
<path d="M21.2953 15.6415C21.1722 15.7193 20.8207 15.7672 20.5981 15.7672C19.8716 15.7672 18.981 15.4259 17.7214 14.8751C18.2077 14.8392 18.6471 14.8212 19.0455 14.8212C19.772 14.8212 19.9829 14.8212 20.6977 15.0068C21.4066 15.1864 21.4124 15.5636 21.2953 15.6415ZM8.69296 15.7552C8.97418 15.2523 9.26127 14.7194 9.55421 14.1506C10.269 12.7676 10.726 11.6779 11.0599 10.7858C11.7337 12.0371 12.5715 13.0969 13.5499 13.9471C13.673 14.0548 13.8018 14.1566 13.9425 14.2644C11.9446 14.6715 10.2163 15.1625 8.69296 15.7552ZM11.0248 2.64902C11.4232 2.64902 11.6517 3.67046 11.6692 4.63442C11.6868 5.59238 11.47 6.26296 11.1947 6.7659C10.9662 6.02347 10.8607 4.86193 10.8607 4.10154C10.8607 4.10154 10.8431 2.64902 11.0248 2.64902ZM3.20911 21.042C3.4376 20.4134 4.32814 19.168 5.64638 18.0604C5.7284 17.9945 5.93346 17.7969 6.12094 17.6173C4.74412 19.8685 3.81843 20.7606 3.20911 21.042ZM21.6761 14.3183C21.2777 13.9171 20.3872 13.7076 19.0396 13.6896C18.1257 13.6776 17.0301 13.7615 15.87 13.9231C15.3544 13.6178 14.8213 13.2885 14.3994 12.8873C13.2746 11.8096 12.3371 10.3188 11.7513 8.67824C11.7864 8.52257 11.8216 8.39085 11.8509 8.25314C11.8509 8.25314 12.4836 4.57095 12.3137 3.32559C12.2903 3.15196 12.2786 3.10406 12.2317 2.97234L12.179 2.82266C12.0091 2.41791 11.6692 1.98683 11.1361 2.01018L10.8256 2H10.8197C10.228 2 9.74169 2.30954 9.61865 2.76877C9.23197 4.22369 9.63037 6.39109 10.351 9.19914L10.1635 9.66016C9.64795 10.9414 9.00348 12.2347 8.43517 13.3723L8.35901 13.522C7.76141 14.7194 7.21654 15.7373 6.7244 16.5994L6.21468 16.8749C6.17953 16.8988 5.30657 17.3658 5.10151 17.4916C3.3673 18.5513 2.21428 19.7548 2.02329 20.7127C1.96235 21.0121 2.00805 21.4013 2.31681 21.5869L2.80895 21.8383C3.02163 21.9461 3.25012 22 3.47862 22C4.71483 22 6.15024 20.4313 8.12466 16.9048C10.4096 16.1444 13.0109 15.5098 15.29 15.1625C17.0242 16.1624 19.1568 16.8569 20.5043 16.8569C20.7445 16.8569 20.9496 16.833 21.1195 16.7851C21.3773 16.7192 21.5941 16.5695 21.7288 16.36C21.9866 15.9588 22.0452 15.408 21.969 14.8392C21.9515 14.6715 21.8167 14.462 21.6761 14.3183Z" fill="white"/>
<path d="M11.1872 6.78776C11.1498 6.64598 11.1137 6.48651 11.0799 6.3142C11.0126 5.99483 10.9614 5.6395 10.9255 5.2888C10.7627 3.82246 10.8076 2.13973 11.4136 2.06996L11.4721 2.05983C11.37 2.02331 11.2581 2.00483 11.136 2.01018L10.8255 2H10.8197C10.2279 2 9.74162 2.30954 9.61859 2.76877C9.2319 4.22369 9.63031 6.39109 10.3509 9.19914L10.1635 9.66016C9.64788 10.9414 9.00341 12.2347 8.4351 13.3723L8.35894 13.522C7.76133 14.7194 7.21646 15.7373 6.72432 16.5994L6.71421 16.6049L6.72565 16.611C4.97696 19.7049 3.7693 20.8154 3.26401 21.0154C3.2454 21.0248 3.22706 21.0337 3.20901 21.042C3.21004 21.0392 3.21108 21.0364 3.21213 21.0335C3.19858 21.0376 3.18565 21.0408 3.17336 21.0434C3.14363 21.0495 3.11439 21.0555 3.08565 21.0615C2.48746 21.1853 2.10527 21.2644 2 20.9575C2.00338 21.1995 2.08766 21.4492 2.31671 21.5869L2.80885 21.8383C3.02153 21.9461 3.25002 22 3.47852 22C4.69401 22 6.10209 20.4835 8.02575 17.0805L8.02479 17.0807L8.69322 15.7551L8.69289 15.7552C8.97412 15.2523 9.2612 14.7194 9.55414 14.1506C10.2689 12.7676 10.7259 11.6779 11.0599 10.7858C11.7336 12.0371 12.5714 13.0969 13.5499 13.9471C13.6488 14.0337 13.7515 14.1165 13.8611 14.2016L13.8628 14.2013L14.0579 14.3492C14.4878 14.6753 14.9401 14.9694 15.4113 15.2293L15.5889 15.3273L15.5858 15.3281C17.2613 16.2382 19.2325 16.8569 20.5043 16.8569C20.7445 16.8569 20.9496 16.833 21.1195 16.7851C21.3773 16.7192 21.5941 16.5695 21.7288 16.36C21.9602 15.9999 22.0311 15.5192 21.9881 15.0132C21.9738 15.2231 21.5555 15.493 21.3001 15.638C21.2985 15.6392 21.2969 15.6404 21.2953 15.6415C21.1722 15.7193 20.8207 15.7672 20.5981 15.7672C19.8716 15.7672 18.981 15.4259 17.7214 14.8751L17.7263 14.8747C17.648 14.8661 17.2941 14.6743 16.8441 14.4305L16.8438 14.4303C16.5489 14.2706 16.2128 14.0885 15.8859 13.9209L15.87 13.9231C15.3544 13.6178 14.8212 13.2885 14.3994 12.8873C13.2745 11.8096 12.3371 10.3188 11.7512 8.67824L11.7517 8.67619C11.5631 8.14204 11.3613 7.44751 11.1872 6.78776Z" fill="white"/>
<path d="M14 21V18H15.0013C15.2198 18 15.4009 18.0425 15.5444 18.1274C15.688 18.2124 15.7954 18.3286 15.8668 18.4761C15.9381 18.6226 15.9737 18.7876 15.9737 18.9712C15.9737 19.1558 15.9376 19.3218 15.8654 19.4692C15.7941 19.6157 15.6862 19.7319 15.5417 19.8179C15.3981 19.9028 15.2175 19.9453 14.9999 19.9453H14.3114V19.5615H14.9615C15.0996 19.5615 15.2116 19.5361 15.2975 19.4854C15.3835 19.4336 15.4466 19.3633 15.4868 19.2744C15.5271 19.1855 15.5472 19.0845 15.5472 18.9712C15.5472 18.8579 15.5271 18.7573 15.4868 18.6694C15.4466 18.5815 15.383 18.5127 15.2962 18.4629C15.2102 18.4131 15.0968 18.3882 14.956 18.3882H14.4238V21H14Z" fill="white"/>
<path d="M17.38 21H16.4706V18H17.4088C17.684 18 17.9204 18.0601 18.1179 18.1802C18.3154 18.2993 18.4668 18.4707 18.5719 18.6943C18.678 18.917 18.731 19.1841 18.731 19.4956C18.731 19.8081 18.6775 20.0767 18.5705 20.3013C18.4645 20.5259 18.3108 20.6987 18.1097 20.8198C17.9085 20.9399 17.6653 21 17.38 21ZM16.8944 20.6045H17.3567C17.5706 20.6045 17.7485 20.5615 17.8902 20.4756C18.032 20.3887 18.138 20.2632 18.2084 20.0991C18.2788 19.9341 18.314 19.7329 18.314 19.4956C18.314 19.2603 18.2788 19.0605 18.2084 18.8965C18.1389 18.7324 18.0352 18.6079 17.8971 18.5229C17.759 18.438 17.5876 18.3955 17.3827 18.3955H16.8944V20.6045Z" fill="white"/>
<path d="M19.2581 21V18H21V18.3896H19.6819V19.3037H20.8752V19.6919H19.6819V21H19.2581Z" fill="white"/>
</svg>
