<svg width="24" height="24" viewBox="0 0 24 24" fill="none" xmlns="http://www.w3.org/2000/svg">
<path d="M11.2 8.375L14.7 2.375C16.2167 2.775 17.5627 3.50833 18.738 4.575C19.9127 5.64167 20.7667 6.90833 21.3 8.375H11.2ZM8.425 10.875L5 4.875C5.9 3.99167 6.946 3.29167 8.138 2.775C9.32933 2.25833 10.6167 2 12 2C12.2167 2 12.4667 2.01233 12.75 2.037C13.0333 2.06233 13.2917 2.09167 13.525 2.125L8.425 10.875ZM2.325 14.5C2.225 14.1 2.146 13.6917 2.088 13.275C2.02933 12.8583 2 12.4333 2 12C2 10.8167 2.19167 9.7 2.575 8.65C2.95833 7.6 3.5 6.64167 4.2 5.775L9.25 14.5H2.325ZM9.325 21.625C7.80833 21.225 6.45833 20.4917 5.275 19.425C4.09167 18.3583 3.23333 17.0917 2.7 15.625H12.775L9.325 21.625ZM12 22C11.75 22 11.496 21.9833 11.238 21.95C10.9793 21.9167 10.7333 21.8833 10.5 21.85L15.575 13.125L19 19.125C18.1 20.0083 17.0543 20.7083 15.863 21.225C14.671 21.7417 13.3833 22 12 22ZM19.8 18.225L14.75 9.5H21.675C21.775 9.9 21.8543 10.3083 21.913 10.725C21.971 11.1417 22 11.5667 22 12C22 13.1667 21.796 14.2833 21.388 15.35C20.9793 16.4167 20.45 17.375 19.8 18.225Z" fill="#FFF1C0"/>
</svg>
