<?xml version="1.0" encoding="UTF-8" standalone="no"?>
<svg
   width="24"
   height="24"
   viewBox="0 0 24 24"
   fill="none"
   version="1.1"
   id="svg8"
   sodipodi:docname="calendar.svg"
   inkscape:version="1.2.1 (9c6d41e410, 2022-07-14)"
   xmlns:inkscape="http://www.inkscape.org/namespaces/inkscape"
   xmlns:sodipodi="http://sodipodi.sourceforge.net/DTD/sodipodi-0.dtd"
   xmlns="http://www.w3.org/2000/svg"
   xmlns:svg="http://www.w3.org/2000/svg">
  <defs
     id="defs12" />
  <sodipodi:namedview
     id="namedview10"
     pagecolor="#505050"
     bordercolor="#ffffff"
     borderopacity="1"
     inkscape:showpageshadow="0"
     inkscape:pageopacity="0"
     inkscape:pagecheckerboard="1"
     inkscape:deskcolor="#505050"
     showgrid="false"
     inkscape:zoom="44.396018"
     inkscape:cx="11.588877"
     inkscape:cy="11.397419"
     inkscape:window-width="1920"
     inkscape:window-height="1012"
     inkscape:window-x="0"
     inkscape:window-y="0"
     inkscape:window-maximized="1"
     inkscape:current-layer="svg8"
     showguides="false" />
  <path
     d="M 21,19 V 4.9999999 c 0,-1.1 -0.9,-2 -2,-2 H 5.0000001 C 3.9,2.9999999 3,3.8999999 3,4.9999999 V 19 c 0,1.1 0.9,2 2.0000001,2 H 19 c 1.1,0 2,-0.9 2,-2 z M 20.7,5 c 0,-1.1 -0.9,-1.7 -2,-1.7 H 5.3000001 c -1.1,0 -2,0.6 -2,1.7 L 3.3,7 H 20.7 Z M 8.25,9 h 7.5 v 1.75 c 0,0 -2.75,3.803127 -2.75,8.25 h -2 c 0,-4.448237 2.75,-8.25 2.75,-8.25 h -5.5 z m 1.373469,-2.9915025 -0.751786,-1.99 v 2.59 H 8.4925 v -2.95 h 0.589388 l 0.737488,1.99 0.736978,-1.99 h 0.589388 v 2.95 h -0.379183 v -2.59 l -0.751301,1.99 z m 2.626608,-0.1702325 -0.283828,0.77 h -0.379182 l 1.122866,-2.953535 0.399112,4.649e-4 1.122911,2.9530701 H 13.852773 L 13.568946,5.8382651 Z m 0.127874,-0.346 L 12.9095,4.0494695 13.441072,5.492265 Z M 15.1845,4.8678264 14.441092,3.6544975 H 13.9615 l 1.023,1.537 V 6.608265 l 0.4,-4.649e-4 V 5.1914975 l 1.023,-1.537 h -0.479591 z"
     style="fill:#000000;fill-rule:evenodd;stroke:none"
     id="path1137"
     sodipodi:nodetypes="ssssssssscssccccccccccccccccccccccccccccccccccccccccccccccccc"
     inkscape:label="path1" />
</svg>
