<svg width="24" height="24" viewBox="0 0 24 24" fill="none" xmlns="http://www.w3.org/2000/svg">
<path fill-rule="evenodd" clip-rule="evenodd" d="M7.58853 2.01685C7.4967 2.02882 7.42151 2.05842 7.42151 2.08268C7.42151 2.10689 7.35408 2.14153 7.27165 2.15967C7.18916 2.17776 7.10899 2.22586 7.09336 2.26651C7.07774 2.30717 7.03935 2.34047 7.008 2.34047C6.94129 2.34047 6.65062 2.62056 6.65062 2.68485C6.65062 2.70901 6.60436 2.76836 6.54783 2.81678C6.4913 2.86519 6.44504 2.94932 6.44504 3.00379C6.44504 3.05822 6.41616 3.11244 6.3808 3.12421C6.2864 3.15566 6.2864 20.849 6.3808 20.8804C6.41616 20.8922 6.44504 20.9461 6.44504 21.0003C6.44504 21.0545 6.46427 21.0988 6.48775 21.0988C6.51124 21.0988 6.5633 21.1625 6.60339 21.2402C6.68808 21.4043 6.88769 21.6107 7.05071 21.7027C7.11331 21.738 7.2166 21.7958 7.28018 21.8312C7.3438 21.8665 7.41231 21.9185 7.43251 21.9468C7.48308 22.0177 16.5079 22.0177 16.5584 21.9468C16.5786 21.9185 16.6471 21.8665 16.7108 21.8312C17.0914 21.6197 17.2375 21.5126 17.2375 21.445C17.2375 21.4218 17.2801 21.3572 17.3321 21.3014C17.3841 21.2456 17.4592 21.1367 17.499 21.0594C17.5388 20.9822 17.5946 20.9025 17.6229 20.8823C17.7057 20.8233 17.693 3.15186 17.6101 3.12421C17.5748 3.11244 17.5459 3.05848 17.5459 3.00431C17.5459 2.95009 17.5267 2.90579 17.5032 2.90579C17.4797 2.90579 17.4276 2.84216 17.3875 2.76446C17.3044 2.60334 17.0616 2.34047 16.996 2.34047C16.9718 2.34047 16.8861 2.26528 16.8055 2.17344L16.659 2.00641L12.2073 2.00071C9.75885 1.99763 7.68037 2.00487 7.58853 2.01685ZM11.7385 11.771V19.6598H9.34874H6.95897V11.771V3.88225H9.34874H11.7385V11.771ZM17.032 10.1265V16.3707H16.5951H16.1583V15.8311V15.2914H15.5673H14.9762V14.3407V13.3899H15.5673H16.1583V12.0023V10.6147H15.5673H14.9762V9.58685V8.55899H15.5673H16.1583V7.17139V5.78378H14.7982H13.4381L13.4234 6.31056L13.4088 6.83733L12.9077 6.85203L12.4066 6.86673V5.37449V3.88225H14.7193H17.032V10.1265ZM13.4345 7.94228V8.55899H14.0255H14.6165V9.58685V10.6147H14.0255H13.4345V12.0023V13.3899H14.0255H14.6165V14.3407V15.2914H14.0255H13.4345V16.679V18.0667H14.7964H16.1583V17.4756V16.8846H16.5951H17.032V18.2722V19.6598H14.7193H12.4066V13.4927V7.32557H12.9205H13.4345V7.94228Z" fill="black"/>
</svg>
