<svg width="24" height="24" viewBox="0 0 24 24" fill="none" xmlns="http://www.w3.org/2000/svg">
<path fill-rule="evenodd" clip-rule="evenodd" d="M7.94663 2.14961C7.53986 2.29009 7.34527 2.49833 7.62076 2.49853C8.31829 2.49904 9.5508 3.66981 9.73589 4.50764C10.1251 6.26986 9.18341 7.6148 7.35523 7.9081C5.8666 8.14688 5.08183 9.59599 5.08527 12.0997C5.09021 15.6704 6.04871 16.9122 9.45956 17.7669C11.5224 18.2839 12.0532 18.4731 13.3507 19.1538C16.7302 20.9269 19.8806 18.8318 19.8864 14.8074C19.888 13.745 21.1334 13.2911 22.4427 13.8757C23.1249 14.1804 23.1144 14.1945 22.7666 13.4384C22.1472 12.0922 20.9888 11.5538 19.5092 11.9248L19.0241 12.0465L18.5013 11.4295C16.9301 9.57546 14.6325 8.78436 11.1347 8.89338C10.2133 8.922 9.45956 8.91078 9.45956 8.8683C9.45956 8.7703 9.94416 8.03988 10.4745 7.33859C12.3846 4.81297 10.6351 1.22166 7.94663 2.14961ZM6.01827 3.38339L5.1443 3.86379L3.92688 3.87401C0.430842 3.90334 -0.0218263 6.95345 3.04808 9.79604L3.55651 10.2668L3.55195 9.33697C3.54432 7.75831 3.68044 7.67063 6.29404 7.5706C8.55301 7.48423 9.1377 7.14167 9.46403 5.71351C9.9464 3.60265 8.00612 2.29069 6.01827 3.38339ZM15.4247 14.8047C15.0942 16.117 13.8179 16.807 12.7551 16.2481C12.022 15.8626 12.0822 15.7981 13.1752 15.7981C14.4164 15.7981 14.7064 15.6156 15.1729 14.5416C15.4897 13.8119 15.6362 13.9649 15.4247 14.8047ZM10.9384 19.1614C10.1491 19.7335 9.90478 19.8843 9.27335 20.1898C7.67225 20.9642 7.88899 21.0357 11.694 20.9889L14.3475 20.9561V20.6021C14.3475 19.8452 11.5982 18.6833 10.9384 19.1614Z" fill="#FFF1C0"/>
</svg>
