<?xml version="1.0" encoding="UTF-8" standalone="no"?>
<svg
   width="24"
   height="24"
   viewBox="0 0 24 24"
   fill="none"
   version="1.1"
   id="svg8"
   sodipodi:docname="droid_ify.svg"
   inkscape:version="1.2.1 (9c6d41e410, 2022-07-14, custom)"
   xml:space="preserve"
   xmlns:inkscape="http://www.inkscape.org/namespaces/inkscape"
   xmlns:sodipodi="http://sodipodi.sourceforge.net/DTD/sodipodi-0.dtd"
   xmlns="http://www.w3.org/2000/svg"
   xmlns:svg="http://www.w3.org/2000/svg"><defs
     id="defs12"><inkscape:path-effect
       effect="mirror_symmetry"
       start_point="12.000001,2.1473306"
       end_point="12.000001,21"
       center_point="12.000001,11.573665"
       id="path-effect1795"
       is_visible="true"
       lpeversion="1.2"
       lpesatellites=""
       mode="free"
       discard_orig_path="false"
       fuse_paths="false"
       oposite_fuse="false"
       split_items="false"
       split_open="false"
       link_styles="false" /></defs><sodipodi:namedview
     id="namedview10"
     pagecolor="#ffffff"
     bordercolor="#666666"
     borderopacity="1.0"
     inkscape:pageshadow="2"
     inkscape:pageopacity="0.0"
     inkscape:pagecheckerboard="true"
     showgrid="true"
     inkscape:lockguides="true"
     inkscape:zoom="32"
     inkscape:cx="12.03125"
     inkscape:cy="13.9375"
     inkscape:window-width="1920"
     inkscape:window-height="1020"
     inkscape:window-x="0"
     inkscape:window-y="28"
     inkscape:window-maximized="1"
     inkscape:current-layer="svg8"
     inkscape:showpageshadow="0"
     inkscape:deskcolor="#d1d1d1"
     showguides="false"><inkscape:grid
       type="xygrid"
       id="grid829"
       empspacing="1" /></sodipodi:namedview><path
     style="display:inline;fill:#000000;fill-opacity:1;fill-rule:evenodd;stroke:none;stroke-width:0.05;stroke-dasharray:none;stroke-opacity:1"
     d="m 6.75,12 h 3.55 c 0,-1.301123 0.82504,-2 1.7,-2 V 21 H 6.75 c -0.4714045,0 -1,-0.528595 -1,-1 v -7 c 0,-0.471405 0.5285955,-1 1,-1 z m 4.5,0 c 0,-0.489579 0.150367,-1 0.75,-1 v 1 z m 0.750001,2.755162 c -1.129333,0 -2.0448391,0.943315 -2.0448396,2.044838 -3e-7,0.74661 0.3919816,1.348774 0.9448386,1.7 l 0.4,-1.1 c 0,0 -0.225286,-0.25523 -0.225286,-0.600016 0,-0.500449 0.414264,-0.925285 0.925286,-0.925285 z M 12,3.2 c -1.020001,0 -1.994566,0.2143785 -2.85,0.64 L 7.7835934,2.4039647 c 0,0 -0.4979906,-0.5395675 -0.9835934,-0.053965 C 6.3143972,2.8356027 6.734344,3.2243035 6.734344,3.2243035 L 8,4.6 C 6.7214607,5.7095759 5.9,7.4815263 5.9,9.9 v 0.800011 c 0,0.188562 0.2114382,0.4 0.4,0.4 h 3.3 c 0.502471,0 0.492593,-1.2000004 0,-1.2000004 L 7.3,9.9 C 7.3,8.1536785 7.9932529,4.4 12,4.4 Z m -1.018095,4.3 c 0,0.4946305 -0.350071,0.895608 -0.781905,0.8956084 -0.4318342,2e-7 -0.7819055,-0.4009775 -0.7819055,-0.8956085 0,-0.494631 0.3500713,-0.8956085 0.7819055,-0.8956083 0.431834,4e-7 0.781905,0.4009778 0.781905,0.8956084 z m 6.268097,4.5 h -3.55 c 0,-1.301123 -0.82504,-2 -1.7,-2 v 11 h 5.25 c 0.471404,0 1,-0.528595 1,-1 v -7 c 0,-0.471405 -0.528596,-1 -1,-1 z m -4.5,0 c 0,-0.489579 -0.150367,-1 -0.75,-1 v 1 z m -0.750001,2.755162 c 1.129333,0 2.044839,0.943315 2.04484,2.044838 0,0.74661 -0.391982,1.348774 -0.944839,1.7 l -0.4,-1.1 c 0,0 0.225286,-0.25523 0.225286,-0.600016 0,-0.500449 -0.414264,-0.925285 -0.925286,-0.925285 z M 12.000002,3.2 c 1.020001,0 1.994566,0.2143785 2.85,0.64 l 1.366407,-1.4360353 c 0,0 0.49799,-0.5395675 0.983593,-0.053965 0.485603,0.485603 0.06566,0.8743038 0.06566,0.8743038 L 16.000002,4.6 c 1.278539,1.1095759 2.1,2.8815263 2.1,5.3 v 0.800011 c 0,0.188562 -0.211438,0.4 -0.4,0.4 h -3.3 c -0.502471,0 -0.492593,-1.2000004 0,-1.2000004 l 2.3,-1.06e-5 c 0,-1.7463215 -0.693253,-5.5 -4.7,-5.5 z m 1.018095,4.3 c 0,0.4946305 0.350071,0.895608 0.781905,0.8956084 0.431834,2e-7 0.781906,-0.4009775 0.781906,-0.8956085 0,-0.494631 -0.350072,-0.8956085 -0.781906,-0.8956083 -0.431834,4e-7 -0.781905,0.4009778 -0.781905,0.8956084 z"
     id="path1758"
     sodipodi:nodetypes="scccsssscccccsccsccccczcccsscccccsssss"
     inkscape:path-effect="#path-effect1795"
     inkscape:original-d="m 6.75,12 h 3.55 c 0,-1.301123 0.82504,-2 1.7,-2 V 21 H 6.75 c -0.4714045,0 -1,-0.528595 -1,-1 v -7 c 0,-0.471405 0.5285955,-1 1,-1 z m 4.5,0 c 0,-0.489579 0.150367,-1 0.75,-1 v 1 z m 0.750001,2.755162 c -1.129333,0 -2.0448391,0.943315 -2.0448396,2.044838 -3e-7,0.74661 0.3919816,1.348774 0.9448386,1.7 l 0.4,-1.1 c 0,0 -0.225286,-0.25523 -0.225286,-0.600016 0,-0.500449 0.414264,-0.925285 0.925286,-0.925285 z M 12,3.2 c -1.020001,0 -1.994566,0.2143785 -2.85,0.64 L 7.7835934,2.4039647 c 0,0 -0.4979906,-0.5395675 -0.9835934,-0.053965 C 6.3143972,2.8356027 6.734344,3.2243035 6.734344,3.2243035 L 8,4.6 C 6.7214607,5.7095759 5.9,7.4815263 5.9,9.9 v 0.800011 c 0,0.188562 0.2114382,0.4 0.4,0.4 h 3.3 c 0.502471,0 0.492593,-1.2000004 0,-1.2000004 L 7.3,9.9 C 7.3,8.1536785 7.9932529,4.4 12,4.4 Z m -1.018095,4.3 c 0,0.4946305 -0.350071,0.895608 -0.781905,0.8956084 -0.4318342,2e-7 -0.7819055,-0.4009775 -0.7819055,-0.8956085 0,-0.494631 0.3500713,-0.8956085 0.7819055,-0.8956083 0.431834,4e-7 0.781905,0.4009778 0.781905,0.8956084 z"
     class="UnoptimicedTransforms"
     transform="matrix(1.0608577,0,0,1.0608577,-0.73029346,-0.27801195)" /></svg>
