<svg xmlns="http://www.w3.org/2000/svg" style="-ms-transform:rotate(360deg);-webkit-transform:rotate(360deg)" viewBox="0 0 192 192"><path d="M63.999295 35.1175a16.386913 16.386913 0 0 0-16.333578 16.366912v20.780312l-24.480368-6.086758h-.01333a5.7600865 5.7600865 0 0 0-1.613358-.173336 5.7600865 5.7600865 0 0 0-5.54675 6.126759 43.820658 43.820658 0 0 0 32.573823 39.133921 48.574063 48.574063 0 0 0 47.414045 39.26059 48.574063 48.574063 0 0 0 47.374041-39.25392 43.820658 43.820658 0 0 0 32.61383-39.140591 5.7600865 5.7600865 0 0 0-5.54009-6.133425 5.7600865 5.7600865 0 0 0-1.63335.180002l-24.48704 6.086758V51.484412A16.386913 16.386913 0 0 0 127.99359 35.1175a18.966951 18.966951 0 0 0-6.40009 1.280019c-12.46686 5.313413-20.76032 7.920119-25.54039 8.00012-4.780072-.08-13.080196-2.686707-25.54705-8.00012a18.966951 18.966951 0 0 0-6.500098-1.280019Zm54.234155 9.386808a1.2666857 1.2666857 0 0 1 .24 0c.43334.05333.84668.333338 1.17335.846679a13.000195 13.000195 0 0 1 .46668.953348 13.000195 13.000195 0 0 1 .24667.586675 13.000195 13.000195 0 0 1 .23333.613343 13.000195 13.000195 0 0 1 .19334.626676 13.000195 13.000195 0 0 1 .16667.620009 13.000195 13.000195 0 0 1 .12667.64001 13.000195 13.000195 0 0 1 .1.646676 13.000195 13.000195 0 0 1 .0667.620009 13.000195 13.000195 0 0 1 .0333.680011 13.000195 13.000195 0 0 1 0 1.046682 18.153606 18.153606 0 0 1 .0467 0l3.15338-3.506719a1.6533582 1.6533582 0 0 1 .0667-.06667 1.6533582 1.6533582 0 0 1 .0667-.06 1.6533582 1.6533582 0 0 1 .08-.06667 1.6533582 1.6533582 0 0 1 .0467-.04 1.6533582 1.6533582 0 0 1 .08-.05333 1.6533582 1.6533582 0 0 1 .06-.04 1.6533582 1.6533582 0 0 1 .0733-.04 1.6533582 1.6533582 0 0 1 .0667-.03333 1.6533582 1.6533582 0 0 1 .0733-.03333 1.6533582 1.6533582 0 0 1 .0867-.03333 1.6533582 1.6533582 0 0 1 .0667-.02 1.6533582 1.6533582 0 0 1 .0867-.02667 1.6533582 1.6533582 0 0 1 .0867-.02 1.6533582 1.6533582 0 0 1 .0733-.01333 1.6533582 1.6533582 0 0 1 .10666-.01333 1.6533582 1.6533582 0 0 1 .0467 0 1.6533582 1.6533582 0 0 1 .13334 0 1.6533582 1.6533582 0 0 1 .0333 0 1.6533582 1.6533582 0 0 1 .11334.01333 1.6533582 1.6533582 0 0 1 .0667 0 1.6533582 1.6533582 0 0 1 .0733.02 1.6533582 1.6533582 0 0 1 .0867.02 1.6533582 1.6533582 0 0 1 .0867.02667 1.6533582 1.6533582 0 0 1 .0667.02 1.6533582 1.6533582 0 0 1 .0733.03333 1.6533582 1.6533582 0 0 1 .0867.04 1.6533582 1.6533582 0 0 1 .007 0 1.6533582 1.6533582 0 0 1 .0267.01333 1.6533582 1.6533582 0 0 1 .10667.06667 1.6533582 1.6533582 0 0 1 .0533.02667 1.6533582 1.6533582 0 0 1 .08.05334 1.6533582 1.6533582 0 0 1 .0667.06667 1.6533582 1.6533582 0 0 1 .0467.03333 1.6533582 1.6533582 0 0 1 .0733.07333 1.6533582 1.6533582 0 0 1 .0467.05334 1.6533582 1.6533582 0 0 1 .04.04667 1.6533582 1.6533582 0 0 1 .0667.09333 1.6533582 1.6533582 0 0 1 .02.03333 1.6533582 1.6533582 0 0 1 .0667.113335 13.000195 13.000195 0 0 1 .40001.806678 13.000195 13.000195 0 0 1 .26667.586676 13.000195 13.000195 0 0 1 .23334.626676 13.000195 13.000195 0 0 1 .2.586675 13.000195 13.000195 0 0 1 .16667.646677 13.000195 13.000195 0 0 1 .14.626676 13.000195 13.000195 0 0 1 .10667.653343 13.000195 13.000195 0 0 1 .10667.880013 18.153606 18.153606 0 0 1 1.28002.793345 18.153606 18.153606 0 0 1 .73334.526675 18.153606 18.153606 0 0 1 .73335.553342 18.153606 18.153606 0 0 1 .66667.586675 18.153606 18.153606 0 0 1 .67335.633343 18.153606 18.153606 0 0 1 .61334.653343 18.153606 18.153606 0 0 1 .60001.686677 18.153606 18.153606 0 0 1 .54667.720011 18.153606 18.153606 0 0 1 .53334.746678 18.153606 18.153606 0 0 1 .46668.760011 18.153606 18.153606 0 0 1 .45334.800012 18.153606 18.153606 0 0 1 .39334.813346 18.153606 18.153606 0 0 1 .36.820012 18.153606 18.153606 0 0 1 .32001.873347 18.153606 18.153606 0 0 1 .28.840012 18.153606 18.153606 0 0 1 .22667.900014 18.153606 18.153606 0 0 1 .20001.866679 18.153606 18.153606 0 0 1 .13333.900014 18.153606 18.153606 0 0 1 .10667.90668 18.153606 18.153606 0 0 1 .0733 1.500023v11.720176a18.100272 18.100272 0 0 1-.0733 1.580023 18.100272 18.100272 0 0 1-.11334.880014 18.100272 18.100272 0 0 1-.13333.900013 18.100272 18.100272 0 0 1-.2.90668 18.100272 18.100272 0 0 1-.22001.84668 18.100272 18.100272 0 0 1-.29334.893347 18.100272 18.100272 0 0 1-.3.820012 18.100272 18.100272 0 0 1-.38001.840012 18.100272 18.100272 0 0 1-.38667.800012 18.100272 18.100272 0 0 1-.45334.786679 18.100272 18.100272 0 0 1-.46667.773345 18.100272 18.100272 0 0 1-.52001.726677 18.100272 18.100272 0 0 1-.56001.733345 18.100272 18.100272 0 0 1-.60001.68001 18.100272 18.100272 0 0 1-.60001.646676 18.100272 18.100272 0 0 1-.69334.64001 18.100272 18.100272 0 0 1-.65334.580009 18.100272 18.100272 0 0 1-.71335.540008 18.100272 18.100272 0 0 1-.75334.540008 18.100272 18.100272 0 0 1-.75335.466674 18.100272 18.100272 0 0 1-.80001.45334 18.100272 18.100272 0 0 1-.79334.380005 18.100272 18.100272 0 0 1-.84668.386673 18.100272 18.100272 0 0 1-.82002.300004 18.100272 18.100272 0 0 1-.88668.293338 18.100272 18.100272 0 0 1-.88001.220003 18.100272 18.100272 0 0 1-.86668.200004 18.100272 18.100272 0 0 1-.93335.133338 18.100272 18.100272 0 0 1-.86001.11333 18.100272 18.100272 0 0 1-1.58002.0733h-1.40076a18.093605 18.093605 0 0 1-1.62669-.08 18.093605 18.093605 0 0 1-.89335-.11333 18.093605 18.093605 0 0 1-.88668-.133338 18.093605 18.093605 0 0 1-.90668-.213337 18.093605 18.093605 0 0 1-.84668-.213336 18.093605 18.093605 0 0 1-.87335-.300005 18.093605 18.093605 0 0 1-.84001-.306671 18.093605 18.093605 0 0 1-.82668-.373339 18.093605 18.093605 0 0 1-.80668-.393339 18.093605 18.093605 0 0 1-.78668-.45334 18.093605 18.093605 0 0 1-.77334-.473341 18.093605 18.093605 0 0 1-.71335-.526674 18.093605 18.093605 0 0 1-.73334-.553342 18.093605 18.093605 0 0 1-.68001-.600009 18.093605 18.093605 0 0 1-.65335-.613343 18.093605 18.093605 0 0 1-.62667-.68001 18.093605 18.093605 0 0 1-.58668-.666677 18.093605 18.093605 0 0 1-.54001-.726677 18.093605 18.093605 0 0 1-.53334-.733344 18.093605 18.093605 0 0 1-.45334-.766679 18.093605 18.093605 0 0 1-.18667-.320004v6.533431a6.8801033 6.8801033 0 0 1-.0267.486674 6.8801033 6.8801033 0 0 1-.0267.333338 6.8801033 6.8801033 0 0 1-.0533.360006 6.8801033 6.8801033 0 0 1 0 .01333 6.8801033 6.8801033 0 0 1-.06.280004 6.8801033 6.8801033 0 0 1-.10667.420007 6.8801033 6.8801033 0 0 1-.0667.22667 6.8801033 6.8801033 0 0 1-.16.433335 6.8801033 6.8801033 0 0 1-.08.20667 6.8801033 6.8801033 0 0 1-.22.44668 6.8801033 6.8801033 0 0 1-.12.22667 6.8801033 6.8801033 0 0 1-.16667.26667 6.8801033 6.8801033 0 0 1-.21334.31334 6.8801033 6.8801033 0 0 1-.18667.24667 6.8801033 6.8801033 0 0 1-.22667.28 6.8801033 6.8801033 0 0 1-.23333.25334 6.8801033 6.8801033 0 0 1-.24668.24 6.8801033 6.8801033 0 0 1-.26667.22667 6.8801033 6.8801033 0 0 1-.25333.20667 6.8801033 6.8801033 0 0 1-.293341.21334 6.8801033 6.8801033 0 0 1-.273338.18 6.8801033 6.8801033 0 0 1-.306671.17334 6.8801033 6.8801033 0 0 1-.300005.16 6.8801033 6.8801033 0 0 1-.313338.13333 6.8801033 6.8801033 0 0 1-.333338.13334 6.8801033 6.8801033 0 0 1-.313338.10667 6.8801033 6.8801033 0 0 1-.326672.0933 6.8801033 6.8801033 0 0 1-.346671.08 6.8801033 6.8801033 0 0 1-.333339.06 6.8801033 6.8801033 0 0 1-.346672.04 6.8801033 6.8801033 0 0 1-.326671.0267 6.8801033 6.8801033 0 0 1-.353339 0 6.8801033 6.8801033 0 0 1-.346672 0 6.8801033 6.8801033 0 0 1-.333338-.0267 6.8801033 6.8801033 0 0 1-.340005-.04 6.8801033 6.8801033 0 0 1-.346672-.0667 6.8801033 6.8801033 0 0 1-.333338-.0733 6.8801033 6.8801033 0 0 1-.333339-.0933 6.8801033 6.8801033 0 0 1-.313338-.10667 6.8801033 6.8801033 0 0 1-.333338-.13334 6.8801033 6.8801033 0 0 1-.306671-.13333 6.8801033 6.8801033 0 0 1-.306672-.16 6.8801033 6.8801033 0 0 1-.306671-.17334 6.8801033 6.8801033 0 0 1-.266671-.18 6.8801033 6.8801033 0 0 1-.300004-.21334 6.8801033 6.8801033 0 0 1-.253337-.20667 6.8801033 6.8801033 0 0 1-.266671-.22667 6.8801033 6.8801033 0 0 1-.240004-.24 6.8801033 6.8801033 0 0 1-.233336-.25334 6.8801033 6.8801033 0 0 1-.233337-.28 6.8801033 6.8801033 0 0 1-.18667-.24667 6.8801033 6.8801033 0 0 1-.213336-.31334 6.8801033 6.8801033 0 0 1-.120002-.2 6.8801033 6.8801033 0 0 1-.306671-.58001 6.8801033 6.8801033 0 0 1-.02-.04 6.8801033 6.8801033 0 0 1-.22667-.560011 6.8801033 6.8801033 0 0 1-.03333-.100002 6.8801033 6.8801033 0 0 1-.146669-.486674 6.8801033 6.8801033 0 0 1-.05333-.213336 6.8801033 6.8801033 0 0 1-.07334-.400006 6.8801033 6.8801033 0 0 1-.04667-.286671 6.8801033 6.8801033 0 0 1-.02-.22667 6.8801033 6.8801033 0 0 1-.01333-.133336 6.8801033 6.8801033 0 0 1 0-.01333 6.8801033 6.8801033 0 0 1-.02-.45334v-6.526765a18.093605 18.093605 0 0 1-.173336.306671 18.093605 18.093605 0 0 1-.466674.773345 18.093605 18.093605 0 0 1-.513341.713344 18.093605 18.093605 0 0 1-.560008.753345 18.093605 18.093605 0 0 1-.573342.646676 18.093605 18.093605 0 0 1-.633343.693344 18.093605 18.093605 0 0 1-.666677.613343 18.093605 18.093605 0 0 1-.666677.600009 18.093605 18.093605 0 0 1-.733344.553341 18.093605 18.093605 0 0 1-.720011.526675 18.093605 18.093605 0 0 1-.760011.466674 18.093605 18.093605 0 0 1-.800012.460006 18.093605 18.093605 0 0 1-.800012.386673 18.093605 18.093605 0 0 1-.826679.373339 18.093605 18.093605 0 0 1-.860013.313338 18.093605 18.093605 0 0 1-.853346.293338 18.093605 18.093605 0 0 1-.84668.213336 18.093605 18.093605 0 0 1-.913347.213337 18.093605 18.093605 0 0 1-.866679.133337 18.093605 18.093605 0 0 1-.913348.11333 18.093605 18.093605 0 0 1-1.633357.08h-1.400021a18.100272 18.100272 0 0 1-1.580024-.08 18.100272 18.100272 0 0 1-.86668-.10666 18.100272 18.100272 0 0 1-.933347-.13334 18.100272 18.100272 0 0 1-.853346-.200004 18.100272 18.100272 0 0 1-.88668-.220003 18.100272 18.100272 0 0 1-.880013-.293338 18.100272 18.100272 0 0 1-.820013-.300004 18.100272 18.100272 0 0 1-.853346-.386673 18.100272 18.100272 0 0 1-.800012-.380005 18.100272 18.100272 0 0 1-.793345-.460007 18.100272 18.100272 0 0 1-.753345-.460007 18.100272 18.100272 0 0 1-.753344-.533341 18.100272 18.100272 0 0 1-.706678-.546675 18.100272 18.100272 0 0 1-.66001-.580009 18.100272 18.100272 0 0 1-.686677-.64001 18.100272 18.100272 0 0 1-.600009-.646676 18.100272 18.100272 0 0 1-.600009-.68001 18.100272 18.100272 0 0 1-.560008-.733345 18.100272 18.100272 0 0 1-.520008-.726677 18.100272 18.100272 0 0 1-.47334-.773345 18.100272 18.100272 0 0 1-.45334-.786679 18.100272 18.100272 0 0 1-.386673-.800012 18.100272 18.100272 0 0 1-.373339-.840012 18.100272 18.100272 0 0 1-.300004-.826679 18.100272 18.100272 0 0 1-.300005-.88668 18.100272 18.100272 0 0 1-.213336-.84668 18.100272 18.100272 0 0 1-.200003-.90668 18.100272 18.100272 0 0 1-.133336-.900013 18.100272 18.100272 0 0 1-.113335-.880014 18.100272 18.100272 0 0 1-.08-1.58669V70.458031a18.153606 18.153606 0 0 1 .08-1.513356 18.153606 18.153606 0 0 1 .106668-.900014 18.153606 18.153606 0 0 1 .133336-.880013 18.153606 18.153606 0 0 1 .200003-.90668 18.153606 18.153606 0 0 1 .233337-.86668 18.153606 18.153606 0 0 1 .280004-.860013 18.153606 18.153606 0 0 1 .313338-.853346 18.153606 18.153606 0 0 1 .373339-.840013 18.153606 18.153606 0 0 1 .386672-.793345 18.153606 18.153606 0 0 1 .466674-.820012 18.153606 18.153606 0 0 1 .460007-.740011 18.153606 18.153606 0 0 1 .540008-.760012 18.153606 18.153606 0 0 1 .533341-.706677 18.153606 18.153606 0 0 1 .606676-.686677 18.153606 18.153606 0 0 1 .620009-.666677 18.153606 18.153606 0 0 1 .646677-.600009 18.153606 18.153606 0 0 1 .706677-.620009 18.153606 18.153606 0 0 1 .693344-.533341 18.153606 18.153606 0 0 1 .760011-.533342 18.153606 18.153606 0 0 1 1.280019-.793345 13.000195 13.000195 0 0 1 .106669-.88668 13.000195 13.000195 0 0 1 .100001-.626676 13.000195 13.000195 0 0 1 .140002-.64001 13.000195 13.000195 0 0 1 .166669-.620009 13.000195 13.000195 0 0 1 .200003-.626676 13.000195 13.000195 0 0 1 .226671-.606676 13.000195 13.000195 0 0 1 .26667-.593342 13.000195 13.000195 0 0 1 .386673-.786679 1.6533582 1.6533582 0 0 1 .06667-.120001 1.6533582 1.6533582 0 0 1 .02667-.03333 1.6533582 1.6533582 0 0 1 .06667-.08667 1.6533582 1.6533582 0 0 1 .04-.04667 1.6533582 1.6533582 0 0 1 .04667-.05333 1.6533582 1.6533582 0 0 1 .06667-.07333 1.6533582 1.6533582 0 0 1 .04667-.04 1.6533582 1.6533582 0 0 1 .07334-.06 1.6533582 1.6533582 0 0 1 .08-.05333 1.6533582 1.6533582 0 0 1 .05333-.03333 1.6533582 1.6533582 0 0 1 .106668-.06 1.6533582 1.6533582 0 0 1 .04-.02 1.6533582 1.6533582 0 0 1 .08667-.04 1.6533582 1.6533582 0 0 1 .07333-.03333 1.6533582 1.6533582 0 0 1 .06667-.02 1.6533582 1.6533582 0 0 1 .08667-.02667 1.6533582 1.6533582 0 0 1 .08667-.02 1.6533582 1.6533582 0 0 1 .07333-.01333 1.6533582 1.6533582 0 0 1 .06667-.0067 1.6533582 1.6533582 0 0 1 .113335-.01333 1.6533582 1.6533582 0 0 1 .04 0 1.6533582 1.6533582 0 0 1 .126669 0 1.6533582 1.6533582 0 0 1 .04667 0 1.6533582 1.6533582 0 0 1 .106669.02 1.6533582 1.6533582 0 0 1 .06667.01333 1.6533582 1.6533582 0 0 1 .09333.02 1.6533582 1.6533582 0 0 1 .08.02667 1.6533582 1.6533582 0 0 1 .07334.02 1.6533582 1.6533582 0 0 1 .08667.03333 1.6533582 1.6533582 0 0 1 .06667.03333 1.6533582 1.6533582 0 0 1 .06667.03333 1.6533582 1.6533582 0 0 1 .08.04 1.6533582 1.6533582 0 0 1 .06.04 1.6533582 1.6533582 0 0 1 .08.05333 1.6533582 1.6533582 0 0 1 .04667.03333 1.6533582 1.6533582 0 0 1 .08.06667 1.6533582 1.6533582 0 0 1 .06667.06667 1.6533582 1.6533582 0 0 1 .06667.06667v-.03333l3.140047 3.486719a18.153606 18.153606 0 0 1 .06667 0 13.000195 13.000195 0 0 1-.0067-1.033349 13.000195 13.000195 0 0 1 .04-.686677 13.000195 13.000195 0 0 1 .06-.620009 13.000195 13.000195 0 0 1 .100001-.646677 13.000195 13.000195 0 0 1 .133336-.633343 13.000195 13.000195 0 0 1 .160002-.626676 13.000195 13.000195 0 0 1 .200003-.626676 13.000195 13.000195 0 0 1 .22667-.613342 13.000195 13.000195 0 0 1 .240004-.580009 13.000195 13.000195 0 0 1 .466673-.946681c.566676-.900014 1.426688-1.086683 2.133366-.553342.100001.07334.200003.16667.293337.266671l11.866845 12.933528v-.01333a12.840193 12.840193 0 0 0 .613343.593342 12.840193 12.840193 0 0 0 .47334.426673 12.840193 12.840193 0 0 0 .506675.400006 12.840193 12.840193 0 0 0 .520007.380006 12.840193 12.840193 0 0 0 .533342.333338 12.840193 12.840193 0 0 0 .560008.333339 12.840193 12.840193 0 0 0 .566675.286671 12.840193 12.840193 0 0 0 .580009.26667 12.840193 12.840193 0 0 0 .613343.240004 12.840193 12.840193 0 0 0 .593342.200003 12.840193 12.840193 0 0 0 .633343.173336 12.840193 12.840193 0 0 0 .606675.146669 12.840193 12.840193 0 0 0 .646677.106668 12.840193 12.840193 0 0 0 .626676.08667 12.840193 12.840193 0 0 0 .64001.04 12.840193 12.840193 0 0 0 .640009.02 12.840193 12.840193 0 0 0 .646677-.02 12.840193 12.840193 0 0 0 .640009-.04 12.840193 12.840193 0 0 0 .626676-.08667 12.840193 12.840193 0 0 0 .646677-.106668 12.840193 12.840193 0 0 0 .600009-.146669 12.840193 12.840193 0 0 0 .640009-.166669 12.840193 12.840193 0 0 0 .593344-.20667 12.840193 12.840193 0 0 0 .61334-.240004 12.840193 12.840193 0 0 0 .58001-.26667 12.840193 12.840193 0 0 0 .56668-.286671 12.840193 12.840193 0 0 0 .56-.333339 12.840193 12.840193 0 0 0 .53335-.333338 12.840193 12.840193 0 0 0 .52-.386672 12.840193 12.840193 0 0 0 .50001-.39334 12.840193 12.840193 0 0 0 .48001-.426673 12.840193 12.840193 0 0 0 .61334-.593342v.0067l11.86691-12.933548a1.9600294 1.9600294 0 0 1 .29334-.26667 1.4133546 1.4133546 0 0 1 .71334-.293338zm.13333 1.120016c-5.42008 4.946741-9.46014 11.426839-15.50023 15.720236-6.213431 3.71339-14.733559 1.293353-18.820287-4.466733-3.413385-3.73339-6.713434-7.800117-10.420156-11.1135-2.160033 1.720025-1.09335 4.966741-2.213367 7.186774-1.386687 1.373354-2.800042-1.206685-3.506719-2.106698-.560009-1.133351-2.113365-1.886695-2.573372-.320005-1.086683 1.853361-.266671 4.933407-2.773375 5.713419-6.126759 3.933393-8.513461 11.713509-7.660115 18.613613-.200003 6.546765-.440007 14.106878 4.653403 19.060286 7.373444 7.866784 21.933663 6.986774 27.827084-2.133365.386673-.933348.966682-2.006697 1.740027-2.800042v-2.800042a6.9867716 6.9867716 0 0 1 0-.04l-2.333369-.393339a.34667187.34667187 0 0 1-.280004-.386673 9.6401448 9.6401448 0 0 1 9.453475-7.960119 9.6401448 9.6401448 0 0 1 9.533475 7.960119.34667187.34667187 0 0 1-.28667.386673l-2.33337.400006a6.8667698 6.8667698 0 0 1 0 .0067v2.533371l.0467.0067c3.89339 10.22682 18.18694 13.780205 26.78041 7.520113a17.96027 17.96027 0 0 0 7.37344-16.900254c.0933-6.88677.86668-14.873557-4.3534-20.280305-1.44002-1.800027-4.02673-2.66004-5.08007-4.646736-.36668-1.666692-.27334-3.920059-1.9067-4.90674-2.0667.860013-2.54004 3.706722-4.85341 4.22673-1.33335-2.533372-.36667-5.98009-2.51337-8.086788zm-46.220696 13.48687a13.3002 13.3002 0 0 1 13.293533 13.300199v8.00012a13.306866 13.306866 0 0 1-1.633358 6.086759 181.35606 181.35606 0 0 0-5.433414-2.1867 6.3334284 6.3334284 0 0 0 .233336-.24667 6.3334284 6.3334284 0 0 0 .106669-.120002 6.3334284 6.3334284 0 0 0 .320004-.386673 6.3334284 6.3334284 0 0 0 .08-.113335 6.3334284 6.3334284 0 0 0 .26667-.400006 6.3334284 6.3334284 0 0 0 .08667-.133335 6.3334284 6.3334284 0 0 0 .213337-.41334 6.3334284 6.3334284 0 0 0 .07333-.146668 6.3334284 6.3334284 0 0 0 .160003-.400006 6.3334284 6.3334284 0 0 0 .08-.20667 6.3334284 6.3334284 0 0 0 .113335-.386673 6.3334284 6.3334284 0 0 0 .06-.220003 6.3334284 6.3334284 0 0 0 .06667-.360005 6.3334284 6.3334284 0 0 0 .04667-.286671 6.3334284 6.3334284 0 0 0 .04667-.546675v-6.88677a6.3334284 6.3334284 0 0 0-.02667-.533342 6.3334284 6.3334284 0 0 0-.03333-.313338 6.3334284 6.3334284 0 0 0-.04667-.313338 6.3334284 6.3334284 0 0 0-.06667-.313338 6.3334284 6.3334284 0 0 0-.08-.300004 6.3334284 6.3334284 0 0 0-.106668-.313338 6.3334284 6.3334284 0 0 0-.100002-.280004 6.3334284 6.3334284 0 0 0-.133335-.313339 6.3334284 6.3334284 0 0 0-.133335-.26667 6.3334284 6.3334284 0 0 0-.16667-.280004 6.3334284 6.3334284 0 0 0-.160002-.266671 6.3334284 6.3334284 0 0 0-.180003-.240004 6.3334284 6.3334284 0 0 0-.200003-.260004 6.3334284 6.3334284 0 0 0-.200003-.22667 6.3334284 6.3334284 0 0 0-.220003-.240003 6.3334284 6.3334284 0 0 0-.233337-.213337 6.3334284 6.3334284 0 0 0-.233337-.20667 6.3334284 6.3334284 0 0 0-.253337-.193336 6.3334284 6.3334284 0 0 0-.260004-.186669 6.3334284 6.3334284 0 0 0-.26667-.166669 6.3334284 6.3334284 0 0 0-.266671-.153336 6.3334284 6.3334284 0 0 0-.286671-.133335 6.3334284 6.3334284 0 0 0-.306671-.133336 6.3334284 6.3334284 0 0 0-.286671-.113335 6.3334284 6.3334284 0 0 0-.286671-.09334 6.3334284 6.3334284 0 0 0-.326672-.08 6.3334284 6.3334284 0 0 0-.306671-.06667 6.3334284 6.3334284 0 0 0-.300005-.05333 6.3334284 6.3334284 0 0 0-.320004-.04 6.3334284 6.3334284 0 0 0-.533342-.02667 6.4000961 6.4000961 0 0 0-.400006.02667 6.4000961 6.4000961 0 0 0-.333338.03333 6.4000961 6.4000961 0 0 0-.286671.04667 6.4000961 6.4000961 0 0 0-.340005.06667 6.4000961 6.4000961 0 0 0-.300005.08 6.4000961 6.4000961 0 0 0-.313338.09333 6.4000961 6.4000961 0 0 0-.306671.120001 6.4000961 6.4000961 0 0 0-.366672.153336 4.0000601 4.0000601 0 0 1 .266671.266671 4.0000601 4.0000601 0 0 1 .146668.160002 4.0000601 4.0000601 0 0 1 .113335.133336 4.0000601 4.0000601 0 0 1 .120002.166669 4.0000601 4.0000601 0 0 1 .113335.173336 4.0000601 4.0000601 0 0 1 .08667.153335 4.0000601 4.0000601 0 0 1 .106669.18667 4.0000601 4.0000601 0 0 1 .07333.173336 4.0000601 4.0000601 0 0 1 .08667.200003 4.0000601 4.0000601 0 0 1 .05333.166669 4.0000601 4.0000601 0 0 1 .06667.20667 4.0000601 4.0000601 0 0 1 .04667.200003 4.0000601 4.0000601 0 0 1 .04.193336 4.0000601 4.0000601 0 0 1 .02667.24667 4.0000601 4.0000601 0 0 1 .01333.140002 4.0000601 4.0000601 0 0 1 0 .273338 4.0000601 4.0000601 0 0 1 0 .133335 4.0000601 4.0000601 0 0 1-.01333.200003 4.0000601 4.0000601 0 0 1-.02.20667 4.0000601 4.0000601 0 0 1-.02667.160002 4.0000601 4.0000601 0 0 1-.04667.22667 4.0000601 4.0000601 0 0 1-.05333.18667 4.0000601 4.0000601 0 0 1-.06667.200003 4.0000601 4.0000601 0 0 1-.08.200003 4.0000601 4.0000601 0 0 1-.06667.160002 4.0000601 4.0000601 0 0 1-.106668.200003 4.0000601 4.0000601 0 0 1-.08667.160003 4.0000601 4.0000601 0 0 1-.133335.200003 4.0000601 4.0000601 0 0 1-.08.120001 4.0000601 4.0000601 0 0 1-.173336.213337 4.0000601 4.0000601 0 0 1-.08667.100001 4.0000601 4.0000601 0 0 1-.133336.133336 4.0000601 4.0000601 0 0 1-.160002.160002 4.0000601 4.0000601 0 0 1-.133335.100002 4.0000601 4.0000601 0 0 1-.16667.140002 4.0000601 4.0000601 0 0 1-.180002.120002 4.0000601 4.0000601 0 0 1-.160003.100001 4.0000601 4.0000601 0 0 1-.153335.08 4.0000601 4.0000601 0 0 1-.200003.106669 4.0000601 4.0000601 0 0 1-.22667.08667 4.0000601 4.0000601 0 0 1-.133336.05333 4.0000601 4.0000601 0 0 1-.253337.07333 4.0000601 4.0000601 0 0 1-.133335.04 4.0000601 4.0000601 0 0 1-.22667.04 4.0000601 4.0000601 0 0 1-.173336.03333 4.0000601 4.0000601 0 0 1-.266671.02 4.0000601 4.0000601 0 0 1-.120002.01333 4.0000601 4.0000601 0 0 1-.233336 0 4.0000601 4.0000601 0 0 1-.18667 0 4.0000601 4.0000601 0 0 1-.20667-.03333 4.0000601 4.0000601 0 0 1-.173336-.02 4.0000601 4.0000601 0 0 1-.373339-.08v5.726752a6.3334284 6.3334284 0 0 0 .02667.320005 6.3334284 6.3334284 0 0 0 .04667.41334 100.53484 100.53484 0 0 0-8.906801-2.213367v-6.053424a13.246866 13.246866 0 0 1 13.306867-13.3002zm47.707386 0a13.3002 13.3002 0 0 1 13.30687 13.300199v6.060091c-2.83338.566676-5.80009 1.30002-8.9068 2.220034a6.3334284 6.3334284 0 0 0 .0467-.440007 6.3334284 6.3334284 0 0 0 .0267-.306671v-6.88677a6.3334284 6.3334284 0 0 0-.0267-.540008 6.3334284 6.3334284 0 0 0-.04-.306672 6.3334284 6.3334284 0 0 0-.0467-.313338 6.3334284 6.3334284 0 0 0-.0667-.306671 6.3334284 6.3334284 0 0 0-.08-.320005 6.3334284 6.3334284 0 0 0-.0933-.273337 6.3334284 6.3334284 0 0 0-.12-.320005 6.3334284 6.3334284 0 0 0-.12667-.286671 6.3334284 6.3334284 0 0 0-.13333-.280004 6.3334284 6.3334284 0 0 0-.16-.266671 6.3334284 6.3334284 0 0 0-.16667-.280004 6.3334284 6.3334284 0 0 0-.18667-.260004 6.3334284 6.3334284 0 0 0-.18667-.240004 6.3334284 6.3334284 0 0 0-.21334-.24667 6.3334284 6.3334284 0 0 0-.21334-.233337 6.3334284 6.3334284 0 0 0-.24-.220003 6.3334284 6.3334284 0 0 0-.22-.200003 6.3334284 6.3334284 0 0 0-.26667-.200003 6.3334284 6.3334284 0 0 0-.24667-.173336 6.3334284 6.3334284 0 0 0-.28001-.173336 6.3334284 6.3334284 0 0 0-.26667-.153336 6.3334284 6.3334284 0 0 0-.28-.133335 6.3334284 6.3334284 0 0 0-.30667-.133335 6.3334284 6.3334284 0 0 0-.26667-.106669 6.3334284 6.3334284 0 0 0-.32001-.100001 6.3334284 6.3334284 0 0 0-.30667-.08 6.3334284 6.3334284 0 0 0-.31334-.06667 6.3334284 6.3334284 0 0 0-.31334-.04667 6.3334284 6.3334284 0 0 0-.3-.04 6.3334284 6.3334284 0 0 0-.54001-.02667 6.4000961 6.4000961 0 0 0-.38001.02667 6.4000961 6.4000961 0 0 0-.3.02667 6.4000961 6.4000961 0 0 0-.34667.05333 6.4000961 6.4000961 0 0 0-.29334.05333 6.4000961 6.4000961 0 0 0-.30667.08 6.4000961 6.4000961 0 0 0-.31334.09333 6.4000961 6.4000961 0 0 0-.28667.106669 6.4000961 6.4000961 0 0 0-.30001.120001 6.4000961 6.4000961 0 0 0-.3.153336 6.4000961 6.4000961 0 0 0-.32001.160003 4.0000601 4.0000601 0 0 1 .26667.300004 4.0000601 4.0000601 0 0 1 .22001.333338 4.0000601 4.0000601 0 0 1 .2.346672 4.0000601 4.0000601 0 0 1 .16.366672 4.0000601 4.0000601 0 0 1 .12.380006 4.0000601 4.0000601 0 0 1 .0333.166669 4.0000601 4.0000601 0 0 1 .0467.22667 4.0000601 4.0000601 0 0 1 .0333.280005 4.0000601 4.0000601 0 0 1 .0133.113335 4.0000601 4.0000601 0 0 1 0 .0067 4.0000601 4.0000601 0 0 1 0 .400006 4.0000601 4.0000601 0 0 1-.0333.400006 4.0000601 4.0000601 0 0 1-.0267.146669 4.0000601 4.0000601 0 0 1-.0467.240004 4.0000601 4.0000601 0 0 1-.11333.380006 4.0000601 4.0000601 0 0 1 0 .0067 4.0000601 4.0000601 0 0 1-.15334.366672 4.0000601 4.0000601 0 0 1-.18667.353339 4.0000601 4.0000601 0 0 1-.22.333338 4.0000601 4.0000601 0 0 1-.26.306672 4.0000601 4.0000601 0 0 1-.28001.280004 4.0000601 4.0000601 0 0 1-.30667.253337 4.0000601 4.0000601 0 0 1-.33334.220003 4.0000601 4.0000601 0 0 1-.007 0 4.0000601 4.0000601 0 0 1-.35334.180003 4.0000601 4.0000601 0 0 1-.36667.153336 4.0000601 4.0000601 0 0 1-.38667.106668 4.0000601 4.0000601 0 0 1-.21334.04 4.0000601 4.0000601 0 0 1-.58001.06667 4.0000601 4.0000601 0 0 1-.4 0v5.586751a6.3334284 6.3334284 0 0 0 .0467.560008 6.3334284 6.3334284 0 0 0 .0467.280004 6.3334284 6.3334284 0 0 0 .0667.360006 6.3334284 6.3334284 0 0 0 .0667.213336 6.3334284 6.3334284 0 0 0 .10667.400006 6.3334284 6.3334284 0 0 0 .0733.193337 6.3334284 6.3334284 0 0 0 .16667.400006 6.3334284 6.3334284 0 0 0 .0667.146668 6.3334284 6.3334284 0 0 0 .22667.420007 6.3334284 6.3334284 0 0 0 .0733.120002 6.3334284 6.3334284 0 0 0 .27333.420006 6.3334284 6.3334284 0 0 0 .0667.08 6.3334284 6.3334284 0 0 0 .34668.420006 6.3334284 6.3334284 0 0 0 .0533.05333 6.3334284 6.3334284 0 0 0 .28667.306671 166.00249 166.00249 0 0 0-5.43342 2.200033 13.306866 13.306866 0 0 1-1.64669-6.106759v-8.00012a13.240199 13.240199 0 0 1 13.30053-13.300249ZM96.233113 78.124812c-.253337 0-.513341 0-.766678.02a9.0001351 9.0001351 0 0 0-8.160123 6.946771l8.673464 1.32002 4.586734-.720011 4.02006-.920014c-.86668-3.766723-4.5334-6.553432-8.353457-6.646766zm5.733417 7.893452c-.56001-.03333-.06.946681-.16 1.426688.0667 3.020046.16667 6.080092-.16 9.080137-.95335 3.693391-5.946759 5.573421-9.000138 3.180048-2.2467-1.566691-2.833376-4.560069-2.47337-7.120107-.0067-2.133366-.133336-4.273398.09333-6.400096-1.073349-.573342-.400006.706677-.573341 1.293352.06667 4.060061-.326672 8.173456.300004 12.193517 1.240019 3.986727 6.84677 5.700087 10.00015 2.866707 2.066695-1.66669 2.660045-4.566733 2.333365-7.113438-.0267-3.106713.08-6.220093-.06-9.326806a.94668088.94668088 0 0 0-.30667-.08zm-.96001.306672a2.6600399 2.6600399 0 0 0-.44001.08667 10.45349 10.45349 0 0 1-.746677.240003l-.200003.05333a8.6667968 8.6667968 0 0 1-.566675.133336l-.186669.04a11.206835 11.206835 0 0 1-1.800027.200003l-.233337.01333a22.200333 22.200333 0 0 1-.986682 0h-.106668a17.333594 17.333594 0 0 1-1.140017-.08667c-.04 0-.08 0-.113335-.01333a39.720596 39.720596 0 0 1-1.860028-.253337l-.480007-.06667-1.213352-.220003a5.2934128 5.0267421 0 0 0-.233337 1.486689v7.246776a5.3534137 5.0867431 0 0 0 5.30008 5.033407 5.2934128 5.0267421 0 0 0 5.293414-5.033407V87.92496a5.3000796 5.0334089 0 0 0-.28667-1.620025zm.26667 9.11347a5.2934128 5.2934128 0 0 1-.0333.233337 5.2934128 5.2934128 0 0 0 .0267-.233337zm-.0867.546675a5.2934128 5.2934128 0 0 1-.0467.200003 5.2934128 5.2934128 0 0 0 .0467-.200003zm-.13334.500007a5.2934128 5.2934128 0 0 1-.0667.200003 5.2934128 5.2934128 0 0 0 .0667-.200003zm-.18667.526675a5.2934128 5.2934128 0 0 1-.0667.146669 5.2934128 5.2934128 0 0 0 .0667-.146669zm-.23333.47334a5.2934128 5.2934128 0 0 1-.08.133336 5.2934128 5.2934128 0 0 0 .08-.133336zm-.29334.466674a5.2934128 5.2934128 0 0 1-.0667.09333 5.2934128 5.2934128 0 0 0 .0667-.09333zm-.33334.426673a5.2934128 5.2934128 0 0 1-.06667.06667 5.2934128 5.2934128 0 0 0 .06667-.06667zm-.353338.373339a5.2934128 5.2934128 0 0 1-.04.04 5.2934128 5.2934128 0 0 0 .04-.04zM79.212857 116.21872a.88001321.88001321 0 0 1 .09334 0h12.153516a.93334735.93334735 0 0 1 .933347 1.20668c-.933347 2.80004-3.820057 4.72674-7.040106 4.74674a7.233442 7.233442 0 0 1-6.980104-4.74674.88001321.88001321 0 0 1 .840012-1.21335zm21.353653 0a.96001442.96001442 0 0 1 .0333 0h12.16018a.93334735.93334735 0 0 1 .93335 1.19335c-.93335 2.78671-3.81339 4.7334-7.06677 4.7334a7.233442 7.233442 0 0 1-6.95344-4.72007.96001442.96001442 0 0 1 .89335-1.20002zm-10.666826 10.32015a.93334735.93334735 0 0 1 .03333 0H102.0932a.93334735.93334735 0 0 1 .92668 1.21335c-.90002 2.82005-3.786726 4.74008-7.040108 4.74008a7.233442 7.233442 0 0 1-6.973438-4.74008.93334735.93334735 0 0 1 .900013-1.21335zm-44.233997 11.02684a6.2067599 6.2067599 0 0 0-4.400066 1.99336v-.0133a6.2934278 6.2934278 0 0 0 .273337 8.83347l7.253442 6.8001a6.2534272 6.2534272 0 0 0 8.560129-9.11347l-7.253442-6.79343a6.2067599 6.2067599 0 0 0-4.4334-1.70669zm100.768183 0a6.2067599 6.2067599 0 0 0-4.52007 1.70669l-7.26011 6.79343a6.2563371 6.2563371 0 0 0 8.5668 9.12014l7.24677-6.79344a6.2934278 6.2934278 0 0 0 .28001-8.83346 6.2067599 6.2067599 0 0 0-4.3134-1.99336z"/></svg>