<?xml version="1.0" encoding="UTF-8" standalone="no"?>
<!-- Created with Inkscape (http://www.inkscape.org/) -->

<svg
   width="24"
   height="24"
   viewBox="0 0 24 24"
   version="1.1"
   id="svg5"
   inkscape:version="1.2.1 (9c6d41e410, 2022-07-14, custom)"
   sodipodi:docname="ffupdater.svg"
   xml:space="preserve"
   xmlns:inkscape="http://www.inkscape.org/namespaces/inkscape"
   xmlns:sodipodi="http://sodipodi.sourceforge.net/DTD/sodipodi-0.dtd"
   xmlns="http://www.w3.org/2000/svg"
   xmlns:svg="http://www.w3.org/2000/svg"><sodipodi:namedview
     id="namedview7"
     pagecolor="#505050"
     bordercolor="#ffffff"
     borderopacity="1"
     inkscape:showpageshadow="0"
     inkscape:pageopacity="0"
     inkscape:pagecheckerboard="1"
     inkscape:deskcolor="#505050"
     inkscape:document-units="px"
     showgrid="true"
     inkscape:zoom="45.254834"
     inkscape:cx="11.413145"
     inkscape:cy="17.081048"
     inkscape:window-width="1920"
     inkscape:window-height="1020"
     inkscape:window-x="0"
     inkscape:window-y="28"
     inkscape:window-maximized="1"
     inkscape:current-layer="svg5"><inkscape:grid
       type="xygrid"
       id="grid132"
       empspacing="4" /></sodipodi:namedview><defs
     id="defs2" /><path
     style="fill:#000000;fill-opacity:1;fill-rule:evenodd;stroke:none;stroke-width:0.0534079"
     d="m 17.016214,2 1.963588,7.3282092 -7.27845,1.9502558 2.372893,-4.1424965 C 8.4854447,4.0628855 3.5357832,8.6715671 4.4609853,14.193725 H 2.3507458 C 1.1903073,7.2581456 8.2704229,1.4165218 15.175506,5.2134308 Z m 4.758709,19.413785 C 15.280407,14.150425 12.656954,22 8.6580474,22 6.4723895,22 3.2240739,20.187185 2.9649645,16.75916 c -0.019438,-0.257162 0.043652,-0.690132 0.6089053,-0.542908 5.6642774,1.475305 5.9795759,-3.037609 9.8594622,-3.037609 2.556742,0 5.672031,2.28761 8.341591,8.235142 z m -8.266441,-3.145764 0.16376,-1.463937 -1.151254,-0.06157 0.119373,-1.404614 -1.160074,-0.48939 c 3.53263,-1.541127 5.566254,0.813422 7.494446,3.44197 -1.385011,-1.476294 -3.622046,-0.932479 -5.466251,-0.02246 z"
     id="path427"
     sodipodi:nodetypes="cccccccccssssccccccccc" /></svg>
