<svg width="25" height="25" viewBox="0 0 25 25" fill="none" xmlns="http://www.w3.org/2000/svg">
<g clip-path="url(#clip0_0_1)">
<g clip-path="url(#clip1_0_1)">
<path d="M4.67624 4.89624H8.14124V5.73499H5.69374V6.93124H7.98999V7.76999H5.69374V9.68124H4.67624V4.89624Z" fill="black"/>
<path d="M8.78748 9.6675V4.62125H9.76373V9.68125H8.78748V9.6675Z" fill="black"/>
<path d="M14.1225 7.89374C14.1225 8.96624 13.4625 9.76375 12.28 9.76375C11.125 9.76375 10.4787 8.95249 10.4787 7.90749C10.4787 6.84874 11.1525 6.0375 12.3212 6.0375C13.4487 6.02375 14.1225 6.83499 14.1225 7.89374ZM11.4687 7.89374C11.4687 8.55374 11.7712 8.99374 12.2937 8.99374C12.83 8.99374 13.105 8.55374 13.105 7.90749C13.105 7.20624 12.8162 6.79374 12.28 6.79374C11.7712 6.79374 11.4687 7.19249 11.4687 7.89374Z" fill="black"/>
<path d="M17.89 8.74625C17.89 9.1175 17.9175 9.585 17.9312 9.6675H16.9962C16.9687 9.585 16.955 9.3925 16.9412 9.29625C16.8037 9.53 16.515 9.75 15.8687 9.75C14.975 9.75 14.6175 9.18625 14.6175 8.6225C14.6175 7.78375 15.305 7.44 16.35 7.44C16.5562 7.44 16.8037 7.44 16.9275 7.44V7.2475C16.9275 6.9725 16.8312 6.725 16.3362 6.725C15.8825 6.725 15.7862 6.9175 15.7312 7.165H14.7825C14.8237 6.60125 15.195 6.02375 16.35 6.0375C17.45 6.0375 17.89 6.505 17.89 7.275V8.74625V8.74625ZM16.9275 8.05875C16.845 8.05875 16.6387 8.05875 16.4187 8.05875C15.8137 8.05875 15.58 8.2375 15.58 8.58125C15.58 8.8425 15.7587 9.0625 16.13 9.0625C16.7762 9.0625 16.9137 8.65 16.9137 8.155V8.05875H16.9275Z" fill="black"/>
<path d="M18.44 6.11999H19.0175V5.11624H19.9937V6.10624H20.7362V6.83499H19.9937V8.55374C19.9937 8.84249 20.0762 8.96624 20.3787 8.96624C20.4475 8.96624 20.5437 8.96624 20.6262 8.95249V9.62624C20.4337 9.68124 20.1725 9.69499 19.9662 9.69499C19.2375 9.69499 19.0037 9.32374 19.0037 8.69124V6.84874H18.4262V6.11999H18.44Z" fill="black"/>
<path d="M14.2737 16.955C13.6412 16.955 13.4075 17.3813 13.4075 18.0688C13.4075 18.7013 13.6412 19.1688 14.26 19.1688C14.8237 19.1688 15.1125 18.7013 15.1125 18.0138C15.1262 17.4225 14.8512 16.955 14.2737 16.955Z" fill="black"/>
<path d="M19.4712 12.8163H5.52874C3.86499 12.8163 2.51749 14.1638 2.51749 15.8275V18.8938C2.51749 20.5575 3.86499 21.905 5.52874 21.905H19.485C21.1487 21.905 22.4962 20.5575 22.4962 18.8938V15.8275C22.4825 14.1638 21.135 12.8163 19.4712 12.8163ZM7.67374 19.6638H6.94499V15.91H5.50124V15.305H9.11749V15.91H7.67374V19.6638ZM11.1662 19.6638C11.1525 19.5813 11.1525 19.3888 11.1387 19.21C10.9737 19.54 10.685 19.7325 10.1487 19.7325C9.54374 19.7325 9.04874 19.4025 9.04874 18.5225V16.46H9.73624V18.385C9.73624 18.7975 9.87374 19.155 10.3687 19.155C10.9187 19.155 11.1387 18.8525 11.1387 18.0825V16.46H11.8262V18.7288C11.8262 19.0313 11.8262 19.4163 11.8262 19.6638H11.1662V19.6638ZM14.3837 19.7463C13.8475 19.7463 13.5862 19.5538 13.4212 19.265C13.4212 19.4025 13.4075 19.5813 13.3937 19.6638H12.7337C12.7337 19.2925 12.7337 18.9488 12.7337 18.5913V15.0575H13.4212V16.9C13.5725 16.6525 13.8612 16.405 14.4387 16.405C15.2775 16.405 15.8137 17.0925 15.8137 18.0138C15.8275 18.99 15.2912 19.7463 14.3837 19.7463ZM19.3337 18.2063H17.0237C17.0375 18.7563 17.34 19.1825 17.8625 19.1825C18.3162 19.1825 18.4812 18.9763 18.5912 18.7425H19.2787C19.1412 19.1688 18.77 19.7325 17.835 19.7325C16.7625 19.7325 16.3225 18.9213 16.3225 18.0825C16.3225 17.12 16.845 16.3775 17.8625 16.3775C18.9625 16.3775 19.3337 17.2025 19.3337 17.945C19.3475 18.055 19.3475 18.1238 19.3337 18.2063Z" fill="black"/>
<path d="M17.8625 16.9137C17.3262 16.9137 17.0925 17.2712 17.0375 17.7525H18.6325C18.6325 17.3262 18.4262 16.9137 17.8625 16.9137Z" fill="black"/>
</g>
</g>
<defs>
<clipPath id="clip0_0_1">
<rect width="25" height="25" fill="white"/>
</clipPath>
<clipPath id="clip1_0_1">
<rect width="33" height="33" fill="white" transform="translate(-4 -4)"/>
</clipPath>
</defs>
</svg>
