<svg width="24" height="24" viewBox="0 0 24 24" fill="none" xmlns="http://www.w3.org/2000/svg">
<path d="M5.2643 4.81179C3.91406 3.8036 1.98767 4.76287 1.98767 6.44227V8.25346L6.53878 11.6503L11.9958 15.7395L17.4612 11.6503L22.0123 8.25346V6.44227C22.0123 4.76287 20.0859 3.8036 18.7357 4.81179L12.0001 9.83925L5.2643 4.81179Z" fill="#FFF1C0"/>
<path d="M17.4283 13.7035V19.5997H20.6372C21.0019 19.5997 21.3517 19.4534 21.6095 19.1931C21.8674 18.9327 22.0123 18.5795 22.0123 18.2113V10.2775L17.4283 13.7035Z" fill="#FFF1C0"/>
<path d="M6.57166 13.7035V19.5997H3.36282C2.99811 19.5997 2.64834 19.4534 2.39046 19.1931C2.13257 18.9327 1.9877 18.5795 1.9877 18.2113V10.2775L6.57166 13.7035Z" fill="#FFF1C0"/>
</svg>
