<svg width="24" height="24" viewBox="0 0 24 24" fill="none" xmlns="http://www.w3.org/2000/svg">
<path fill-rule="evenodd" clip-rule="evenodd" d="M9.7837 12.0117C9.7837 12.0117 8.71276 12.4272 7.39167 12.4272C6.07095 12.4272 5 12.0117 5 12.0117C5 12.0117 6.07095 11.5963 7.39167 11.5963C8.71276 11.5963 9.7837 12.0117 9.7837 12.0117Z" fill="#FFCA05"/>
<path fill-rule="evenodd" clip-rule="evenodd" d="M13.0911 5.90189C13.0911 5.90189 12.1422 5.26084 11.4036 4.1834C10.6651 3.1056 10.4161 2 10.4161 2C10.4161 2 11.3647 2.64141 12.1035 3.71849C12.8424 4.7963 13.0911 5.90189 13.0911 5.90189Z" fill="#FFCA05"/>
<path fill-rule="evenodd" clip-rule="evenodd" d="M10.6687 8.53831C10.6687 8.53831 9.52489 8.41053 8.35865 7.80016C7.19206 7.19015 6.44489 6.32892 6.44489 6.32892C6.44489 6.32892 7.58874 6.4567 8.75498 7.0667C9.92122 7.67708 10.6687 8.53831 10.6687 8.53831Z" fill="#FFCA05"/>
<path fill-rule="evenodd" clip-rule="evenodd" d="M12.9767 14.0121C13.6557 14.0056 14.4743 13.4693 14.4743 13.4693C14.4743 13.4693 12.5757 12.8925 12.6952 11.1834C13.0695 8.37839 15.3323 6.17622 18.1654 5.82177C17.8647 5.78026 17.5579 5.7586 17.2457 5.75968C13.7419 5.77556 10.9142 8.58305 10.9298 12.0305C10.9456 15.4776 13.799 18.2598 17.3027 18.2443C17.5951 18.2429 17.8821 18.2208 18.1636 18.1815C15.6774 17.87 13.6539 16.145 12.928 13.8656" fill="#FFCA05"/>
<path fill-rule="evenodd" clip-rule="evenodd" d="M13.0911 18.0977C13.0911 18.0977 12.1422 18.7392 11.4036 19.8166C10.6651 20.894 10.4161 22 10.4161 22C10.4161 22 11.3647 21.3586 12.1035 20.2811C12.8424 19.2037 13.0911 18.0977 13.0911 18.0977Z" fill="#FFCA05"/>
<path fill-rule="evenodd" clip-rule="evenodd" d="M10.6687 15.4614C10.6687 15.4614 9.52489 15.5891 8.35865 16.1995C7.19206 16.8095 6.44489 17.6711 6.44489 17.6711C6.44489 17.6711 7.58874 17.543 8.75498 16.933C9.92122 16.323 10.6687 15.4614 10.6687 15.4614Z" fill="#FFCA05"/>
</svg>
