<svg width="24" height="24" viewBox="0 0 24 24" fill="none" xmlns="http://www.w3.org/2000/svg">
<path d="M12 3.80183C14.6701 3.80183 14.9864 3.81203 16.0409 3.86014C17.0159 3.90464 17.5454 4.06751 17.8978 4.20446C18.3321 4.36477 18.725 4.62038 19.0476 4.95251C19.3797 5.27507 19.6353 5.66796 19.7956 6.10231C19.9326 6.45468 20.0955 6.98417 20.1399 7.95916C20.188 9.01365 20.1982 9.3299 20.1982 12.0001C20.1982 14.6703 20.188 14.9865 20.1399 16.041C20.0954 17.016 19.9325 17.5455 19.7956 17.8978C19.6292 18.3291 19.3745 18.7208 19.0476 19.0477C18.7208 19.3746 18.329 19.6294 17.8978 19.7958C17.5454 19.9327 17.0159 20.0956 16.0409 20.14C14.9867 20.1881 14.6704 20.1984 12 20.1984C9.32959 20.1984 9.01346 20.1881 7.95904 20.14C6.98406 20.0956 6.4546 19.9327 6.10219 19.7958C5.66784 19.6354 5.27495 19.3799 4.95239 19.0477C4.62026 18.7251 4.36465 18.3322 4.20434 17.8978C4.06739 17.5455 3.90449 17.016 3.86002 16.041C3.81191 14.9866 3.80171 14.6703 3.80171 12.0001C3.80171 9.3299 3.81191 9.01373 3.86002 7.95916C3.90452 6.98417 4.06739 6.45472 4.20434 6.10231C4.36467 5.66794 4.62031 5.27503 4.95247 4.95247C5.27503 4.62034 5.66793 4.36472 6.10227 4.20441C6.45465 4.06747 6.98413 3.90456 7.95912 3.8601C9.01361 3.81199 9.32986 3.80179 12 3.80179V3.80183ZM12 2C9.28421 2 8.94355 2.01151 7.87711 2.06018C6.81269 2.10876 6.0858 2.27778 5.44973 2.525C4.78248 2.7761 4.17803 3.16972 3.67854 3.67842C3.16973 4.17789 2.77599 4.78233 2.52481 5.44961C2.27778 6.08572 2.10876 6.81261 2.06037 7.87703C2.01151 8.94348 2 9.28413 2 12C2 14.7158 2.01151 15.0565 2.06037 16.1229C2.10896 17.1874 2.27798 17.9142 2.5252 18.5503C2.7763 19.2176 3.16992 19.822 3.67862 20.3215C4.17811 20.8302 4.78256 21.2239 5.44981 21.4749C6.08592 21.7221 6.81281 21.8911 7.87718 21.9398C8.94379 21.9884 9.28433 21.9999 12.0001 21.9999C14.7159 21.9999 15.0567 21.9884 16.1231 21.9398C17.1875 21.8911 17.9144 21.7221 18.5505 21.4749C19.2148 21.218 19.818 20.8251 20.3217 20.3215C20.8253 19.8179 21.2181 19.2146 21.475 18.5503C21.7223 17.9142 21.8913 17.1873 21.9399 16.1229C21.9886 15.0563 22 14.7158 22 12C22 9.28418 21.9886 8.94348 21.9399 7.87703C21.8913 6.81261 21.7223 6.08572 21.475 5.44964C21.2239 4.7824 20.8304 4.17795 20.3217 3.67846C19.8221 3.16966 19.2177 2.77596 18.5504 2.52481C17.9142 2.27778 17.1874 2.10876 16.1229 2.06037C15.0565 2.01151 14.7158 2 12 2Z" fill="black"/>
<path d="M12 6.86481C10.9844 6.86481 9.99155 7.16598 9.14707 7.73024C8.30261 8.29449 7.64443 9.09649 7.25576 10.0348C6.8671 10.9732 6.7654 12.0056 6.96354 13.0018C7.16168 13.9979 7.65075 14.9129 8.36892 15.631C9.08707 16.3492 10.0021 16.8383 10.9982 17.0364C11.9943 17.2345 13.0268 17.1328 13.9651 16.7442C14.9035 16.3555 15.7055 15.6974 16.2698 14.8529C16.8339 14.0084 17.1351 13.0156 17.1351 12C17.1351 10.638 16.5941 9.33188 15.6311 8.36886C14.668 7.40584 13.3619 6.86481 12 6.86481ZM12 15.3333C11.3407 15.3333 10.6963 15.1377 10.1481 14.7714C9.59998 14.4052 9.17275 13.8846 8.92047 13.2755C8.66818 12.6664 8.60217 11.9963 8.73079 11.3496C8.85942 10.7031 9.17688 10.1091 9.64306 9.64293C10.1092 9.17677 10.7032 8.8593 11.3497 8.73068C11.9964 8.60207 12.6666 8.66808 13.2757 8.92038C13.8847 9.17267 14.4053 9.5999 14.7716 10.1481C15.1378 10.6963 15.3334 11.3407 15.3334 12C15.3333 12.884 14.9821 13.7318 14.357 14.357C13.7319 14.9821 12.884 15.3333 12 15.3333V15.3333Z" fill="black"/>
<path d="M17.338 7.86193C18.0007 7.86193 18.538 7.32469 18.538 6.66196C18.538 5.99923 18.0007 5.46198 17.338 5.46198C16.6753 5.46198 16.138 5.99923 16.138 6.66196C16.138 7.32469 16.6753 7.86193 17.338 7.86193V7.86193Z" fill="black"/>
</svg>
