<svg xmlns="http://www.w3.org/2000/svg" viewBox="0 0 192 192"><path d="M110.35032 98.197873a21.313167 21.313167 0 0 1-11.255168 8.670377l20.614818 19.12743h3.29221a1.8819073 1.8819073 0 0 0 1.87737-1.87737V77.220275a1.8819073 1.8819073 0 0 0-1.87737-1.877372h-14.10297a18.161539 18.161539 0 0 1 4.53472 14.05762 20.011703 20.011703 0 0 1-3.08361 8.79735z"/><path d="M73.111228 77.220275v46.898035a1.8819073 1.8819073 0 0 0 1.877372 1.87737h34.39582l-20.283783-18.81907c-3.015586-2.91129-1.219838-6.70684 2.339914-6.09012 6.094659-.10884 10.574959-2.915825 12.996499-6.684175a12.987427 12.987427 0 0 0 2.01795-5.686534 11.336791 11.336791 0 0 0-.87067-5.727346c-1.47378-3.373829-4.8204-6.276048-10.352756-7.645532H74.9886a1.8819073 1.8819073 0 0 0-1.877372 1.877372z"/><path d="M34.153482 93.118991c.158715.235805.321964.453471.453471.707415.516958.766368 1.065658 1.505526 1.591686 2.267359l-2.004345-3.001983zm131.769788 4.54832c9.47302 35.008009-5.7863 50.494069-34.59535 45.301819a200.6748 200.6748 0 0 1-10.42985 17.9484c47.48301 11.91724 66.66486-22.99554 45.0252-63.250219zM66.427056 163.69732c-35.017078-9.29617-40.812445-30.21935-21.993373-52.54376a198.23966 198.23966 0 0 1-10.325549-18.007361C.12497037 128.27211 20.766999 162.30969 66.427056 163.69732ZM135.37288 52.029926l.68021-.04535C122.653 4.882481 82.810986 5.716869 58.763387 44.592992c25.612076-25.734515 46.675833-20.2203 56.566053 7.418796a199.65449 199.65449 0 0 1 20.04344.01814zm7.49135 63.871474a215.72552 215.72552 0 0 0 11.48191-58.81073q.0998-1.578081.18592-3.174302-9.17827-1.360414-18.35653-1.841094c.14057.879735.27208 1.754935.39905 2.63467a182.71732 182.71732 0 0 1 .79358 50.720796 170.22871 170.22871 0 0 1-16.60613 55.49586q-1.26065-.48068-2.50317-.9795a182.29559 182.29559 0 0 1-45.34716-25.45336 169.82966 169.82966 0 0 1-36.667714-38.372767c-.526027-.757298-1.074728-1.496456-1.591686-2.267358-.15418-.235805-.31743-.453472-.453471-.707416l.04081-.03174c.408125-.335569.820784-.666603 1.233443-.993103a182.74907 182.74907 0 0 1 44.181741-26.627857 169.98384 169.98384 0 0 1 56.221417-13.445434h-.50336a202.48869 202.48869 0 0 0-49.473752 3.586961q-29.412169 5.645722-57.590896 19.975425l-1.723192.8752c.126972.317431.253944.625791.380917.934152q3.246856 8.040052 7.133108 15.717327a198.23966 198.23966 0 0 0 10.334618 18.01643 201.50465 201.50465 0 0 0 16.819263 22.59195q19.580904 23.01822 46.172484 40.51769 1.3196.87067 2.65281 1.7368 5.77269-7.30996 10.81076-15.06433a200.6748 200.6748 0 0 0 10.42985-17.9484 201.3414 201.3414 0 0 0 11.54538-27.08587zm-6.70684-63.857869h-.25848.28115z"/></svg>