<?xml version="1.0" encoding="UTF-8" standalone="no"?>
<svg
   width="24"
   height="24"
   viewBox="0 0 24 24"
   fill="none"
   version="1.1"
   id="svg4"
   sodipodi:docname="joplin.svg"
   xml:space="preserve"
   inkscape:version="1.2.1 (9c6d41e410, 2022-07-14)"
   xmlns:inkscape="http://www.inkscape.org/namespaces/inkscape"
   xmlns:sodipodi="http://sodipodi.sourceforge.net/DTD/sodipodi-0.dtd"
   xmlns="http://www.w3.org/2000/svg"
   xmlns:svg="http://www.w3.org/2000/svg"><defs
     id="defs8"><inkscape:path-effect
       effect="mirror_symmetry"
       start_point="11.815183,4.175309"
       end_point="11.815183,19.917309"
       center_point="11.815183,12.046309"
       id="path-effect1668"
       is_visible="true"
       lpeversion="1.2"
       lpesatellites=""
       mode="free"
       discard_orig_path="false"
       fuse_paths="false"
       oposite_fuse="false"
       split_items="false"
       split_open="false"
       link_styles="false" /></defs><sodipodi:namedview
     id="namedview6"
     pagecolor="#505050"
     bordercolor="#ffffff"
     borderopacity="1"
     inkscape:showpageshadow="0"
     inkscape:pageopacity="0"
     inkscape:pagecheckerboard="1"
     inkscape:deskcolor="#505050"
     showgrid="false"
     showguides="false"
     inkscape:zoom="16"
     inkscape:cx="27.71875"
     inkscape:cy="11.5625"
     inkscape:window-width="1920"
     inkscape:window-height="1012"
     inkscape:window-x="0"
     inkscape:window-y="0"
     inkscape:window-maximized="1"
     inkscape:current-layer="svg4" /><path
     d="m 12.712444,8.6519412 h 1.9568 l 1.15e-4,0.6860195 h -0.324813 c -0.108877,0 -0.162558,0.05446 -0.162558,0.1625581 V 12.67288 c 0,0.569123 -0.516598,1.270728 -1.499064,1.270728 -1.045241,0 -1.972007,-0.81492 -1.972007,-1.829014 0,-1.136456 1.148268,-1.652757 1.978175,-1.371457 v 1.025917 c -0.180939,-0.115557 -0.34073,-0.14312 -0.508255,-0.14312 -0.233471,0 -0.475429,0.196505 -0.475429,0.480491 0,0.494684 0.580193,0.894303 0.937053,0.894303 0.368539,0 0.557354,-0.230404 0.557354,-0.444637 V 9.5005188 c 0,-0.1102366 -0.05339,-0.1625581 -0.162558,-0.1625581 h -0.324813 z"
     style="opacity:1;fill:#000000;fill-opacity:1;fill-rule:evenodd;stroke-width:0.00802428;stroke-linecap:round;stroke-linejoin:round;paint-order:fill markers stroke"
     id="path526"
     transform="matrix(3.7795276,0,0,3.7795276,-35.962727,-30.700251)" /></svg>
