<svg xmlns="http://www.w3.org/2000/svg" style="-ms-transform:rotate(360deg);-webkit-transform:rotate(360deg)" viewBox="0 0 192 192"><path d="m108.54 16-26.606668 2.546667V128.11333l26.326668-3.96V77.439998l35.38666 51.813332 27.74667-8.78-36.24-49.833332L171.68 23.64l-28.31334-6.506667-35.1 46.999999zM48.226666 42.699999a1.3533333 1.3533333 0 0 0-.82.393334L36.966667 53.533332a1.3533333 1.3533333 0 0 0-.2 1.653333l12.226666 20.146667a52.266665 52.266665 0 0 0-5.146667 11.726666L21.4 91.726664a1.3533333 1.3533333 0 0 0-1.079999 1.326667V107.82c0 .62.426666 1.16 1.033333 1.30666L43.14 114.46a52.199998 52.199998 0 0 0 5.34 13.53333L35.866667 147.22a1.3533333 1.3533333 0 0 0 .18 1.69333L46.486666 159.36a1.36 1.36 0 0 0 1.66.2l19.76-12c3.88 2.24 8.066666 4 12.493333 5.2l4.613333 22.16666c.133333.62667.68 1.07334 1.32 1.07334H101.1a1.3466666 1.3466666 0 0 0 1.31333-1.03334l5.43333-22.21333a52.046665 52.046665 0 0 0 12.84667-5.40667l19.48 12.76667c.53333.35333 1.24.28 1.69333-.17333l10.44667-10.44a1.3466666 1.3466666 0 0 0 .2-1.65334l-7.11333-11.72-2.3.73334a.79999998.79999998 0 0 1-.9-.31334l-10.39334-15.21333a42.313332 42.313332 0 1 1-55.033328-57.826665V52.586666c-2.673333.933333-5.266666 2.066666-7.726666 3.406666l-.0067-.01333-19.933333-13.066666a1.3533333 1.3533333 0 0 0-.88-.22z"/></svg>