<svg width="24" height="24" viewBox="0 0 24 24" fill="none" xmlns="http://www.w3.org/2000/svg">
<path d="M6.77666 2H17.22C17.6333 2 17.966 2.31857 17.966 2.71429V6.28572H17.0708V3H6.92585V20.4286H17.0708V6.28572H17.966V21.2857C17.966 21.6814 17.6333 22 17.22 22H6.77666C6.3634 22 6.0307 21.6814 6.0307 21.2857V2.71429C6.0307 2.31857 6.3634 2 6.77666 2V2Z" fill="#F5F5F5"/>
<path d="M13.355 2.42847H10.6407C10.6012 2.42847 10.5692 2.46045 10.5692 2.4999C10.5692 2.53935 10.6012 2.57132 10.6407 2.57132H13.355C13.3944 2.57132 13.4264 2.53935 13.4264 2.4999C13.4264 2.46045 13.3944 2.42847 13.355 2.42847Z" fill="#1A1A1A"/>
<path d="M9.50631 9.69851C9.49055 9.70014 9.47351 9.70448 9.46167 9.71637L8.91393 10.2641C8.89093 10.2872 8.88812 10.3225 8.90501 10.3504L9.54501 11.4072C9.43137 11.5982 9.33909 11.8031 9.27412 12.0204L8.09831 12.2645C8.06559 12.2712 8.04175 12.3024 8.04175 12.3359V13.1099C8.04175 13.1426 8.06663 13.1706 8.09831 13.1783L9.2384 13.4552C9.29937 13.7067 9.39356 13.9474 9.51821 14.1666L8.85738 15.1728C8.83895 15.2009 8.84254 15.2383 8.8663 15.2621L9.41404 15.8098C9.43711 15.8328 9.47249 15.8357 9.50035 15.8187L10.5363 15.1906C10.7394 15.3079 10.9594 15.4019 11.1911 15.4645L11.4323 16.6254C11.439 16.6582 11.4672 16.682 11.5007 16.682H12.2747C12.3072 16.682 12.3354 16.6602 12.3431 16.6284L12.6289 15.4615C12.8679 15.3971 13.0932 15.3014 13.3017 15.1787L14.3227 15.8485C14.3508 15.8668 14.3881 15.8633 14.412 15.8396L14.9567 15.2918C14.9799 15.2687 14.9856 15.2334 14.9687 15.2055L14.5966 14.5923L14.4745 14.631C14.4569 14.6364 14.4374 14.6285 14.4269 14.6131C14.4269 14.6131 14.1918 14.2674 13.8851 13.8183C13.5183 14.5361 12.7702 15.0269 11.9085 15.0269C10.6842 15.0269 9.69087 14.0336 9.69087 12.8092C9.69087 11.9086 10.2294 11.1351 11.0006 10.788V10.2165C10.8603 10.2656 10.7247 10.3249 10.5958 10.3951C10.5956 10.3949 10.596 10.3922 10.5958 10.3921L9.55097 9.70744C9.53691 9.69825 9.52206 9.69689 9.50631 9.69851ZM12.6646 8.29944L11.2715 8.43339V14.1726L12.6498 13.9642V11.5173L14.5043 14.2321L15.9569 13.7707L14.0578 11.1601L15.9718 8.69832L14.4894 8.35897L12.6498 10.8208L12.6646 8.29944V8.29944Z" fill="#F2F2F2"/>
<path opacity="0.4" d="M6.77597 2.00281C6.36271 2.00281 6.03 2.32136 6.03 2.71707V2.87939C6.03 2.48368 6.36271 2.16513 6.77597 2.16513H17.2194C17.6326 2.16513 17.9653 2.48368 17.9653 2.87939V2.71707C17.9653 2.32136 17.6326 2.00281 17.2194 2.00281H6.77597Z" fill="white"/>
<path opacity="0.1" d="M6.03 21.1229V21.2852C6.03 21.681 6.36271 21.9995 6.77597 21.9995H17.2194C17.6326 21.9995 17.9653 21.681 17.9653 21.2852V21.1229C17.9653 21.5186 17.6326 21.8372 17.2194 21.8372H6.77597C6.36271 21.8372 6.03 21.5186 6.03 21.1229V21.1229Z" fill="black"/>
</svg>
