<svg width="24" height="24" viewBox="0 0 24 24" fill="none" xmlns="http://www.w3.org/2000/svg">
<path d="M12.5394 16.7845C12.9345 16.5865 13.2058 16.1778 13.2058 15.7058C13.2058 15.0398 12.6659 14.5 12 14.5C11.3341 14.5 10.7943 15.0398 10.7943 15.7058C10.7943 16.1778 11.0655 16.5865 11.4607 16.7845L10.3923 18.9211H13.6077L12.5394 16.7845Z" fill="#FFF1C0"/>
<path d="M6.35355 1.35354C6.15829 1.5488 6.15829 1.86538 6.35355 2.06065L8.0867 3.79379C5.3978 4.94965 3.45408 7.25961 3.06964 10H5.10081C5.6458 7.30481 8.35105 5 12 5C15.649 5 18.3542 7.30481 18.8992 10H20.9304C20.5304 7.14875 18.4424 4.76347 15.5834 3.65923L17.182 2.06065C17.3772 1.86538 17.3772 1.5488 17.182 1.35354C16.9867 1.15828 16.6701 1.15828 16.4749 1.35354L14.5125 3.3159C13.7151 3.11024 12.872 3 12 3C10.9944 3 10.0272 3.14661 9.12422 3.4171L7.06066 1.35354C6.8654 1.15828 6.54882 1.15828 6.35355 1.35354Z" fill="#FFF1C0"/>
<path d="M9 9C9.55228 9 10 8.55228 10 8C10 7.44772 9.55228 7 9 7C8.44772 7 8 7.44772 8 8C8 8.55228 8.44772 9 9 9Z" fill="#FFF1C0"/>
<path d="M2 11H22V13H2V11Z" fill="#FFF1C0"/>
<path d="M10.6014 14H2V16H9.81371C9.80088 15.9038 9.79425 15.8056 9.79425 15.7058C9.79425 15.0184 10.1086 14.4045 10.6014 14Z" fill="#FFF1C0"/>
<path d="M13.3986 14C13.8914 14.4045 14.2058 15.0184 14.2058 15.7058C14.2058 15.8056 14.1991 15.9038 14.1863 16H22V14H13.3986Z" fill="#FFF1C0"/>
<path d="M10.2138 17H2V19H9.23486L10.2263 17.017C10.2221 17.0114 10.218 17.0057 10.2138 17Z" fill="#FFF1C0"/>
<path d="M14.7652 19L13.7737 17.017C13.7779 17.0114 13.782 17.0057 13.7862 17H22V19H14.7652Z" fill="#FFF1C0"/>
<path d="M2 20H22V22H2V20Z" fill="#FFF1C0"/>
<path d="M16 8C16 8.55228 15.5523 9 15 9C14.4477 9 14 8.55228 14 8C14 7.44772 14.4477 7 15 7C15.5523 7 16 7.44772 16 8Z" fill="#FFF1C0"/>
</svg>
