<svg width="24" height="24" viewBox="0 0 24 24" fill="none" xmlns="http://www.w3.org/2000/svg">
<path d="M17.1 20.2926C17.4728 20.2926 17.775 19.9904 17.775 19.6176C17.775 19.2448 17.4728 18.9426 17.1 18.9426L17.1 20.2926ZM11.2176 18.9426L10.5426 18.9426L10.5426 20.2926L11.2176 20.2926L11.2176 18.9426ZM13.3206 21.2662C13.3206 21.639 13.6228 21.9412 13.9956 21.9412C14.3684 21.9412 14.6706 21.639 14.6706 21.2662H13.3206ZM14.6706 20.2632C14.6706 19.8905 14.3684 19.5882 13.9956 19.5882C13.6228 19.5882 13.3206 19.8905 13.3206 20.2632H14.6706ZM16.7294 20.2661C16.7294 19.8934 16.4272 19.5911 16.0544 19.5911C15.6816 19.5911 15.3794 19.8934 15.3794 20.2661H16.7294ZM15.3794 20.4397C15.3794 20.8125 15.6816 21.1147 16.0544 21.1147C16.4272 21.1147 16.7294 20.8125 16.7294 20.4397H15.3794ZM9.725 19.7C9.725 20.2661 9.26609 20.725 8.7 20.725V22.075C10.0117 22.075 11.075 21.0117 11.075 19.7H9.725ZM8.7 20.725C8.13391 20.725 7.675 20.2661 7.675 19.7H6.325C6.325 21.0117 7.38832 22.075 8.7 22.075V20.725ZM7.675 19.7C7.675 19.1339 8.13391 18.675 8.7 18.675V17.325C7.38832 17.325 6.325 18.3883 6.325 19.7H7.675ZM8.7 18.675C9.26609 18.675 9.725 19.1339 9.725 19.7H11.075C11.075 18.3883 10.0117 17.325 8.7 17.325V18.675ZM17.1 18.9426L11.2176 18.9426L11.2176 20.2926L17.1 20.2926L17.1 18.9426ZM14.6706 21.2662V20.2632H13.3206V21.2662H14.6706ZM15.3794 20.2661V20.4397H16.7294V20.2661H15.3794Z" fill="white"/>
<path fill-rule="evenodd" clip-rule="evenodd" d="M16.5794 11.3233C16.5892 11.3605 16.5941 11.3987 16.5943 11.4371V15.6612C16.5944 15.7411 16.5735 15.8198 16.5337 15.8891C16.4938 15.9584 16.4364 16.0161 16.3672 16.0562C16.298 16.0963 16.2195 16.1175 16.1395 16.1176C15.7396 16.1168 15.3469 16.0107 15.001 15.81C14.655 15.6094 14.368 15.321 14.1688 14.9743C13.9695 14.6275 13.8651 14.2344 13.8659 13.8345V12.1719L11.3207 9.61599C11.1786 9.47302 11.0987 9.27942 11.0987 9.07783C11.0987 8.87625 11.1786 8.68265 11.3207 8.53968L13.8659 5.98382V4.28318C13.8651 3.88327 13.9695 3.49012 14.1688 3.14336C14.368 2.79661 14.655 2.50829 15.001 2.30766C15.3469 2.10698 15.7396 2.00084 16.1395 2C16.2195 2.00017 16.2981 2.02137 16.3673 2.06148C16.4364 2.10164 16.4939 2.15929 16.5338 2.22864C16.5736 2.29805 16.5944 2.37668 16.5943 2.45666V6.64246C16.5941 6.6834 16.5884 6.72418 16.5774 6.76361C16.5854 6.87228 16.5699 6.98139 16.5321 7.08353C16.4943 7.18568 16.4349 7.27854 16.358 7.35576L14.6432 9.07783L16.358 10.7999C16.4967 10.9391 16.5762 11.1269 16.5794 11.3233ZM9.34051 16.1176H8.12791C7.9946 16.1174 7.86366 16.082 7.74836 16.0152C7.633 15.9483 7.53733 15.8522 7.4709 15.7366C7.40448 15.621 7.36972 15.4899 7.37 15.3566V2.76106C7.36972 2.62776 7.40448 2.49665 7.4709 2.38106C7.53733 2.26548 7.633 2.16936 7.74836 2.10248C7.86366 2.0356 7.9946 2.00022 8.12791 2H9.34051C9.47381 2.00028 9.60475 2.0356 9.72005 2.10248C9.83535 2.16941 9.93103 2.26548 9.99745 2.38106C10.0639 2.4967 10.0986 2.62776 10.0984 2.76106V15.3566C10.0986 15.4899 10.0639 15.6209 9.99745 15.7366C9.93103 15.8522 9.83535 15.9482 9.72005 16.0152C9.60475 16.082 9.47381 16.1174 9.34051 16.1176Z" fill="white"/>
</svg>
