<svg width="24" height="24" viewBox="0 0 24 24" fill="none" xmlns="http://www.w3.org/2000/svg">
<path fill-rule="evenodd" clip-rule="evenodd" d="M18.0467 15.208C18.0605 15.2607 18.0675 15.3148 18.0677 15.3692V21.3533C18.068 21.4666 18.0383 21.578 17.9819 21.6762C17.9254 21.7744 17.8441 21.8561 17.7461 21.9129C17.6481 21.9697 17.5368 21.9998 17.4235 22C16.857 21.9988 16.3006 21.8484 15.8105 21.5641C15.3205 21.2799 14.9139 20.8715 14.6316 20.3802C14.3493 19.889 14.2014 19.332 14.2026 18.7655V16.4102L10.5968 12.7893C10.3955 12.5868 10.2823 12.3125 10.2823 12.0269C10.2823 11.7414 10.3955 11.4671 10.5968 11.2645L14.2026 7.64374V5.2345C14.2014 4.66797 14.3493 4.111 14.6316 3.61976C14.9139 3.12853 15.3205 2.72008 15.8105 2.43586C16.3006 2.15155 16.857 2.0012 17.4235 2C17.5368 2.00024 17.6481 2.03028 17.7461 2.08709C17.8441 2.14398 17.9255 2.22566 17.982 2.3239C18.0384 2.42223 18.068 2.53363 18.0677 2.64693V8.57681C18.0675 8.63482 18.0594 8.69259 18.0438 8.74845C18.0551 8.90239 18.0332 9.05697 17.9796 9.20167C17.9261 9.34637 17.8419 9.47793 17.7331 9.58733L15.3037 12.0269L17.7331 14.4665C17.9296 14.6637 18.0421 14.9297 18.0467 15.208ZM7.79156 22H6.07371C5.88486 21.9997 5.69937 21.9496 5.53602 21.8548C5.37259 21.7601 5.23705 21.6239 5.14295 21.4602C5.04885 21.2964 4.9996 21.1107 5 20.9218V3.07817C4.9996 2.88932 5.04885 2.70359 5.14295 2.53984C5.23705 2.3761 5.37259 2.23992 5.53602 2.14518C5.69937 2.05044 5.88486 2.00032 6.07371 2H7.79156C7.9804 2.0004 8.1659 2.05044 8.32925 2.14518C8.49259 2.24 8.62813 2.3761 8.72223 2.53984C8.81634 2.70366 8.86558 2.88932 8.86518 3.07817V20.9218C8.86558 21.1107 8.81634 21.2963 8.72223 21.4602C8.62813 21.6239 8.49259 21.76 8.32925 21.8548C8.1659 21.9496 7.9804 21.9996 7.79156 22Z" fill="white"/>
</svg>
