<svg width="24" height="24" viewBox="0 0 24 24" fill="none" xmlns="http://www.w3.org/2000/svg">
<path fill-rule="evenodd" clip-rule="evenodd" d="M11.7471 1C10.7398 1 9.89576 1.69904 9.67406 2.63832C5.28381 3.60899 2 7.52295 2 12.2036C2 14.1575 2.57221 15.9777 3.55826 17.5061C3.3344 17.8431 3.20399 18.2475 3.20399 18.6824C3.20399 19.8583 4.15758 20.8115 5.33388 20.8115C5.77066 20.8115 6.17673 20.6801 6.51468 20.4546C8.03962 21.4328 9.8535 22 11.7999 22C16.5075 22 20.4397 18.6819 21.3841 14.2577C22.3121 14.0279 23 13.1897 23 12.191C23 11.1902 22.3093 10.3507 21.3783 10.1228C20.5642 6.36021 17.5878 3.40246 13.8143 2.61435C13.584 1.68717 12.7458 1 11.7471 1ZM10.6389 13.3838C11.7266 11.3785 12.5941 8.68326 12.5123 5.11674C13.0311 4.917 13.452 4.5201 13.6831 4.01787C16.7897 4.72913 19.2396 7.16219 19.9741 10.2589C19.4462 10.5039 19.0355 10.9588 18.8493 11.5164C15.5003 11.3798 12.7499 12.2607 10.6389 13.3838ZM7.36187 19.3349C8.64966 20.1375 10.1706 20.6011 11.7999 20.6011C15.7779 20.6011 19.11 17.8372 19.9794 14.1256C19.4704 13.891 19.0697 13.4616 18.8731 12.933C13.2589 12.6745 9.46727 15.5546 7.73109 17.2346C7.69679 17.2704 7.66347 17.3051 7.63121 17.3387L7.63037 17.3395C7.476 17.5002 7.34583 17.6357 7.24735 17.7461C7.38595 18.0287 7.46378 18.3464 7.46378 18.6824C7.46378 18.91 7.42804 19.1293 7.36187 19.3349ZM6.21679 16.7442C6.34644 16.6004 6.49666 16.4436 6.66261 16.2703C7.32547 15.5783 8.23926 14.6243 9.09468 13.1938C10.1961 11.3517 11.159 8.75751 11.0765 5.15061C10.5222 4.96696 10.0689 4.56189 9.8215 4.04026C6.13668 4.92948 3.39936 8.24698 3.39936 12.2036C3.39936 13.8393 3.86719 15.3658 4.67638 16.6566C4.88346 16.5895 5.10443 16.5532 5.33388 16.5532C5.64883 16.5532 5.9478 16.6215 6.21679 16.7442Z" fill="white"/>
</svg>
