<svg width="24" height="24" viewBox="0 0 24 24" fill="none" xmlns="http://www.w3.org/2000/svg">
<path d="M12 2C9.34784 2 6.8043 3.05357 4.92893 4.92893C3.05357 6.8043 2 9.34784 2 12C2 14.6522 3.05357 17.1957 4.92893 19.0711C6.8043 20.9464 9.34784 22 12 22C14.6522 22 17.1957 20.9464 19.0711 19.0711C20.9464 17.1957 22 14.6522 22 12C22 9.34784 20.9464 6.8043 19.0711 4.92893C17.1957 3.05357 14.6522 2 12 2V2ZM11.9659 4.70721C12.2747 4.70753 12.5746 4.81114 12.8177 5.00156C13.0608 5.19197 13.2332 5.45825 13.3075 5.75799C13.5055 5.79948 13.7005 5.84908 13.8913 5.90856C14.0906 5.97065 14.2857 6.04222 14.476 6.12287C14.6664 6.20351 14.8521 6.29322 15.0325 6.39134C15.2129 6.48946 15.388 6.59606 15.5574 6.71058C15.7267 6.8251 15.8905 6.94757 16.0478 7.07741C16.205 7.20726 16.3559 7.34436 16.5 7.48846C16.6441 7.63256 16.7814 7.7836 16.9112 7.94087C17.0411 8.09815 17.1635 8.26173 17.2781 8.43111C17.3926 8.60048 17.4992 8.77556 17.5973 8.95597C17.6954 9.13637 17.7851 9.32207 17.8658 9.51243C17.9464 9.70279 18.018 9.89789 18.0801 10.0971C18.1351 10.2737 18.1796 10.4545 18.2193 10.6373C18.5204 10.7104 18.7882 10.8825 18.9799 11.126C19.1715 11.3695 19.2759 11.6703 19.2763 11.9801C19.2759 12.2892 19.1721 12.5893 18.9813 12.8326C18.7906 13.0758 18.5239 13.2481 18.2237 13.3221C18.1833 13.5108 18.1369 13.6973 18.0801 13.8794C18.018 14.0787 17.9464 14.2738 17.8658 14.4641C17.7851 14.6545 17.6954 14.8402 17.5973 15.0206C17.4992 15.201 17.3926 15.3761 17.2781 15.5455C17.1635 15.7148 17.0411 15.8784 16.9112 16.0357C16.7814 16.193 16.6441 16.344 16.5 16.4881C16.3559 16.6322 16.205 16.7693 16.0478 16.8991C15.8905 17.029 15.7267 17.1515 15.5574 17.266C15.388 17.3805 15.2129 17.4871 15.0325 17.5852C14.8521 17.6833 14.6664 17.773 14.476 17.8537C14.2857 17.9343 14.0906 18.0059 13.8913 18.068C13.6921 18.1301 13.4888 18.1827 13.2818 18.2251C13.0747 18.2676 12.864 18.3001 12.6502 18.3219C12.4364 18.3437 12.2196 18.3548 12.0002 18.3548C11.7808 18.3548 11.5639 18.3437 11.3501 18.3219C11.1364 18.3001 10.9256 18.2676 10.7186 18.2251C10.5115 18.1827 10.3083 18.1301 10.109 18.068C9.90979 18.0059 9.71468 17.9343 9.52433 17.8537C9.33397 17.773 9.14827 17.6833 8.96786 17.5852C8.83201 17.5113 8.70229 17.4281 8.57262 17.3448C8.34434 17.4992 8.07514 17.582 7.79954 17.5824C7.61783 17.5824 7.4379 17.5466 7.27002 17.4771C7.10214 17.4075 6.9496 17.3056 6.82111 17.1771C6.69262 17.0486 6.5907 16.8961 6.52116 16.7282C6.45163 16.5603 6.41584 16.3804 6.41584 16.1987C6.41605 15.9241 6.49794 15.6558 6.6511 15.4279C6.56499 15.2945 6.47939 15.1606 6.40323 15.0206C6.30511 14.8402 6.21541 14.6545 6.13477 14.4641C6.05412 14.2738 5.98255 14.0787 5.92045 13.8794C5.85836 13.6802 5.80579 13.4769 5.76332 13.2699C5.72085 13.0628 5.68832 12.8521 5.66655 12.6383C5.64478 12.4246 5.6337 12.2077 5.6337 11.9883C5.6337 11.7689 5.64478 11.552 5.66655 11.3382C5.68832 11.1245 5.72085 10.9137 5.76332 10.7067C5.80579 10.4996 5.85836 10.2964 5.92045 10.0971C5.98255 9.89789 6.05412 9.70279 6.13477 9.51243C6.21541 9.32207 6.30511 9.13637 6.40323 8.95597C6.50135 8.77556 6.60796 8.60048 6.72248 8.43111C6.837 8.26173 6.95947 8.09815 7.08931 7.94087C7.21916 7.7836 7.35626 7.63256 7.50036 7.48846C7.64445 7.34436 7.7955 7.20726 7.95277 7.07741C8.11004 6.94757 8.27363 6.8251 8.443 6.71058C8.61238 6.59606 8.78746 6.48946 8.96786 6.39134C9.14827 6.29322 9.33397 6.20351 9.52433 6.12287C9.71468 6.04222 9.90979 5.97065 10.109 5.90856C10.2759 5.85653 10.4472 5.81512 10.6197 5.77681C10.6905 5.47281 10.8621 5.2017 11.1065 5.00752C11.3509 4.81334 11.6538 4.70751 11.9659 4.70721V4.70721ZM13.22 6.67188C13.0688 6.99727 12.7972 7.25121 12.4624 7.38015C12.4695 7.6911 12.4661 7.99263 12.4521 8.28391C12.4377 8.58074 12.4129 8.8675 12.3789 9.14435C12.345 9.42121 12.302 9.68816 12.2509 9.94549C12.1998 10.2028 12.1408 10.4505 12.0751 10.6887C12.0094 10.927 11.9369 11.1559 11.859 11.3755C11.7811 11.5952 11.6977 11.8056 11.6101 12.0071C11.4857 12.2932 11.3458 12.5397 11.2079 12.7903C11.4446 12.6627 11.6794 12.5338 11.9409 12.418C12.3026 12.2578 12.688 12.1114 13.0966 11.9858C13.5052 11.8602 13.9369 11.7554 14.3917 11.6783C14.6191 11.6397 14.8521 11.608 15.0909 11.5842C15.3297 11.5604 15.5742 11.5444 15.8242 11.5371C16.0707 11.5299 16.324 11.5334 16.5813 11.5439C16.6406 11.3659 16.7355 11.2019 16.8601 11.0617C16.9848 10.9215 17.1366 10.8082 17.3065 10.7285C17.2776 10.6059 17.2499 10.4827 17.2129 10.3635C17.1598 10.1925 17.0986 10.025 17.0297 9.86168C16.9607 9.69839 16.884 9.53926 16.8001 9.38459C16.7162 9.22992 16.625 9.0798 16.527 8.93466C16.429 8.78952 16.3244 8.64927 16.2132 8.51456C16.1021 8.37985 15.9847 8.25067 15.8613 8.12731C15.738 8.00394 15.6086 7.88651 15.4739 7.77539C15.3392 7.66427 15.1989 7.55943 15.0538 7.46147C14.9087 7.36351 14.7585 7.27247 14.6039 7.18857C14.4492 7.10466 14.2901 7.02792 14.1268 6.95898C13.9635 6.89005 13.796 6.82881 13.625 6.77575C13.4927 6.73469 13.3564 6.70295 13.22 6.67188ZM10.7189 6.68768C10.6037 6.71534 10.4876 6.74092 10.3754 6.77575C10.2043 6.82881 10.0369 6.89005 9.87358 6.95898C9.71029 7.02792 9.55115 7.10466 9.39648 7.18857C9.24182 7.27247 9.0917 7.36351 8.94656 7.46147C8.80141 7.55943 8.66116 7.66427 8.52646 7.77539C8.39175 7.88651 8.26257 8.00394 8.1392 8.12731C8.01584 8.25067 7.8984 8.37985 7.78729 8.51456C7.67617 8.64927 7.57133 8.78952 7.47337 8.93466C7.3754 9.0798 7.28436 9.22992 7.20046 9.38459C7.11656 9.53926 7.03981 9.69839 6.97088 9.86168C6.90195 10.025 6.8407 10.1925 6.78764 10.3635C6.73458 10.5345 6.68969 10.7091 6.65341 10.8869C6.61713 11.0647 6.58944 11.2456 6.57085 11.4293C6.55225 11.6131 6.54279 11.7996 6.54279 11.9883C6.54279 12.177 6.55225 12.3635 6.57085 12.5472C6.58944 12.7309 6.61713 12.9119 6.65341 13.0897C6.68969 13.2675 6.73458 13.4421 6.78764 13.6131C6.8407 13.7841 6.90195 13.9516 6.97088 14.1149C7.03981 14.2782 7.11656 14.4373 7.20046 14.592C7.2547 14.692 7.31677 14.7867 7.37695 14.8828C7.51344 14.8384 7.65601 14.8155 7.79954 14.815C7.99791 14.8155 8.19386 14.8586 8.37411 14.9414C8.57946 14.7112 8.84672 14.4475 9.16211 14.0927C9.33264 13.9008 9.51267 13.6863 9.69514 13.4444C9.8776 13.2025 10.0625 12.9332 10.2427 12.6317C10.4229 12.3303 10.5971 11.9992 10.756 11.6353C10.8355 11.4534 10.9111 11.2632 10.9819 11.0645C11.0526 10.8657 11.1185 10.6584 11.1783 10.4419C11.238 10.2255 11.2915 10.0001 11.3379 9.76527C11.3843 9.5304 11.4235 9.28611 11.4544 9.03196C11.4852 8.77781 11.5076 8.51376 11.5206 8.23952C11.5333 7.9707 11.5363 7.69143 11.5297 7.40252C11.3535 7.34387 11.1909 7.25035 11.0516 7.12754C10.9123 7.00473 10.7992 6.85514 10.7189 6.68768ZM16.2193 12.4521C16.0946 12.451 15.9715 12.4522 15.8498 12.4558C15.6054 12.463 15.3669 12.4792 15.1344 12.5036C14.9019 12.5279 14.6753 12.5604 14.4547 12.6C14.2342 12.6395 14.0197 12.686 13.8113 12.7388C13.3944 12.8444 13.0017 12.9747 12.6337 13.1216C12.2657 13.2686 11.9224 13.4324 11.604 13.6051C11.2857 13.7778 10.9925 13.9595 10.7246 14.1424C10.4567 14.3253 10.2143 14.5095 9.99769 14.687C9.78106 14.8645 9.59023 15.0354 9.4256 15.1919C9.36356 15.2509 9.32375 15.2951 9.26918 15.3496C9.20533 15.4163 9.08615 15.5427 9.04226 15.5925C9.13467 15.7812 9.18289 15.9885 9.18324 16.1987C9.18306 16.3413 9.16084 16.483 9.11737 16.6188C9.2097 16.6763 9.30055 16.736 9.39648 16.788C9.55115 16.8719 9.71029 16.9486 9.87358 17.0176C10.0369 17.0865 10.2043 17.1478 10.3754 17.2008C10.5464 17.2539 10.721 17.2988 10.8988 17.3351C11.0766 17.3713 11.2575 17.399 11.4412 17.4176C11.6249 17.4362 11.8115 17.4457 12.0002 17.4457C12.1889 17.4457 12.3754 17.4362 12.5591 17.4176C12.7428 17.399 12.9237 17.3713 13.1016 17.3351C13.2794 17.2988 13.454 17.2539 13.625 17.2008C13.796 17.1478 13.9635 17.0865 14.1268 17.0176C14.2901 16.9486 14.4492 16.8719 14.6039 16.788C14.7585 16.7041 14.9087 16.6131 15.0538 16.5151C15.1989 16.4171 15.3392 16.3123 15.4739 16.2012C15.6086 16.0901 15.738 15.9726 15.8613 15.8493C15.9847 15.7259 16.1021 15.5967 16.2132 15.462C16.3244 15.3273 16.429 15.187 16.527 15.0419C16.625 14.8968 16.7162 14.7466 16.8001 14.592C16.884 14.4373 16.9607 14.2782 17.0297 14.1149C17.0986 13.9516 17.1598 13.7841 17.2129 13.6131C17.2514 13.4891 17.2805 13.3612 17.3102 13.2335C16.9806 13.0801 16.7247 12.8031 16.5977 12.4625C16.4701 12.4566 16.3439 12.4532 16.2193 12.4521Z" fill="white"/>
</svg>
