<svg width="24" height="24" viewBox="0 0 24 24" fill="none" xmlns="http://www.w3.org/2000/svg">
<path fill-rule="evenodd" clip-rule="evenodd" d="M21.2388 15.8268C21.7413 14.6136 22 13.3132 22 12H12L2 12C2 13.3132 2.25866 14.6136 2.7612 15.8268C3.26375 17.0401 4.00035 18.1425 4.92893 19.0711C5.85752 19.9997 6.95991 20.7362 8.17317 21.2388C9.38642 21.7413 10.6868 22 12 22C13.3132 22 14.6136 21.7413 15.8268 21.2388C17.0401 20.7362 18.1425 19.9997 19.0711 19.0711C19.9997 18.1425 20.7362 17.0401 21.2388 15.8268ZM14 12H10V17H14V12Z" fill="#FFF1C0"/>
<path d="M5 10.9967V9.99667C5 8.79667 5.27067 7.70067 5.812 6.70867C6.354 5.71734 7.08333 4.90501 8 4.27167L6.125 2.39667L7 1.49667L9.125 3.62167C9.55833 3.42167 10.0207 3.26734 10.512 3.15867C11.004 3.05067 11.5 2.99667 12 2.99667C12.5 2.99667 12.996 3.05067 13.488 3.15867C13.9793 3.26734 14.4417 3.42167 14.875 3.62167L17 1.49667L17.875 2.39667L16 4.27167C16.9167 4.90501 17.646 5.71734 18.188 6.70867C18.7293 7.70067 19 8.79667 19 9.99667V10.9967H5ZM15 8.99667C15.2833 8.99667 15.521 8.90067 15.713 8.70867C15.9043 8.51734 16 8.28001 16 7.99667C16 7.71334 15.9043 7.47567 15.713 7.28367C15.521 7.09234 15.2833 6.99667 15 6.99667C14.7167 6.99667 14.4793 7.09234 14.288 7.28367C14.096 7.47567 14 7.71334 14 7.99667C14 8.28001 14.096 8.51734 14.288 8.70867C14.4793 8.90067 14.7167 8.99667 15 8.99667ZM9 8.99667C9.28333 8.99667 9.521 8.90067 9.713 8.70867C9.90433 8.51734 10 8.28001 10 7.99667C10 7.71334 9.90433 7.47567 9.713 7.28367C9.521 7.09234 9.28333 6.99667 9 6.99667C8.71667 6.99667 8.47933 7.09234 8.288 7.28367C8.096 7.47567 8 7.71334 8 7.99667C8 8.28001 8.096 8.51734 8.288 8.70867C8.47933 8.90067 8.71667 8.99667 9 8.99667Z" fill="#FFF1C0"/>
</svg>
