<svg xmlns="http://www.w3.org/2000/svg" data-name="Layer 1" viewBox="0 0 192 192"><path d="M170.8005 83.6501a6.0028366 6.0028366 0 1 0-6.00284 6.015858 5.9898152 5.9898152 0 0 0 6.00284-6.015858zm-28.13911-34.923227-9.11494 91.696257c2.04435.24741 5.20854 0 5.76846-3.22929.87243-4.92207 8.39876-81.695871 8.39876-81.695871s1.38026-3.619932-5.11739-6.771096zm21.0555 47.619031s-5.20853 1.523497-11.97963 2.682396l-4.23193 40.76981s-.57294 8.68523-6.9534 8.68523h-7.73467l-.0911.88545s-.96358 5.9768-6.17211 6.75808c-5.20854.78128-106.032752 0-106.032752 0s-4.257978-.78128-4.440276-4.76581c-.182299-3.98453 0-86.136152 0-86.136152a8.6201254 8.6201254 0 0 1 7.330963-6.054922c2.317798-.299491 19.792432-3.177207 40.366146-6.601818l6.875266-13.021338a7.8128025 7.8128025 0 0 1 13.43802-.377619 7.5133117 7.5133117 0 0 0-4.896023-2.395926h-.703152a7.6435251 7.6435251 0 0 0-6.771096 4.062657L21.068144 137.03759a7.6435251 7.6435251 0 0 0 13.516148 7.12267l36.459745-69.247477V132.1025a7.5653971 7.5653971 0 0 0 7.552376 7.53935c4.700702 0 7.812802-5.87262 8.073229-6.4065L106.7225 94.54896v33.46484a7.5393555 7.5393555 0 0 0 15.07871 0V63.545155a7.526333 7.526333 0 0 0-14.53181-2.786566l-.11719.182299-19.675245 37.983241-4.830916 10.156641 3.489718-12.617674V48.831044c25.951523-4.336106 50.067043-8.398763 50.067043-8.398763s6.38045-1.549539 6.77109 5.208535l-.28647 2.851673c2.18759-.468768 12.50049-2.252691 13.20364 6.510669l-1.44537 20.83414s1.7709 1.302133 9.46651-1.718817c0 0 10.82073-4.297041 11.97963 6.432541 0 0 2.09644 10.990009-12.17495 15.859989zm4.42726-12.65674a3.3464837 3.3464837 0 1 1-3.34649-3.346484 3.3464837 3.3464837 0 0 1 3.34649 3.30742z"/></svg>