<svg width="24" height="24" viewBox="0 0 24 24" fill="none" xmlns="http://www.w3.org/2000/svg">
<path fill-rule="evenodd" clip-rule="evenodd" d="M12 22C17.5228 22 22 17.5228 22 12C22 10.2316 21.541 8.57045 20.7356 7.12914C20.6797 7.08403 20.6241 7.03886 20.5687 6.99386C20.5044 6.9416 20.4397 6.88908 20.3758 6.83757C19.6485 6.25143 18.5966 5.77402 17.7172 5.44711C17.1242 5.22666 16.5885 5.03994 16.2797 5.00754C16.1985 4.99876 16.1331 4.99718 16.0817 5.00531C15.9272 5.02971 15.8932 5.14539 15.8959 5.44711C15.902 6.00065 16.1167 7.93175 16.4212 9.50951C16.5164 10.0046 16.5358 10.2123 16.4991 10.2805C16.4857 10.3053 16.3958 10.3388 16.2716 10.3851C16.1419 10.4334 15.9748 10.4957 15.8185 10.5765C14.6606 11.1776 14.2729 11.505 13.4406 12.241C13.325 12.3431 13.242 12.4215 13.1785 12.4814C13.0091 12.6411 12.9786 12.67 12.8412 12.669C12.7811 12.635 12.7077 12.5924 12.6106 12.5361C12.3589 12.39 11.948 12.1517 11.1986 11.7315C9.80929 10.9517 9.08407 10.5582 8.54887 10.5085C8.21558 10.4776 8.12223 10.6732 8.08075 10.8073C8.00826 11.0539 7.97416 12.5069 8.02258 13.4943C8.10893 15.2551 8.15133 15.4577 8.76582 17.0769C9.13758 18.0573 9.1446 18.0877 9.30358 19.1441C9.33513 19.3534 9.3653 19.5807 9.39798 19.827C9.46968 20.3673 9.5535 20.9988 9.69062 21.732C10.4319 21.9073 11.2051 22 12 22ZM18.4878 12.0288C18.8591 12.029 19.0723 12.1455 19.3211 12.4802C19.5929 12.8879 19.5005 13.6091 19.2169 13.7997C18.813 14.0712 18.2513 14.0451 17.8628 13.5219C17.557 13.0463 17.7239 12.3589 18.0017 12.1677C18.1406 12.0721 18.3555 12.0287 18.4878 12.0288ZM12.8628 16.2302C13.2347 16.2298 13.6205 16.4157 13.8697 16.7511C14.1475 17.1677 14.2264 17.9002 13.7689 18.2155C13.3121 18.5315 12.5719 18.4356 12.2804 17.8528C11.9747 17.2413 12.1005 16.6179 12.4114 16.4038C12.52 16.3291 12.7269 16.2302 12.8628 16.2302Z" fill="#FFF1C0"/>
</svg>
