<?xml version="1.0" encoding="UTF-8" standalone="no"?>
<svg
   width="24"
   height="24"
   viewBox="0 0 24 24"
   fill="none"
   version="1.1"
   id="svg8"
   sodipodi:docname="notes.svg"
   inkscape:version="1.2.1 (9c6d41e410, 2022-07-14)"
   xmlns:inkscape="http://www.inkscape.org/namespaces/inkscape"
   xmlns:sodipodi="http://sodipodi.sourceforge.net/DTD/sodipodi-0.dtd"
   xmlns="http://www.w3.org/2000/svg"
   xmlns:svg="http://www.w3.org/2000/svg">
  <defs
     id="defs12" />
  <sodipodi:namedview
     id="namedview10"
     pagecolor="#505050"
     bordercolor="#ffffff"
     borderopacity="1"
     inkscape:showpageshadow="0"
     inkscape:pageopacity="0"
     inkscape:pagecheckerboard="1"
     inkscape:deskcolor="#505050"
     showgrid="false"
     inkscape:zoom="90.509668"
     inkscape:cx="5.794961"
     inkscape:cy="16.76064"
     inkscape:window-width="1920"
     inkscape:window-height="1012"
     inkscape:window-x="0"
     inkscape:window-y="0"
     inkscape:window-maximized="1"
     inkscape:current-layer="svg8"
     showguides="false" />
  <path
     d="M 21,19 V 4.9999999 c 0,-1.1 -0.9,-2 -2,-2 H 5.0000001 C 3.9,2.9999999 3,3.8999999 3,4.9999999 V 19 c 0,1.1 0.9,2 2.0000001,2 H 19 c 1.1,0 2,-0.9 2,-2 z M 20.7,5 c 0,-1.1 -0.9,-1.7 -2,-1.7 H 5.3000001 c -1.1,0 -2,0.6 -2,1.7 L 3.3,7 H 20.7 Z M 4.022,8.6880001 H 19.978171 V 8.912 H 4.022 Z M 4.0218291,10.688 H 19.978171 v 0.224 H 4.022 Z m 1e-7,2 H 19.978171 v 0.224 H 4.0220001 Z m -2e-7,2 h 15.956342 v 0.224 H 4.0219999 Z m 0,2 h 15.956342 v 0.224 H 4.0219998 Z m 10e-8,2 H 19.978171 v 0.224 H 4.022 Z"
     style="display:inline;fill:#000000;fill-opacity:1;fill-rule:evenodd;stroke:none;stroke-width:0.1;stroke-dasharray:none;stroke-opacity:1"
     id="path1137"
     sodipodi:nodetypes="ssssssssscsscccccccccccccccccccccccccccccccccc"
     inkscape:label="path1" />
</svg>
