<svg width="24" height="24" viewBox="0 0 24 24" fill="none" xmlns="http://www.w3.org/2000/svg">
<path d="M20.5378 6.58847C19.7673 5.93535 18.8728 5.47817 17.9074 5.23559C17.3583 5.09563 16.8003 5.03032 16.2335 5.01166C15.8172 4.993 15.3921 5.00233 14.9758 5.00233H9.0153C8.59903 5.00233 8.17392 5.00233 7.75765 5.01166C7.19082 5.03032 6.64171 5.09563 6.08374 5.23559C5.11836 5.47817 4.23269 5.93535 3.46216 6.58847C1.90339 7.90403 1 9.89137 1 12C1 14.1086 1.90339 16.096 3.46216 17.4115C4.23269 18.0646 5.12721 18.5218 6.09259 18.7644C6.64171 18.9044 7.19968 18.9697 7.76651 18.9883C8.18277 19.007 8.60789 18.9977 9.02416 18.9977H14.9847C15.401 18.9977 15.8261 18.9977 16.2424 18.9883C16.8092 18.9697 17.3583 18.9044 17.9163 18.7644C18.8816 18.5218 19.7673 18.0646 20.5378 17.4115C22.0966 16.096 23 14.1086 23 12C23 9.89137 22.0966 7.90403 20.5378 6.58847ZM17.624 13.8847C17.3317 14.0993 17.004 14.2299 16.6586 14.2859C16.3132 14.3419 15.9589 14.3326 15.6135 14.3326H8.39533C8.04106 14.3326 7.69565 14.3419 7.35024 14.2859C6.99597 14.2299 6.67714 14.0993 6.38487 13.8847C5.80033 13.4555 5.44606 12.7557 5.44606 12C5.44606 11.2443 5.80033 10.5445 6.38487 10.1153C6.67714 9.9007 7.00483 9.77008 7.35024 9.71409C7.69565 9.65811 8.04992 9.66744 8.39533 9.66744H15.6135C15.9678 9.66744 16.3132 9.65811 16.6586 9.71409C17.0129 9.77008 17.3317 9.9007 17.624 10.1153C18.2085 10.5445 18.5628 11.2443 18.5628 12C18.5717 12.7557 18.2174 13.4555 17.624 13.8847Z" fill="white"/>
</svg>
