<svg
    xmlns="http://www.w3.org/2000/svg"
    viewBox="0 0 24 24"
    id="vector">
    <path
        id="path"
        d="M 4 3 L 20 3 C 20.265 3 20.52 3.105 20.707 3.293 C 20.895 3.48 21 3.735 21 4 L 21 20 C 21 20.265 20.895 20.52 20.707 20.707 C 20.52 20.895 20.265 21 20 21 L 4 21 C 3.735 21 3.48 20.895 3.293 20.707 C 3.105 20.52 3 20.265 3 20 L 3 4 C 3 3.735 3.105 3.48 3.293 3.293 C 3.48 3.105 3.735 3 4 3"
        fill="none"
        stroke="#000000"
        stroke-width="2"/>
    <path
        id="path_1"
        d="M 11.5 10.81 L 11.5 4 L 3.5 4 L 3.33 20 L 11.5 10.81 Z M 12.5 12.234 L 12.5 20 L 19.33 20 L 12.5 12.234 Z"
        fill="#000000"
        stroke="#000000"
        stroke-width="1"/>
</svg>
