<?xml version="1.0" encoding="UTF-8" standalone="no"?>
<svg
   width="24"
   height="24"
   viewBox="0 0 24 24"
   fill="none"
   version="1.1"
   id="svg12"
   sodipodi:docname="organic_maps.svg"
   xml:space="preserve"
   inkscape:version="1.2.1 (9c6d41e410, 2022-07-14, custom)"
   xmlns:inkscape="http://www.inkscape.org/namespaces/inkscape"
   xmlns:sodipodi="http://sodipodi.sourceforge.net/DTD/sodipodi-0.dtd"
   xmlns="http://www.w3.org/2000/svg"
   xmlns:svg="http://www.w3.org/2000/svg"><defs
     id="defs16" /><sodipodi:namedview
     id="namedview14"
     pagecolor="#505050"
     bordercolor="#ffffff"
     borderopacity="1"
     inkscape:showpageshadow="0"
     inkscape:pageopacity="0"
     inkscape:pagecheckerboard="1"
     inkscape:deskcolor="#505050"
     showgrid="false"
     inkscape:zoom="32"
     inkscape:cx="7.171875"
     inkscape:cy="11.46875"
     inkscape:window-width="1920"
     inkscape:window-height="1020"
     inkscape:window-x="0"
     inkscape:window-y="28"
     inkscape:window-maximized="1"
     inkscape:current-layer="svg12" /><path
     fill-rule="evenodd"
     clip-rule="evenodd"
     d="M 4.6114912,10.570896 C 1.6367428,13.959944 3.2551182,14.833304 5.9702324,14.058353 8.1498698,18.069412 11.985234,22 11.985234,22 c 0,0 7.484495,-7.671009 7.484495,-12.515345 -0.983087,1.24423 -6.390386,3.955526 -9.019706,4.252526 2.37507,0.312152 5.256196,-1.270567 6.513834,-2.038009 -0.09557,3.629523 -4.97013,4.711382 -8.3435122,2.192199 2.8286382,-1.605623 3.3558882,-5.169126 7.8983872,-3.393758 0.261055,-0.02793 1.437444,-0.432935 2.898544,-1.985516 C 22.153343,5.6047242 21.044417,3.9956197 18.071336,5.0584359 16.246558,2.6722987 13.149122,2 11.985234,2 10.291161,2 4.5007386,3.4139417 4.5007386,9.484655 c 0,0.13789 0.048155,0.151733 0.048155,0.151733 C 6.4116545,7.9775689 12.053849,5.1345878 13.500617,5.0098489 11.98464,4.9912206 8.5223028,6.0985834 7.2222203,7.0546347 7.4061717,3.4420551 11.860709,2.4414906 15.622192,4.8208106 14.059665,5.312912 12.30085,10.276689 7.6046655,8.365148 7.1731827,8.551619 6.6946945,8.783646 4.6114912,10.570896 Z m 0.1663049,0.897316 C 3.14195,13.306071 3.9307315,14.005539 5.5539443,13.328107 5.2185571,12.786267 4.9312373,12.195448 4.7777961,11.468212 Z M 19.321667,7.5867247 c 1.635846,-1.8378597 0.847065,-2.5373275 -0.776148,-1.8598948 0.335388,0.5418394 0.622708,1.1326582 0.776148,1.8598948 z"
     fill="#fff1c0"
     id="path2"
     style="display:inline;fill:#fff1c0;fill-opacity:1;stroke-width:1.22697"
     sodipodi:nodetypes="ccccccccscsscccccccccccc" /></svg>
