<?xml version="1.0" encoding="UTF-8" standalone="no"?>
<svg
   width="24"
   height="24"
   viewBox="0 0 24 24"
   fill="none"
   version="1.1"
   id="svg8"
   sodipodi:docname="pdf_viewer.svg"
   inkscape:version="1.2.1 (9c6d41e410, 2022-07-14, custom)"
   xml:space="preserve"
   xmlns:inkscape="http://www.inkscape.org/namespaces/inkscape"
   xmlns:sodipodi="http://sodipodi.sourceforge.net/DTD/sodipodi-0.dtd"
   xmlns="http://www.w3.org/2000/svg"
   xmlns:svg="http://www.w3.org/2000/svg"><defs
     id="defs12" /><sodipodi:namedview
     id="namedview10"
     pagecolor="#ffffff"
     bordercolor="#666666"
     borderopacity="1.0"
     inkscape:pageshadow="2"
     inkscape:pageopacity="0.0"
     inkscape:pagecheckerboard="true"
     showgrid="true"
     inkscape:lockguides="true"
     inkscape:zoom="32"
     inkscape:cx="19.8125"
     inkscape:cy="12.96875"
     inkscape:window-width="1920"
     inkscape:window-height="1020"
     inkscape:window-x="0"
     inkscape:window-y="28"
     inkscape:window-maximized="1"
     inkscape:current-layer="svg8"
     inkscape:showpageshadow="0"
     inkscape:deskcolor="#d1d1d1"><inkscape:grid
       type="xygrid"
       id="grid829"
       empspacing="1" /></sodipodi:namedview><path
     style="display:inline;fill:#000000;fill-opacity:1;stroke-width:0.755906"
     d="M 7.5,3 H 20 c 0.471405,0 1,0.5285955 1,1 v 12.5 c 0,0.471405 -0.528595,1 -1,1 H 7.5 c -0.4714045,0 -1,-0.528595 -1,-1 V 4 c 0,-0.4714045 0.5285955,-1 1,-1 z M 4,21 H 17.5 V 19 H 5 V 6.5 H 3 V 20 c 0,0.471404 0.5285955,1 1,1 z m 6.75,-9.85 c 0.330824,0 0.75,-0.319176 0.75,-0.65 V 8.25 C 11.5,7.9191761 11.080824,7.6 10.75,7.6 H 8 V 13 H 9.345 V 11.15 Z M 9.4,9 v 0.8 h 0.8 V 9 Z m 5.85,4 C 15.580824,13 16,12.680824 16,12.35 V 8.25 C 16,7.9191761 15.580824,7.6 15.25,7.6 H 12.5 V 13 Z m 4.5,-1.85 V 9.8 H 18.4 V 9 h 1.35 V 7.5999998 H 17 V 13 h 1.345 V 11.15 Z M 13.9,9 v 2.5 h 0.8 V 9 Z"
     id="path360"
     sodipodi:nodetypes="sssssssssccccccccssssccccsccccccsscccccccccccccccccccc" /></svg>
