<svg width="24" height="24" viewBox="0 0 24 24" fill="none" xmlns="http://www.w3.org/2000/svg">
<path d="M8 13V14H9V13H8Z" fill="#FFF1C0"/>
<path d="M12 13V16H13V13H12Z" fill="#FFF1C0"/>
<path fill-rule="evenodd" clip-rule="evenodd" d="M4.588 21.413C4.97933 21.8043 5.45 22 6 22H18C18.55 22 19.021 21.8043 19.413 21.413C19.8043 21.021 20 20.55 20 20V8L14 2H6C5.45 2 4.97933 2.19567 4.588 2.587C4.196 2.979 4 3.45 4 4V20C4 20.55 4.196 21.021 4.588 21.413ZM18 9H13V4L18 9ZM8 17H7V12H9C9.28333 12 9.521 12.0957 9.713 12.287C9.90433 12.479 10 12.7167 10 13V14C10 14.2833 9.90433 14.5207 9.713 14.712C9.521 14.904 9.28333 15 9 15H8V17ZM13.713 16.712C13.521 16.904 13.2833 17 13 17H11V12H13C13.2833 12 13.521 12.0957 13.713 12.287C13.9043 12.479 14 12.7167 14 13V16C14 16.2833 13.9043 16.5207 13.713 16.712ZM16 17H15V12H17V13H16V14H17V15H16V17Z" fill="#FFF1C0"/>
</svg>
