<?xml version="1.0" encoding="UTF-8" standalone="no"?>
<!-- Created with Inkscape (http://www.inkscape.org/) -->

<svg
   width="793.70074"
   height="1122.5197"
   viewBox="0 0 209.99998 297"
   version="1.1"
   id="svg227"
   xmlns="http://www.w3.org/2000/svg"
   xmlns:svg="http://www.w3.org/2000/svg">
  <defs
     id="defs224" />
  <g
     id="layer1">
    <path
       d="m 78.788164,132.61534 c -2.807035,-0.14863 -5.460399,-1.67237 -6.789327,-4.88182 -1.328979,-3.14605 -0.813549,-6.21074 1.690481,-8.69684 l 11.499376,-11.20103 c 1.283704,-1.17983 1.43285,-1.88494 0.10765,-3.15059 L 67.586195,87.445061 c -1.32898,-1.328989 -2.056681,-1.071358 -3.231937,0.107649 l -11.47677,11.201054 c -4.90441,4.474966 -12.462168,2.142556 -13.791113,-4.217362 a 7.0515013,7.0515013 0 0 1 1.993418,-6.766721 L 60.222804,69.096734 a 7.6843284,7.6843284 0 0 1 10.880104,0.04099 L 104.14552,101.3441 c 3.06017,2.99689 3.06017,7.47187 0.0409,10.53658 l -19.14303,18.67291 c -1.500675,1.45556 -3.448906,2.11997 -6.251431,2.05668 z M 126.17335,45.872837 c -0.10765,8.244833 -2.24653,15.933694 -6.8933,22.741097 -1.2837,1.884916 -0.96286,2.807035 0.55592,4.113377 2.24654,1.925596 4.28061,4.11338 6.38252,6.210738 3.27713,3.363028 3.38563,7.946502 0.36612,11.201048 -2.97883,3.105376 -8.07307,3.552859 -11.28694,0.601192 L 100.52116,76.329925 c -3.105365,-3.19126 -2.698554,-7.729539 0.7729,-11.133241 a 27.392371,27.392371 0 0 0 8.26743,-16.191322 c 1.9934,-14.283823 -9.03587,-28.287378 -23.536644,-29.851368 -9.402018,-1.007968 -17.41179,1.672543 -24.155928,8.353317 L 21.372507,66.973116 c -2.034078,2.034096 -4.3891,3.254539 -7.304621,2.91101 C 10.790746,69.477351 8.3498411,67.804843 7.2152628,64.595492 6.0807009,61.386157 6.8491484,58.533917 9.2493577,56.201497 L 29.870477,36.113764 51.969703,14.656408 C 76.274771,-8.0214077 116.66272,3.6045409 124.88945,35.621056 a 43.122644,43.122644 0 0 1 1.2837,10.256326 z"
       fill-rule="evenodd"
       fill="#10847e"
       id="path2"
       style="fill:#000000;fill-opacity:1;stroke-width:4.52019" />
  </g>
</svg>
