<svg width="24" height="24" viewBox="0 0 24 24" fill="none" xmlns="http://www.w3.org/2000/svg">
<path d="M12.0528 3.61126C16.4712 3.61126 20.0958 7.00196 20.4633 11.3234H15.2082C14.8954 9.83731 13.5777 8.71881 11.998 8.71881C10.4184 8.71881 9.10068 9.83731 8.78788 11.3234H3.64223C4.01369 7.00196 7.63832 3.61126 12.0528 3.61126ZM13.8084 11.3234C13.8866 11.5346 13.9296 11.7614 13.9296 12H13.9335C13.9335 12.2386 13.8905 12.4654 13.8123 12.6766C13.5386 13.4118 12.8309 13.932 12.002 13.932C11.173 13.932 10.4653 13.4079 10.1916 12.6766C10.1134 12.4654 10.0704 12.2386 10.0704 12H10.0665C10.0665 11.7614 10.1095 11.5346 10.1877 11.3234C10.4614 10.5882 11.1691 10.068 11.998 10.068C12.827 10.068 13.5347 10.5921 13.8084 11.3234ZM11.9433 20.3926C7.52493 20.3926 3.90029 17.002 3.53275 12.6805H8.78788C9.10068 14.1666 10.4184 15.2851 11.998 15.2851C13.5777 15.2851 14.8954 14.1666 15.2082 12.6805H20.3578C19.9863 16.998 16.3617 20.3926 11.9433 20.3926ZM11.998 2C6.47703 2 2 6.4779 2 12C2 17.5221 6.47703 22 11.998 22C17.5191 22 22 17.526 22 12C22 6.47399 17.523 2 11.998 2Z" fill="black"/>
</svg>
