<svg width="24" height="24" viewBox="0 0 24 24" fill="none" xmlns="http://www.w3.org/2000/svg">
<path d="M12.0647 2C17.2841 2 21.5659 6.04104 22 11.1913H15.7922C15.4227 9.42021 13.8661 8.08718 12 8.08718C10.134 8.08718 8.57738 9.42021 8.20787 11.1913H2.12933C2.56813 6.04104 6.8499 2 12.0647 2ZM14.1386 11.1913C14.231 11.443 14.2818 11.7133 14.2818 11.9977H14.2864C14.2864 12.2821 14.2356 12.5524 14.1432 12.8041C13.8199 13.6803 12.9839 14.3003 12.0047 14.3003C11.0254 14.3003 10.1894 13.6756 9.86608 12.8041C9.7737 12.5524 9.7229 12.2821 9.7229 11.9977H9.7183C9.7183 11.7133 9.76909 11.443 9.86147 11.1913C10.1848 10.3151 11.0208 9.69514 12 9.69514C12.9793 9.69514 13.8153 10.3198 14.1386 11.1913ZM11.9354 22C6.71595 22 2.43417 17.9591 2 12.8087H8.20787C8.57738 14.5799 10.134 15.9129 12 15.9129C13.8661 15.9129 15.4227 14.5799 15.7922 12.8087H21.8754C21.4365 17.9543 17.1548 22 11.9354 22Z" fill="#FFF1C0"/>
</svg>
