<svg width="24" height="24" viewBox="0 0 24 24" fill="none" xmlns="http://www.w3.org/2000/svg">
<path fill-rule="evenodd" clip-rule="evenodd" d="M10.9157 2.06032C10.6636 2.08886 10.2374 2.15584 9.96849 2.20919C9.69962 2.26254 9.23215 2.38855 8.92966 2.48926C8.62718 2.58998 8.13741 2.78138 7.84134 2.91466C7.54521 3.04789 7.08287 3.29343 6.81394 3.46021C6.54501 3.62704 6.15483 3.89166 5.94689 4.04823C5.73888 4.20479 5.32567 4.56945 5.0285 4.85857C4.7314 5.14769 4.32393 5.5982 4.12307 5.8597C3.92221 6.12114 3.62291 6.55265 3.45804 6.81848C3.29317 7.08438 3.04923 7.54419 2.91602 7.84033C2.78274 8.13642 2.59154 8.62623 2.49101 8.92874C2.39055 9.23124 2.26559 9.68499 2.21334 9.93708C2.16116 10.1892 2.08489 10.7598 2.04395 11.2051C1.98535 11.8419 1.98535 12.1879 2.04395 12.8246C2.08489 13.2699 2.16164 13.8406 2.2145 14.0927C2.26736 14.3448 2.40565 14.8353 2.52187 15.1828C2.63804 15.5303 2.86585 16.0832 3.02809 16.4113C3.19033 16.7396 3.42639 17.1703 3.55257 17.3685C3.67882 17.5666 3.95362 17.9488 4.16334 18.2177C4.373 18.4866 4.77497 18.927 5.05667 19.1964C5.33832 19.4658 5.73374 19.8126 5.9354 19.9671C6.13705 20.1216 6.48756 20.3615 6.71433 20.5002C6.94104 20.6389 7.34814 20.8637 7.61903 20.9999C7.88986 21.1361 8.3368 21.3278 8.61221 21.4259C8.88762 21.5241 9.33297 21.658 9.60185 21.7237C9.87072 21.7893 10.2969 21.8784 10.549 21.9215C10.8011 21.9647 11.461 22 12.0156 22C12.5701 22 13.2301 21.9647 13.4822 21.9215C13.7342 21.8784 14.1605 21.7895 14.4293 21.7239C14.6982 21.6583 15.1244 21.5334 15.3765 21.4462C15.6286 21.359 15.8966 21.2211 15.9723 21.1396C16.0541 21.0515 16.1098 20.914 16.1098 20.8003C16.1098 20.6346 15.969 20.4668 15.0557 19.544C14.4759 18.9583 13.9141 18.4413 13.8073 18.3952C13.6407 18.3233 13.5229 18.3252 12.9823 18.4082C12.5451 18.4753 12.1456 18.4943 11.6795 18.4703C11.3077 18.4511 10.7759 18.3766 10.4895 18.3036C10.2047 18.231 9.75791 18.0814 9.49662 17.9712C9.23532 17.861 8.78661 17.6145 8.49953 17.4234C8.21238 17.2324 7.81298 16.9238 7.612 16.7377C7.41102 16.5516 7.08061 16.1791 6.87786 15.91C6.67504 15.6408 6.41057 15.225 6.29019 14.9858C6.16974 14.7467 6.00677 14.3798 5.92794 14.1705C5.84918 13.9612 5.73692 13.5899 5.67856 13.3455C5.60462 13.036 5.57181 12.6412 5.57059 12.0454C5.5693 11.442 5.60151 11.0378 5.67997 10.6738C5.74114 10.39 5.88211 9.92877 5.9932 9.64882C6.10436 9.36886 6.3293 8.91358 6.49312 8.63705C6.70126 8.2856 6.99323 7.93194 7.46308 7.46205C7.92921 6.99589 8.28712 6.69987 8.63073 6.49643C8.9032 6.33503 9.32943 6.11998 9.57789 6.01853C9.82635 5.91708 10.2633 5.77573 10.549 5.70436C10.9591 5.60193 11.2614 5.574 11.985 5.5718C12.6575 5.56979 13.0201 5.59759 13.3461 5.67631C13.5905 5.73528 13.9617 5.84803 14.171 5.9268C14.3803 6.00564 14.7472 6.16862 14.9863 6.28907C15.2254 6.40946 15.6413 6.67396 15.9104 6.87679C16.1795 7.07955 16.552 7.40999 16.738 7.61098C16.9242 7.81198 17.2327 8.21141 17.4237 8.49857C17.6148 8.78567 17.8613 9.23442 17.9715 9.49573C18.0817 9.75704 18.2313 10.2039 18.3039 10.4887C18.3769 10.7751 18.4514 11.307 18.4706 11.6788C18.4946 12.1449 18.4755 12.5444 18.4084 12.9817C18.3254 13.5223 18.3236 13.6401 18.3955 13.8067C18.4415 13.9136 18.9585 14.4754 19.5442 15.0552C20.4669 15.9686 20.6347 16.1094 20.8003 16.1094C20.9141 16.1094 21.0516 16.0536 21.1397 15.9719C21.2211 15.8962 21.359 15.6281 21.4462 15.376C21.5334 15.1239 21.6583 14.6977 21.7239 14.4288C21.7895 14.1599 21.8784 13.7337 21.9215 13.4816C21.9647 13.2295 22 12.5695 22 12.0149C22 11.4603 21.9647 10.8003 21.9215 10.5482C21.8784 10.2961 21.7894 9.86986 21.7237 9.60097C21.658 9.33207 21.5241 8.88669 21.426 8.61126C21.3278 8.33583 21.1361 7.88886 21 7.61801C20.8638 7.3471 20.639 6.93997 20.5003 6.71325C20.3616 6.48646 20.1217 6.13593 19.9673 5.93426C19.8127 5.73259 19.4659 5.33713 19.1966 5.05547C18.9272 4.77374 18.4869 4.37175 18.218 4.16208C17.9491 3.95234 17.567 3.67752 17.3688 3.55126C17.1706 3.42507 16.7399 3.18899 16.4117 3.02674C16.0836 2.86449 15.5307 2.6366 15.1833 2.52043C14.8358 2.40426 14.3453 2.26718 14.0932 2.21585C13.8412 2.16452 13.3679 2.09326 13.0415 2.05751C12.7152 2.02176 12.2065 1.99609 11.911 2.00049C11.6156 2.00483 11.1677 2.03178 10.9157 2.06032ZM15.5904 12.5624C15.5232 12.5918 14.8095 13.277 14.0046 14.085C12.641 15.454 12.5411 15.5691 12.5411 15.7726C12.5411 15.9683 12.6078 16.0581 13.1797 16.6329C13.5309 16.9859 13.8813 17.2908 13.9584 17.3105C14.0355 17.3301 14.221 17.2994 14.3706 17.2423C14.5203 17.1851 14.8556 16.9994 15.1157 16.8296C15.3758 16.6597 15.7773 16.3388 16.0079 16.1165C16.2385 15.8941 16.5859 15.4752 16.7797 15.1857C16.9735 14.8961 17.1804 14.5329 17.2394 14.3786C17.2983 14.2243 17.3305 14.0349 17.3108 13.9578C17.2912 13.8807 16.9922 13.5374 16.6466 13.1949C16.297 12.8484 15.9504 12.5581 15.8654 12.5405C15.7813 12.5231 15.6576 12.533 15.5904 12.5624ZM17.8623 14.8413C17.8163 14.917 17.6457 15.1988 17.4831 15.4677C17.2862 15.7932 16.9712 16.1711 16.5405 16.5983C16.065 17.07 15.7403 17.3305 15.3143 17.582C14.9476 17.7985 14.7285 17.9668 14.7174 18.0404C14.7052 18.1216 15.0466 18.5015 15.8515 19.3025C16.9038 20.3495 17.0215 20.4483 17.2158 20.4483C17.38 20.4483 17.5465 20.3621 17.9455 20.0706C18.2298 19.8628 18.7399 19.4159 19.0789 19.0775C19.418 18.7391 19.8649 18.2304 20.0719 17.9472C20.364 17.5476 20.4484 17.384 20.4484 17.2175C20.4484 17.0206 20.3538 16.9077 19.3048 15.8533C18.6758 15.2211 18.1126 14.7038 18.0535 14.7038C17.9943 14.7038 17.9082 14.7656 17.8623 14.8413ZM20.6839 18.3552C20.4728 18.6494 19.9828 19.2072 19.5951 19.5949C19.2074 19.9827 18.6496 20.4727 18.3555 20.6838C18.0034 20.9366 17.8208 21.1077 17.8208 21.1846C17.8208 21.256 17.8744 21.3136 17.9583 21.3325C18.0339 21.3495 18.9345 21.5139 19.9596 21.6979C21.7185 22.0136 21.8292 22.0266 21.9279 21.9279C22.0266 21.8292 22.0136 21.7185 21.6979 19.9594C21.514 18.9343 21.3495 18.0337 21.3325 17.958C21.3136 17.8741 21.256 17.8205 21.1847 17.8205C21.1078 17.8205 20.9367 18.0032 20.6839 18.3552Z" fill="#FFF1C0"/>
</svg>
