<svg width="24" height="24" viewBox="0 0 24 24" fill="none" xmlns="http://www.w3.org/2000/svg">
<path fill-rule="evenodd" clip-rule="evenodd" d="M4.58607 9.1525C4.32771 9.41087 4.32771 9.82976 4.58607 10.0881L6.43059 11.9326V14.5408C6.43059 14.9061 6.72679 15.2023 7.09217 15.2023H9.70029L11.5448 17.0469C11.8032 17.3052 12.2221 17.3052 12.4804 17.0469L14.3249 15.2023H16.9333C17.2987 15.2023 17.5949 14.9061 17.5949 14.5408V11.9324L19.4392 10.0881C19.6975 9.82976 19.6975 9.41087 19.4392 9.1525L17.5949 7.30824V4.69963C17.5949 4.33425 17.2987 4.03804 16.9333 4.03804H14.3247L12.4804 2.19377C12.2221 1.93541 11.8032 1.93541 11.5448 2.19377L9.70053 4.03804H7.09218C6.72679 4.03804 6.43059 4.33425 6.43059 4.69963V7.30799L4.58607 9.1525ZM8.32383 13.3091V11.1484L6.79571 9.62031L8.32383 8.09219V5.93129H10.4847L12.0126 4.40341L13.5405 5.93129H15.7016V8.09244L17.2295 9.62031L15.7016 11.1482V13.3091H13.5407L12.0126 14.8372L10.4845 13.3091H8.32383Z" fill="white"/>
<path d="M4.19336 17.0419C4.19336 16.7805 4.40527 16.5686 4.66667 16.5686H5.6042C5.8656 16.5686 6.07751 16.7805 6.07751 17.0419V18.001C6.07751 18.2624 5.8656 18.4743 5.6042 18.4743H4.66667C4.40527 18.4743 4.19336 18.2624 4.19336 18.001V17.0419Z" fill="white"/>
<path d="M6.17172 20.4722C6.17172 20.2108 6.38363 19.9989 6.64503 19.9989H17.3801C17.6415 19.9989 17.8534 20.2108 17.8534 20.4722V21.5267C17.8534 21.7881 17.6415 22 17.3801 22H6.64504C6.38363 22 6.17172 21.7881 6.17172 21.5267V20.4722Z" fill="white"/>
<path d="M8.15235 16.5686C7.89095 16.5686 7.67904 16.7805 7.67904 17.0419V18.001C7.67904 18.2624 7.89095 18.4743 8.15235 18.4743H9.08987C9.35128 18.4743 9.56319 18.2624 9.56319 18.001V17.0419C9.56319 16.7805 9.35128 16.5686 9.08987 16.5686H8.15235Z" fill="white"/>
<path d="M14.462 17.0419C14.462 16.7805 14.6739 16.5686 14.9353 16.5686H15.8728C16.1342 16.5686 16.3461 16.7805 16.3461 17.0419V18.001C16.3461 18.2624 16.1342 18.4743 15.8728 18.4743H14.9353C14.6739 18.4743 14.462 18.2624 14.462 18.001V17.0419Z" fill="white"/>
<path d="M18.4209 16.5686C18.1595 16.5686 17.9476 16.7805 17.9476 17.0419V18.001C17.9476 18.2624 18.1595 18.4743 18.4209 18.4743H19.3585C19.6199 18.4743 19.8318 18.2624 19.8318 18.001V17.0419C19.8318 16.7805 19.6199 16.5686 19.3585 16.5686H18.4209Z" fill="white"/>
</svg>
