<svg width="24" height="24" viewBox="0 0 24 24" fill="none" xmlns="http://www.w3.org/2000/svg">
<path d="M4.16827 17.0418C4.16827 16.7804 4.38018 16.5685 4.64159 16.5685H5.57912C5.84053 16.5685 6.05245 16.7804 6.05245 17.0418V18.001C6.05245 18.2624 5.84053 18.4743 5.57912 18.4743H4.64159C4.38018 18.4743 4.16827 18.2624 4.16827 18.001V17.0418Z" fill="white"/>
<path d="M6.14666 20.4722C6.14666 20.2108 6.35857 19.9989 6.61998 19.9989H17.3552C17.6166 19.9989 17.8285 20.2108 17.8285 20.4722V21.5267C17.8285 21.7881 17.6166 22 17.3552 22H6.61998C6.35857 22 6.14666 21.7881 6.14666 21.5267V20.4722Z" fill="white"/>
<path d="M8.12732 16.5685C7.86591 16.5685 7.65399 16.7804 7.65399 17.0418V18.001C7.65399 18.2624 7.86591 18.4743 8.12732 18.4743H9.06485C9.32626 18.4743 9.53817 18.2624 9.53817 18.001V17.0418C9.53817 16.7804 9.32626 16.5685 9.06485 16.5685H8.12732Z" fill="white"/>
<path d="M14.437 17.0418C14.437 16.7804 14.6489 16.5685 14.9103 16.5685H15.8479C16.1093 16.5685 16.3212 16.7804 16.3212 17.0418V18.001C16.3212 18.2624 16.1093 18.4743 15.8479 18.4743H14.9103C14.6489 18.4743 14.437 18.2624 14.437 18.001V17.0418Z" fill="white"/>
<path d="M18.396 16.5685C18.1346 16.5685 17.9227 16.7804 17.9227 17.0418V18.001C17.9227 18.2624 18.1346 18.4743 18.396 18.4743H19.3336C19.595 18.4743 19.8069 18.2624 19.8069 18.001V17.0418C19.8069 16.7804 19.595 16.5685 19.3336 16.5685H18.396Z" fill="white"/>
<path d="M4.16827 13.6072C4.16827 13.3458 4.38018 13.1339 4.64159 13.1339H5.57912C5.84053 13.1339 6.05245 13.3458 6.05245 13.6072V14.5664C6.05245 14.8278 5.84053 15.0397 5.57912 15.0397H4.64159C4.38018 15.0397 4.16827 14.8278 4.16827 14.5664V13.6072Z" fill="white"/>
<path d="M18.396 13.1339C18.1346 13.1339 17.9227 13.3458 17.9227 13.6072V14.5664C17.9227 14.8278 18.1346 15.0397 18.396 15.0397H19.3336C19.595 15.0397 19.8069 14.8278 19.8069 14.5664V13.6072C19.8069 13.3458 19.595 13.1339 19.3336 13.1339H18.396Z" fill="white"/>
<path fill-rule="evenodd" clip-rule="evenodd" d="M17.5087 12.8141C18.0695 12.3452 18.3936 11.6519 18.3936 10.9209V1.99976H9.09262C7.15322 1.99976 5.58104 3.57195 5.58104 5.51134V10.9319C5.58104 11.6565 5.89958 12.3446 6.45215 12.8134L11.5132 17.1077C11.7597 17.3169 12.1211 17.3182 12.3691 17.1108L17.5087 12.8141ZM7.47918 9.87708V11.1955H11.9489L16.4954 11.1871V9.87708H7.47918ZM16.4954 7.97893V3.89791H15.6412V6.17569C15.6412 6.69985 15.2163 7.12476 14.6922 7.12476C14.168 7.12476 13.7431 6.69985 13.7431 6.17569V3.89791H12.8889V4.56226C12.8889 5.08642 12.464 5.51134 11.9398 5.51134C11.4157 5.51134 10.9908 5.08642 10.9908 4.56226V3.89791H9.09262C8.20155 3.89791 7.47918 4.62027 7.47918 5.51134V7.97893H16.4954Z" fill="white"/>
</svg>
