<svg width="24" height="24" viewBox="0 0 24 24" fill="none" xmlns="http://www.w3.org/2000/svg">
<path fill-rule="evenodd" clip-rule="evenodd" d="M2 2L4.34602 5.21386L5.00444 6.07843V14.0392V22H7.54637H10.0883V18.2584V14.5169H11.2087C11.2087 14.5169 11.1455 14.4353 12.1879 16.2771C13.4351 18.4807 14.6938 20.699 15.0421 21.3072L15.4388 22H18.2194C19.9323 22 21.0263 22 21.0263 22C21.0263 22 20.8109 21.5542 20.6621 21.3036C20.5133 21.0531 20.1483 20.3298 19.7685 19.6873C19.1689 18.6731 17.5526 15.9712 16.6895 14.5404L16.4088 14.0751L16.7472 13.9927C21.1132 12.9278 22.387 6.55265 18.8126 3.65602C16.9423 2.14036 16.0481 2 8.26518 2H2ZM14.1363 6.23386C15.4908 6.5653 16.2057 8.28205 15.5589 9.6506C15.0596 10.7071 14.4478 10.9396 11.9792 11.0108L10.0883 11.0654V8.58096V6.09639H11.8313C12.7901 6.09639 13.8273 6.15819 14.1363 6.23386Z" fill="#FFF1C0"/>
</svg>
