<svg xmlns="http://www.w3.org/2000/svg" style="-ms-transform:rotate(360deg);-webkit-transform:rotate(360deg)" viewBox="0 0 192 192"><path d="M87.295667 135.95733A37.333333 37.333333 0 0 1 21.333 112c0-17.088 12.16-28.085333 28.373333-42.752 14.144-12.8 31.381334-28.394667 46.293334-53.248C110.91167 40.853333 128.149 56.448 142.293 69.248c16.21333 14.666667 28.37333 25.664 28.37333 42.752a37.333333 37.333333 0 0 1-65.96266 23.95733 212.48 212.48 0 0 0 16.87466 31.008c2.464 3.73334-.21333 9.03467-4.672 9.03467H75.093c-4.469333 0-7.146667-5.30133-4.672-9.03467a212.46933 212.46933 0 0 0 16.874667-31.008z"/></svg>