<svg width="24" height="24" viewBox="0 0 24 24" fill="none" xmlns="http://www.w3.org/2000/svg">
<path d="M9.00011 21.25C9.00011 21.6641 8.6644 22 8.25013 22C7.83586 22 7.50015 21.6641 7.50015 21.25V2.74998C7.50015 2.3357 7.83586 2 8.25013 2C8.6644 2 9.00011 2.33571 9.00011 2.74998V21.25Z" fill="black"/>
<path d="M16.5004 21.25C16.5004 21.6641 16.1645 22 15.7504 22C15.3363 22 15.0004 21.6641 15.0004 21.25V2.74998C15.0004 2.3357 15.3363 2 15.7504 2C16.1645 2 16.5004 2.33571 16.5004 2.74998V21.25Z" fill="black"/>
<path d="M22 8.24961C22 8.66389 21.6643 8.99959 21.25 8.99959H2.74998C2.3357 8.99959 2 8.66388 2 8.24961C2 7.83534 2.33571 7.49963 2.74998 7.49963H21.25C21.6643 7.49963 22 7.83534 22 8.24961Z" fill="black"/>
<path d="M22 15.7499C22 16.1641 21.6643 16.4998 21.25 16.4998H2.74998C2.3357 16.4998 2 16.1641 2 15.7499C2 15.3356 2.33571 14.9999 2.74998 14.9999H21.25C21.6643 14.9999 22 15.3356 22 15.7499Z" fill="black"/>
</svg>
