<?xml version="1.0" encoding="UTF-8" standalone="no"?>
<!-- Created with Inkscape (http://www.inkscape.org/) -->

<svg
   width="24"
   height="24"
   viewBox="0 0 24 24"
   version="1.1"
   id="svg5"
   inkscape:version="1.2.1 (9c6d41e410, 2022-07-14, custom)"
   sodipodi:docname="tailscale.svg"
   xml:space="preserve"
   xmlns:inkscape="http://www.inkscape.org/namespaces/inkscape"
   xmlns:sodipodi="http://sodipodi.sourceforge.net/DTD/sodipodi-0.dtd"
   xmlns="http://www.w3.org/2000/svg"
   xmlns:svg="http://www.w3.org/2000/svg"><sodipodi:namedview
     id="namedview7"
     pagecolor="#505050"
     bordercolor="#ffffff"
     borderopacity="1"
     inkscape:showpageshadow="0"
     inkscape:pageopacity="0"
     inkscape:pagecheckerboard="1"
     inkscape:deskcolor="#505050"
     inkscape:document-units="px"
     showgrid="true"
     inkscape:zoom="22.627417"
     inkscape:cx="19.091883"
     inkscape:cy="12.639534"
     inkscape:window-width="1920"
     inkscape:window-height="1020"
     inkscape:window-x="0"
     inkscape:window-y="28"
     inkscape:window-maximized="1"
     inkscape:current-layer="svg5"><inkscape:grid
       type="xygrid"
       id="grid132"
       empspacing="4" /></sodipodi:namedview><defs
     id="defs2" /><path
     d="m 14.5,5.5000002 c 0,1.3807119 -1.119288,2.5 -2.5,2.5 -1.380712,0 -2.5000001,-1.1192881 -2.5000001,-2.5 0,-1.3807119 1.1192881,-2.5 2.5000001,-2.5 1.380712,0 2.5,1.1192881 2.5,2.5 z m 6.5,0 c 0,1.3807119 -1.119288,2.5 -2.5,2.5 -1.380712,0 -2.5,-1.1192881 -2.5,-2.5 0,-1.3807119 1.119288,-2.5 2.5,-2.5 1.380712,0 2.5,1.1192881 2.5,2.5 z M 20.99979,12 c 0,1.380712 -1.119288,2.5 -2.5,2.5 -1.380712,0 -2.5,-1.119288 -2.5,-2.5 0,-1.380712 1.119288,-2.4999998 2.5,-2.4999998 1.380712,0 2.5,1.1192878 2.5,2.4999998 z M 7.9999999,18.5 c 0,1.380712 -1.1192881,2.5 -2.5,2.5 -1.3807119,0 -2.5,-1.119288 -2.5,-2.5 0,-1.380712 1.1192881,-2.5 2.5,-2.5 1.3807119,0 2.5,1.119288 2.5,2.5 z M 8.0002107,5.5000002 c 0,1.3807119 -1.1192881,2.5 -2.5,2.5 -1.3807119,0 -2.5,-1.1192881 -2.5,-2.5 0,-1.3807119 1.1192881,-2.5 2.5,-2.5 1.3807119,0 2.5,1.1192881 2.5,2.5 z M 20.99979,18.5 c 0,1.380712 -1.119288,2.5 -2.5,2.5 -1.380712,0 -2.5,-1.119288 -2.5,-2.5 0,-1.380712 1.119288,-2.5 2.5,-2.5 1.380712,0 2.5,1.119288 2.5,2.5 z M 7.9999999,12 c 0,1.380712 -1.1192881,2.5 -2.5,2.5 -1.3807119,0 -2.5,-1.119288 -2.5,-2.5 0,-1.380712 1.1192881,-2.4999998 2.5,-2.4999998 1.3807119,0 2.5,1.1192878 2.5,2.4999998 z m 6.4997881,0 c 0,1.380712 -1.119288,2.5 -2.5,2.5 -1.380712,0 -2.4999998,-1.119288 -2.4999998,-2.5 0,-1.380712 1.1192878,-2.4999996 2.4999998,-2.4999998 1.380712,0 2.5,1.1192878 2.5,2.4999998 z m 0,6.5 c 0,1.380712 -1.119288,2.5 -2.5,2.5 -1.380712,0 -2.4999998,-1.119288 -2.4999998,-2.5 0,-1.380712 1.1192878,-2.5 2.4999998,-2.5 1.380712,0 2.5,1.119288 2.5,2.5 z M 14.25,12 c 0,1.242641 -1.007359,2.25 -2.25,2.25 C 10.757359,14.25 9.7500002,13.242641 9.7500003,12 9.7500002,10.757359 10.757359,9.7500001 12,9.75 c 1.242641,-10e-8 2.25,1.007359 2.25,2.25 z m -6.5000001,0 c 0,1.242641 -1.007359,2.25 -2.25,2.25 C 4.2573589,14.25 3.25,13.242641 3.2500001,12 3.25,10.757359 4.2573589,9.75 5.4999999,9.7499999 c 1.242641,-1e-7 2.25,1.0073591 2.25,2.2500001 z M 20.75,12 c 0,1.242641 -1.007359,2.25 -2.25,2.25 -1.242641,0 -2.25,-1.007359 -2.25,-2.25 0,-1.242641 1.007359,-2.2499999 2.25,-2.25 1.242641,-10e-8 2.25,1.007359 2.25,2.25 z m -6.5,6.5 c 0,1.242641 -1.007359,2.25 -2.25,2.25 -1.242641,0 -2.2499999,-1.007359 -2.2499998,-2.25 -1e-7,-1.242641 1.0073588,-2.25 2.2499998,-2.25 1.242641,0 2.25,1.007359 2.25,2.25 z"
     style="fill:#000000;fill-opacity:1;fill-rule:evenodd;stroke:none;stroke-width:0.0473782"
     id="path496"
     sodipodi:nodetypes="sssssssssssssssssssssssssssssssssssssssssssssssssssssssssssssssss" /></svg>
