<?xml version="1.0" encoding="utf-8"?>
<!-- Generator: Adobe Illustrator 16.2.0, SVG Export Plug-In . SVG Version: 6.00 Build 0)  -->
<!DOCTYPE svg PUBLIC "-//W3C//DTD SVG 1.1//EN" "http://www.w3.org/Graphics/SVG/1.1/DTD/svg11.dtd">
<svg version="1.1" id="Layer_1" xmlns="http://www.w3.org/2000/svg" xmlns:xlink="http://www.w3.org/1999/xlink" x="0px" y="0px"
	 width="24px" height="24px" viewBox="0 0 24 24" enable-background="new 0 0 24 24" xml:space="preserve">
<path d="M11.998,19.779c0.89,0,1.612,0.72,1.612,1.609c0,0.891-0.722,1.611-1.612,1.611l0,0c-0.89,0-1.61-0.721-1.61-1.611
	C10.388,20.499,11.108,19.779,11.998,19.779z M6.191,19.779c0.889,0,1.61,0.72,1.611,1.609c0,0.891-0.721,1.611-1.61,1.611h0
	c-0.89,0-1.61-0.721-1.61-1.611C4.581,20.499,5.302,19.779,6.191,19.779z M17.807,19.779c0.889,0,1.611,0.72,1.611,1.609
	c0,0.891-0.723,1.611-1.611,1.611l0,0c-0.891,0-1.611-0.721-1.611-1.611C16.197,20.499,16.916,19.779,17.807,19.779z M12,1
	c5.225,0,9.463,3.727,9.463,8.325c0,4.598-4.238,8.326-9.463,8.326c-1.425,0.005-2.835-0.282-4.146-0.841l-4.74,1.186l1.013-4.052
	c-1.003-1.321-1.588-2.911-1.588-4.619C2.538,4.727,6.774,1,12,1z M11.999,4.882c-1.481,0-2.683,1.2-2.683,2.681v1.072H9.21
	c-0.238,0-0.431,0.193-0.431,0.431l0,0v3.782c0,0.238,0.192,0.431,0.431,0.431h5.579c0.238,0,0.432-0.191,0.432-0.43V9.064
	c0-0.237-0.193-0.431-0.432-0.431l0,0h-0.105V7.562C14.682,6.079,13.48,4.88,11.999,4.882L11.999,4.882L11.999,4.882z M11.999,5.954
	c0.891,0,1.611,0.722,1.611,1.608v1.072h-3.22V7.563C10.389,6.676,11.11,5.954,11.999,5.954z"/>
</svg>
