<svg width="24" height="24" viewBox="0 0 24 24" fill="none" xmlns="http://www.w3.org/2000/svg">
<path d="M4.95157 1.48939C3.66719 1.42499 2.57379 2.41398 2.50939 3.69836L2.01333 13.5914C1.97955 14.2652 2.43576 14.8931 2.87242 15.3408L3.29129 12.5492C3.3067 12.4988 3.3217 12.4507 3.33616 12.4044L3.33731 12.4006L3.33908 12.3949C3.40456 12.185 3.45883 12.011 3.49354 11.8207C3.54522 11.5374 3.62485 11.2004 3.72423 10.847C3.92069 10.1485 4.2106 9.32863 4.55166 8.69944C5.10118 7.68569 5.96925 6.847 7.04536 6.2289L7.16053 3.93157C7.22493 2.64719 6.23594 1.55379 4.95157 1.48939Z" fill="#FFF1C0"/>
<path fill-rule="evenodd" clip-rule="evenodd" d="M4.91217 14.1596C5.2968 14.4127 5.76396 14.6825 6.31062 14.9474C6.89318 15.2298 7.56603 15.5064 8.32544 15.7511C10.6186 16.4901 13.6988 16.9369 17.4617 16.3716L17.5726 16.3956L17.5485 16.6128C17.2797 17.0469 17.1263 17.5597 17.1306 18.108V19H2.50939L3.85518 13.4297L3.99502 13.4599M4.91217 14.1596C4.90156 14.1526 4.89103 14.1456 4.88054 14.1387L4.91217 14.1596ZM4.88054 14.1387C4.86653 14.1294 4.85263 14.1201 4.83883 14.1108L4.88054 14.1387ZM4.83883 14.1108C4.7234 14.0334 4.61506 13.9572 4.51407 13.8828L4.83883 14.1108ZM4.51407 13.8828C4.40125 13.7996 4.29759 13.7188 4.20339 13.641L4.51407 13.8828ZM4.20339 13.641C4.12826 13.5789 4.05913 13.5188 3.99622 13.461L4.20339 13.641Z" fill="#FFF1C0"/>
<path d="M17.8721 18.1021C17.8631 16.964 18.7783 16.0341 19.9163 16.0251C21.0544 16.016 21.9843 16.9313 21.9933 18.0693L22 19C22 19 21.0544 18.9909 19.9163 19C18.7783 19.0091 17.9017 19 17.9017 19L17.8721 18.1021Z" fill="#FFF1C0"/>
<path fill-rule="evenodd" clip-rule="evenodd" d="M4.17087 12.5098C4.11473 12.0981 4.59521 10.175 5.20353 9.05279C5.6086 8.30562 6.22445 7.65231 7.00019 7.12971C7.74323 6.62915 8.63311 6.24825 9.62543 6.01893L9.63461 3.18387C9.63595 2.77299 9.97012 2.44099 10.381 2.44232C10.7919 2.44366 11.1239 2.77782 11.1225 3.1887L11.1141 5.79969C11.8936 5.74639 12.7107 5.78242 13.5431 5.91886C15.4147 6.22566 17.0511 6.9889 18.2525 8.0085L20.1929 6.23126C20.4674 5.9799 20.8937 5.99861 21.145 6.27306C21.3964 6.54751 21.3777 6.97377 21.1032 7.22514L19.2246 8.94576C19.47 9.25907 19.6775 9.60744 19.852 9.97646C20.0144 10.2944 20.1411 10.6215 20.2289 10.9545C20.6748 12.3935 20.7376 13.9446 20.6634 14.9051C14.1077 16.8119 9.28387 15.5735 6.60053 14.2639C6.23024 14.0832 5.90073 13.9011 5.61303 13.7258C5.5077 13.6616 5.40797 13.5983 5.31391 13.5363C5.09417 13.3915 4.90517 13.2536 4.7477 13.1278C4.37911 12.8334 4.18395 12.6057 4.17087 12.5098ZM7.15894 11.0501C7.57917 11.328 8.19166 11.1424 8.52698 10.6355C8.8623 10.1286 8.79347 9.49232 8.37324 9.21434C7.95301 8.93637 7.34052 9.12197 7.0052 9.62889C6.66988 10.1358 6.73871 10.7721 7.15894 11.0501ZM14.9005 13.4194C14.4244 13.5843 13.8772 13.2524 13.6782 12.6781C13.4793 12.1038 13.704 11.5045 14.1801 11.3396C14.6562 11.1747 15.2034 11.5066 15.4023 12.0809C15.6013 12.6553 15.3766 13.2545 14.9005 13.4194Z" fill="#FFF1C0"/>
<path d="M5.8188 22.7294C5.66422 22.7294 5.52314 22.7049 5.39555 22.6558C5.27042 22.6043 5.16369 22.5307 5.07536 22.435C4.98703 22.3393 4.91833 22.224 4.86926 22.089C4.82019 21.9516 4.79565 21.7958 4.79565 21.6216V20.0354H5.2925V21.6511C5.2925 21.7394 5.30354 21.8204 5.32563 21.894C5.34771 21.9676 5.38083 22.0314 5.425 22.0854C5.46916 22.1393 5.52437 22.1823 5.59061 22.2142C5.65686 22.2436 5.73292 22.2583 5.8188 22.2583C5.90712 22.2583 5.98441 22.2436 6.05066 22.2142C6.1169 22.1823 6.17211 22.1393 6.21627 22.0854C6.26044 22.0314 6.29356 21.9676 6.31564 21.894C6.33773 21.8204 6.34877 21.7394 6.34877 21.6511V20.0354H6.84562V21.6216C6.84562 21.786 6.82108 21.9369 6.77201 22.0743C6.72539 22.2093 6.65669 22.3258 6.56591 22.424C6.47758 22.5196 6.36962 22.5945 6.24204 22.6485C6.1169 22.7024 5.97582 22.7294 5.8188 22.7294Z" fill="#FFF1C0"/>
<path d="M8.3102 21.4597H8.93954V21.8866H8.3102V22.5123H7.88328V21.8866H7.25762V21.4597H7.88328V20.834H8.3102V21.4597Z" fill="#FFF1C0"/>
<path d="M9.80466 22.6705V20.7199L9.35933 20.9076L9.18268 20.4991L9.92243 20.1532H10.2868V22.6705H9.80466Z" fill="#FFF1C0"/>
<path d="M10.8603 20.0354H12.5312V20.5065H11.3571V21.1469H12.4134V21.618H11.3571V22.6705H10.8603V20.0354Z" fill="#FFF1C0"/>
<path d="M13.8326 21.0512C13.9283 21.0512 14.0215 21.072 14.1123 21.1137C14.2031 21.153 14.2841 21.2082 14.3552 21.2794C14.4264 21.3505 14.4828 21.4364 14.5245 21.537C14.5687 21.6376 14.5908 21.748 14.5908 21.8682C14.5908 21.9934 14.5662 22.1087 14.5172 22.2142C14.4681 22.3197 14.4018 22.4105 14.3184 22.4865C14.2375 22.5626 14.143 22.6227 14.035 22.6669C13.9295 22.7086 13.8179 22.7294 13.7001 22.7294C13.5627 22.7294 13.4388 22.7061 13.3284 22.6595C13.218 22.6104 13.1223 22.5466 13.0413 22.4681C12.9628 22.3872 12.9015 22.2939 12.8573 22.1884C12.8156 22.0805 12.7948 21.9676 12.7948 21.8498C12.7948 21.6805 12.8279 21.5259 12.8941 21.3861C12.9628 21.2438 13.0487 21.099 13.1517 20.9518L13.7627 20.0796L14.1344 20.3372L13.6192 21.0659L13.6376 21.088C13.694 21.0634 13.759 21.0512 13.8326 21.0512ZM13.6928 22.2841C13.7467 22.2841 13.7995 22.2743 13.851 22.2547C13.9025 22.235 13.9479 22.2068 13.9872 22.17C14.0264 22.1332 14.0571 22.0903 14.0792 22.0412C14.1037 21.9897 14.116 21.9332 14.116 21.8719C14.116 21.8106 14.1037 21.7541 14.0792 21.7026C14.0571 21.6511 14.0264 21.6069 13.9872 21.5701C13.9479 21.5333 13.9025 21.5051 13.851 21.4855C13.7995 21.4658 13.7467 21.456 13.6928 21.456C13.6363 21.456 13.5823 21.4658 13.5308 21.4855C13.4818 21.5051 13.4364 21.5333 13.3947 21.5701C13.3554 21.6069 13.3235 21.6511 13.299 21.7026C13.2769 21.7541 13.2658 21.8106 13.2658 21.8719C13.2658 21.9332 13.2769 21.9897 13.299 22.0412C13.3235 22.0903 13.3554 22.1332 13.3947 22.17C13.4364 22.2068 13.4818 22.235 13.5308 22.2547C13.5823 22.2743 13.6363 22.2841 13.6928 22.2841Z" fill="#FFF1C0"/>
<path d="M16.0495 22.6705V22.2068H14.8865V21.8167L16.0054 20.1532H16.528V21.7578H16.8445V22.2068H16.528V22.6705H16.0495ZM16.0495 20.8708H16.0201L15.4202 21.7578H16.0495V20.8708Z" fill="#FFF1C0"/>
<path d="M17.2722 20.0354H18.3027C18.4155 20.0354 18.521 20.0538 18.6192 20.0906C18.7173 20.125 18.802 20.174 18.8731 20.2378C18.9467 20.2992 19.0044 20.3715 19.0461 20.455C19.0878 20.5384 19.1087 20.6279 19.1087 20.7236C19.1087 20.8635 19.0743 20.9813 19.0056 21.0769C18.9394 21.1702 18.856 21.2413 18.7554 21.2904V21.3198C18.8903 21.3689 18.9983 21.4462 19.0792 21.5517C19.1627 21.6548 19.2044 21.7836 19.2044 21.9381C19.2044 22.051 19.1811 22.1528 19.1344 22.2436C19.0903 22.3319 19.0289 22.408 18.9504 22.4718C18.8719 22.5356 18.7799 22.5847 18.6744 22.619C18.5713 22.6534 18.4597 22.6705 18.3395 22.6705H17.2722V20.0354ZM18.2659 21.1101C18.3812 21.1101 18.4695 21.0794 18.5309 21.0181C18.5946 20.9543 18.6265 20.8794 18.6265 20.7936C18.6265 20.7077 18.5959 20.6341 18.5345 20.5727C18.4732 20.5114 18.3885 20.4807 18.2806 20.4807H17.769V21.1101H18.2659ZM18.3211 22.2142C18.4462 22.2142 18.5419 22.1835 18.6081 22.1222C18.6744 22.0584 18.7075 21.9774 18.7075 21.8793C18.7075 21.7811 18.6732 21.7002 18.6045 21.6364C18.5382 21.5701 18.4388 21.537 18.3064 21.537H17.769V22.2142H18.3211Z" fill="#FFF1C0"/>
</svg>
