<svg xmlns="http://www.w3.org/2000/svg" viewBox="0 0 192 192"><path d="M139.33339 104.75c-3.75 7.91667-8.33334 15-13.75 20.83333 3.75-14.16666 2.08333-32.499997-6.25-49.999997-4.16667-9.166666-10-17.499995-16.66667-24.583331 10.41667-7.916667 21.25-10.416667 29.58333-6.666667 5.41667 2.5 9.58334 7.083334 11.66667 13.750003 5 12.916662 2.91667 29.999995-4.58333 46.666662m-86.666671 0c-7.5-16.666667-9.583334-33.75-4.583334-46.666662 2.083334-6.666669 6.25-11.250003 11.666667-13.750003 8.333333-3.75 19.166669-1.25 29.583335 6.666667-6.666666 7.083336-12.500002 15.416665-16.666668 24.583331-8.333334 17.5-10 35.833337-6.25 49.999997-5.416667-5.83333-10-12.91666-13.75-20.83333m51.250001 35.83333a19.583333 19.583333 0 0 1-15.833333 0C72.250052 133.5 68.916719 105.16667 81.000054 78.916667c4.166667-8.333334 9.166667-15.416667 15-21.666665C101.83339 63.5 106.83339 70.583333 111.00005 78.916667c12.08334 26.250003 8.75 54.583333-7.08333 61.666663m21.66667-106.666663c-9.58334-.416667-20 3.333335-29.583336 11.250002C86.416721 37.250002 76.000052 33.5 66.416719 33.916667a52.5 52.5 0 0 1 59.166671 0m27.5 21.250002C144.75005 31.833333 122.25005 16 96.000054 16c-26.250002 0-49.166669 15.833333-57.083335 39.166669v.416666c-5.416667 14.583332-3.333334 34.166665 5 52.916665 11.666666 25 32.916666 42.5 51.666668 42.5h.833334c18.749999 0 39.999999-17.5 51.666669-42.5 8.33333-18.75 10.41666-38.333333 5-53.333331M112.25005 164.75c-5.41666 1.66667-10.83333 2.5-15.833329 2.5h-.833334c-5 0-10.416666-.83333-15.416666-2.5-2.5-.41667-5.416669.83333-5.833336 2.91667-.833333 2.5.416667 5 2.916667 5.83333 6.250002 1.66667 12.500002 2.5 18.333335 2.5h.833334c5.833329 0 12.083329-.83333 18.333329-2.5 2.5-.83333 3.75-3.33333 3.33334-5.41667-.83334-2.5-3.75-3.75-5.83334-3.33333"/></svg>