<svg width="24" height="24" viewBox="0 0 24 24" fill="none" xmlns="http://www.w3.org/2000/svg">
<path fill-rule="evenodd" clip-rule="evenodd" d="M17.079 18.6722C18.1775 18.4166 21.2261 17.7073 21.7886 13.1651V13.1636C22.4342 7.96222 21.5513 4.41181 19.8184 2.9281C19.2965 2.45426 17.0458 1.03984 12.3488 1.01935C12.3488 1.01935 6.78682 0.653913 4.08685 3.09945C2.58414 4.58317 2.07827 6.78918 2.02239 9.48207C2.02054 9.57106 2.01845 9.66272 2.01629 9.75683C1.95323 12.5107 1.84212 17.3627 6.60615 18.6853C6.60615 18.6853 6.58678 22.5043 6.58454 22.8396C6.58305 23.0743 6.6203 23.2348 6.7559 23.268C6.85238 23.2926 6.99691 23.2427 7.11984 23.119C7.90733 22.3281 10.4285 19.2866 10.4285 19.2866C13.812 19.5075 16.5027 18.8381 16.7921 18.745C16.8599 18.7232 16.9575 18.7005 17.079 18.6722ZM11.7116 3.71516C11.7501 3.69967 11.7912 3.69194 11.8326 3.69241C13.6478 3.70505 15.2013 4.31879 16.4313 5.51783C17.6706 6.72596 18.2969 8.39154 18.3125 10.4438C18.3129 10.4852 18.3052 10.5263 18.2897 10.5647C18.2742 10.6032 18.2513 10.6382 18.2222 10.6677C18.1931 10.6972 18.1585 10.7207 18.1203 10.7367C18.0822 10.7528 18.0412 10.7612 17.9997 10.7614C17.9165 10.7617 17.8365 10.7289 17.7774 10.6702C17.7183 10.6116 17.6849 10.5319 17.6846 10.4486C17.6699 8.51898 17.1025 7.04837 15.9925 5.9663C14.8732 4.87513 13.5067 4.33197 11.8277 4.32027C11.7445 4.31993 11.6648 4.28654 11.6061 4.22744C11.5475 4.16835 11.5147 4.08838 11.515 4.00513C11.5152 3.9637 11.5236 3.92272 11.5396 3.88453C11.5557 3.84635 11.5792 3.81173 11.6087 3.78266C11.6382 3.75359 11.6732 3.73065 11.7116 3.71516ZM12.2851 5.33634C12.3244 5.3234 12.3659 5.31834 12.4071 5.32147C13.7228 5.41775 14.7945 5.87627 15.561 6.71295C16.3192 7.54148 16.6878 8.59556 16.6616 9.80865C16.6593 9.89148 16.6244 9.97007 16.5645 10.0273C16.5046 10.0845 16.4244 10.1157 16.3416 10.1141C16.2583 10.1125 16.1791 10.0779 16.1214 10.0179C16.0637 9.95785 16.0321 9.87736 16.0337 9.7941C16.0571 8.71252 15.7488 7.84837 15.098 7.13719C14.4489 6.42869 13.5599 6.03707 12.3611 5.94933C12.3198 5.94641 12.2795 5.93535 12.2426 5.91682C12.2056 5.89828 12.1726 5.87261 12.1456 5.8413C12.1186 5.80999 12.098 5.77365 12.085 5.73436C12.0721 5.69507 12.067 5.65362 12.0702 5.61237C12.0731 5.57111 12.0841 5.53083 12.1027 5.49385C12.1212 5.45688 12.1469 5.42393 12.1782 5.3969C12.2095 5.36986 12.2459 5.34929 12.2851 5.33634ZM12.756 7.02407C12.7949 7.01022 12.8362 7.00417 12.8774 7.00628C13.5263 7.04013 14.0698 7.24283 14.4483 7.63415C14.8268 8.02547 15.0165 8.58022 15.0495 9.24624C15.0531 9.32911 15.0238 9.41004 14.9679 9.47136C14.912 9.53267 14.8342 9.56939 14.7513 9.5735C14.6685 9.5771 14.5875 9.54777 14.5262 9.4919C14.4649 9.43603 14.4282 9.35818 14.4241 9.27533C14.396 8.70982 14.2445 8.32599 13.9974 8.0705C13.7503 7.81502 13.3847 7.66238 12.8435 7.63415C12.7606 7.62943 12.683 7.5921 12.6276 7.53032C12.5722 7.46854 12.5435 7.38734 12.5477 7.30446C12.5498 7.26322 12.5599 7.22278 12.5776 7.18547C12.5953 7.14815 12.6201 7.11469 12.6507 7.087C12.6814 7.0593 12.7171 7.03792 12.756 7.02407ZM13.6015 13.2113C13.3639 13.5041 12.9224 13.4668 12.9224 13.4668C9.69612 12.6432 8.83264 9.37516 8.83264 9.37516C8.83264 9.37516 8.7939 8.93374 9.08818 8.69607L9.67116 8.23267C9.96023 8.00991 10.1446 7.46939 9.85034 6.94154C9.62462 6.54533 9.37919 6.16066 9.115 5.78899C8.85834 5.43846 8.26045 4.72063 8.25822 4.71839C7.96989 4.37829 7.54598 4.29932 7.09896 4.53214C7.09636 4.53214 7.08965 4.53437 7.08965 4.53437C6.64505 4.79054 6.24416 5.11598 5.90208 5.49844C5.90091 5.50077 5.89858 5.503 5.89858 5.503L5.89538 5.507C5.61922 5.84028 5.46115 6.16697 5.42117 6.48708C5.41287 6.53428 5.41 6.58227 5.41261 6.63013C5.41112 6.77149 5.43263 6.91214 5.47631 7.0466L5.49158 7.05702C5.6309 7.55172 5.97957 8.37571 6.73726 9.74954C7.17064 10.5442 7.67047 11.3007 8.2314 12.0111C8.51244 12.3671 8.81367 12.7068 9.13363 13.0284C9.13753 13.0323 9.1414 13.0362 9.14525 13.0401C9.15278 13.0477 9.16026 13.0553 9.1679 13.0627L9.27071 13.1655C9.59228 13.4854 9.93195 13.7867 10.288 14.0677C10.9985 14.6287 11.7551 15.1285 12.5499 15.5618C13.9234 16.3195 14.7481 16.6682 15.2421 16.8075L15.2525 16.8228C15.3869 16.8666 15.5276 16.8882 15.669 16.8869C15.7168 16.8892 15.7648 16.8862 15.812 16.8779C16.1326 16.8399 16.4591 16.6821 16.7914 16.4045C16.7955 16.4022 16.7955 16.4 16.7999 16.3978C17.1824 16.0556 17.5079 15.6547 17.7644 15.2102C17.7644 15.2102 17.7662 15.2035 17.7662 15.2009C17.999 14.7539 17.9201 14.3299 17.5781 14.0412C17.5781 14.0412 16.858 13.4422 16.5075 13.1845C16.1362 12.9203 15.7519 12.6749 15.3561 12.4491C14.8278 12.1548 14.2884 12.3392 14.0649 12.6283L13.6015 13.2113Z" fill="#FFF1C0"/>
</svg>
