<svg xmlns="http://www.w3.org/2000/svg" viewBox="0 0 192 192"><path d="M96.6 103.45387c-6.24 12.88-14.78 30.32-19.02 38.18667-4.106667 7.16-7.513333 6.20667-10.213333.19333-9.373334-22.14-28.62-60.96-37.673334-82.726667-1.673333-4.006667-2.94-6.58-4.126666-7.593333-1.206667-1-3.693334-1.6-7.48-1.806666-1.4-.16-2.086667-.5-2.086667-1.06V45.61387l.346667-.3c6.16-.03333 36.006666 0 36.006666 0l.34.3v2.893334c0 .793333-.5 1.173333-1.5 1.173333l-3.76.206667c-3.233333.193333-4.846666 1.093332-4.846666 2.906666 0 .9.353333 2.2 1.106666 4.006666 7.213334 17.64 32.12 70.140004 32.12 70.140004l.906667.30666 16.073333-32.066664L89.58 88.067203l-11.053333-21.76s-2.12-4.36-2.853334-5.813333c-4.853333-9.62-4.746666-10.12-9.646666-10.78-1.38-.153333-2.086667-.333333-2.086667-.993333v-3.12l.4-.3h28.613333l.753334.246667v3.006666c0 .7-.506667 1-1.513334 1L90.14 49.867204c-5.28.406666-4.406667 2.539999-.906667 9.479999l10.546667 21.68 11.72-23.36c1.95333-4.266667 1.55333-5.34.74-6.313333-.46667-.56-2.03333-1.466666-5.41333-1.6l-1.34-.14c-.34667 0-.65334-.1-.96667-.34-.3-.206666-.44667-.506666-.44667-.86v-2.846666l.40667-.3c8.31333-.05333 26.95333 0 26.95333 0l.39334.3v2.906666c0 .806667-.39334 1.186667-1.28667 1.186667-4.30667.2-5.21333.633333-6.82 2.926666-.8 1.24-2.5 3.926667-4.30667 6.926667l-15.34 28.486666-.43333.9 18.61333 38.080004 1.13334.32 29.30666-69.58667c1.02667-2.813334.86-4.813334-.42666-5.966667-1.31334-1.146666-2.30667-1.819999-5.71334-1.966666l-2.8-.106667c-.40666 0-.7-.09333-1.01333-.3-.28667-.193333-.48-.5-.48-.793333V45.67387l.39333-.3h33.07334l.27333.3v2.913334c0 .793333-.49333 1.2-1.39333 1.2-4.32.2-7.51334 1.199999-9.62 2.806666-2.09334 1.7-3.71334 4.106666-4.90667 7.113333 0 0-26.95333 61.719997-36.17333 82.260007-3.5 6.71333-7.02 6.11333-10.02-.20667-3.80667-7.80667-11.82-25.24-17.640003-38.06667z"/></svg>