<svg width="24" height="24" viewBox="0 0 24 24" fill="none" xmlns="http://www.w3.org/2000/svg">
<path d="M21.5128 19.0391L14.397 12L21.4016 4.96089C22.0687 4.2905 22.0687 3.17318 21.4016 2.50279C20.7345 1.8324 19.6226 1.8324 18.9555 2.50279L11.951 9.5419L4.94637 2.50279C4.27927 1.8324 3.16743 1.8324 2.50033 2.50279C1.83322 3.17318 1.83322 4.2905 2.50033 4.96089L9.50491 12L2.50033 19.0391C1.83322 19.7095 1.83322 20.8268 2.50033 21.4972C3.16743 22.1676 4.27927 22.1676 4.94637 21.4972L11.951 14.4581L18.9555 21.4972C19.6226 22.1676 20.7345 22.1676 21.4016 21.4972C22.1799 20.8268 22.1799 19.7095 21.5128 19.0391Z" fill="white"/>
</svg>
