<svg width="24" height="24" viewBox="0 0 24 24" fill="none" xmlns="http://www.w3.org/2000/svg">
<path d="M12 2C6.47692 2 2 6.47692 2 12C2 17.5231 6.47692 22 12 22C17.5231 22 22 17.5231 22 12C22 6.47692 17.5231 2 12 2ZM12 17.9154C8.73462 17.9154 6.08462 15.2654 6.08462 12C6.08462 8.73462 8.73462 6.08462 12 6.08462C15.2654 6.08462 17.9154 8.73462 17.9154 12C17.9154 15.2654 15.2654 17.9154 12 17.9154ZM12 6.81154C9.13846 6.81154 6.81154 9.13846 6.81154 12C6.81154 14.8615 9.13846 17.1885 12 17.1885C14.8615 17.1885 17.1885 14.8615 17.1885 12C17.1885 9.13846 14.8615 6.81154 12 6.81154ZM10.0654 14.9538V9.04615L15.1769 12L10.0654 14.9538Z" fill="black"/>
</svg>
